<mxfile host="drawio-plugin" modified="2023-07-03T14:29:14.809Z" agent="5.0 (Macintosh; Intel Mac OS X 10_15_7) AppleWebKit/537.36 (KHTML, like Gecko) Chrome/104.0.5112.102 Safari/537.36" etag="bYamBdesZ4dhAytX72HD" version="20.5.3" type="embed"><diagram id="DWjpSvbVxY2pOprUcE6g" name="Page-1"><mxGraphModel dx="1344" dy="1097" grid="0" gridSize="10" guides="1" tooltips="1" connect="1" arrows="1" fold="1" page="0" pageScale="1" pageWidth="827" pageHeight="1169" math="0" shadow="0"><root><mxCell id="0"/><mxCell id="1" parent="0"/><mxCell id="WkdalmxvpJmTztUUumEF-8" value="Self-serve Data Platform" style="rounded=0;whiteSpace=wrap;html=1;verticalAlign=middle;fillColor=#D9EDFF;sketch=1;fontFamily=Architects Daughter;fontSource=https%3A%2F%2Ffonts.googleapis.com%2Fcss%3Ffamily%3DArchitects%2BDaughter;strokeColor=#99CCFF;fillStyle=hachure;" parent="1" vertex="1"><mxGeometry x="92.5" y="669" width="1180" height="116" as="geometry"/></mxCell><mxCell id="17" value="" style="ellipse;whiteSpace=wrap;html=1;verticalAlign=top;fillColor=#FFEB99;sketch=1;fontFamily=Architects Daughter;fontSource=https%3A%2F%2Ffonts.googleapis.com%2Fcss%3Ffamily%3DArchitects%2BDaughter;strokeColor=#FFD966;spacing=13;fontSize=16;" parent="1" vertex="1"><mxGeometry x="65" y="10" width="1235" height="637" as="geometry"/></mxCell><mxCell id="19" style="rounded=0;orthogonalLoop=1;jettySize=auto;html=1;startArrow=classic;startFill=1;endArrow=none;endFill=0;dashed=1;sketch=1;fontFamily=Architects Daughter;fontSource=https%3A%2F%2Ffonts.googleapis.com%2Fcss%3Ffamily%3DArchitects%2BDaughter;exitX=0.5;exitY=0;exitDx=0;exitDy=0;" parent="1" source="22" target="18" edge="1"><mxGeometry relative="1" as="geometry"><mxPoint x="676" y="257" as="sourcePoint"/><mxPoint x="663.3256756756759" y="237.99999999999977" as="targetPoint"/></mxGeometry></mxCell><mxCell id="20" style="rounded=0;orthogonalLoop=1;jettySize=auto;html=1;entryX=0;entryY=0.5;entryDx=0;entryDy=0;sketch=1;fontFamily=Architects Daughter;fontSource=https%3A%2F%2Ffonts.googleapis.com%2Fcss%3Ffamily%3DArchitects%2BDaughter;" parent="1" source="22" target="24" edge="1"><mxGeometry relative="1" as="geometry"><mxPoint x="601.5" y="410" as="targetPoint"/></mxGeometry></mxCell><mxCell id="21" value="" style="edgeStyle=orthogonalEdgeStyle;rounded=0;orthogonalLoop=1;jettySize=auto;html=1;startArrow=classic;startFill=1;endArrow=none;endFill=0;sketch=1;fontFamily=Architects Daughter;fontSource=https%3A%2F%2Ffonts.googleapis.com%2Fcss%3Ffamily%3DArchitects%2BDaughter;" parent="1" source="22" target="23" edge="1"><mxGeometry relative="1" as="geometry"/></mxCell><mxCell id="24" value="Data Contract" style="rounded=0;whiteSpace=wrap;html=1;fontStyle=1;sketch=1;fontFamily=Architects Daughter;fontSource=https%3A%2F%2Ffonts.googleapis.com%2Fcss%3Ffamily%3DArchitects%2BDaughter;align=left;spacingLeft=42;verticalAlign=top;spacing=10;" parent="1" vertex="1"><mxGeometry x="944" y="253" width="191" height="272" as="geometry"/></mxCell><mxCell id="44" value="datamesh-architecture.com" style="text;html=1;strokeColor=none;fillColor=none;align=right;verticalAlign=middle;whiteSpace=wrap;rounded=0;sketch=1;fillStyle=hachure;fontFamily=Architects Daughter;fontSource=https%3A%2F%2Ffonts.googleapis.com%2Fcss%3Ffamily%3DArchitects%2BDaughter;fontSize=12;fontColor=#000000;" parent="1" vertex="1"><mxGeometry x="1002.5" y="782" width="270" height="30" as="geometry"/></mxCell><mxCell id="45" value="Data Mesh Architecture with AWS S3 and Athena" style="text;html=1;strokeColor=none;fillColor=none;align=center;verticalAlign=middle;whiteSpace=wrap;rounded=0;sketch=1;fontFamily=Architects Daughter;fontSource=https%3A%2F%2Ffonts.googleapis.com%2Fcss%3Ffamily%3DArchitects%2BDaughter;fontSize=21;fontStyle=1" parent="1" vertex="1"><mxGeometry x="166" y="-40" width="1020" height="30" as="geometry"/></mxCell><mxCell id="73" value="publish" style="text;html=1;strokeColor=none;fillColor=none;align=center;verticalAlign=middle;whiteSpace=wrap;rounded=0;sketch=1;fontFamily=Architects Daughter;fontSource=https%3A%2F%2Ffonts.googleapis.com%2Fcss%3Ffamily%3DArchitects%2BDaughter;fontSize=11;" parent="1" vertex="1"><mxGeometry x="881" y="359.5" width="60" height="30" as="geometry"/></mxCell><mxCell id="75" value="ingest" style="text;html=1;strokeColor=none;fillColor=none;align=center;verticalAlign=middle;whiteSpace=wrap;rounded=0;sketch=1;fontFamily=Architects Daughter;fontSource=https%3A%2F%2Ffonts.googleapis.com%2Fcss%3Ffamily%3DArchitects%2BDaughter;fontSize=11;" parent="1" vertex="1"><mxGeometry x="416" y="356" width="60" height="30" as="geometry"/></mxCell><mxCell id="22" value="Data Product" style="rounded=0;whiteSpace=wrap;html=1;fontStyle=1;sketch=1;fontFamily=Architects Daughter;fontSource=https%3A%2F%2Ffonts.googleapis.com%2Fcss%3Ffamily%3DArchitects%2BDaughter;align=left;spacingLeft=42;verticalAlign=top;spacingTop=10;" parent="1" vertex="1"><mxGeometry x="472" y="253" width="409" height="272" as="geometry"/></mxCell><mxCell id="153" value="SAP Data Marketplace&lt;br&gt;&lt;font style=&quot;font-size: 12px&quot; color=&quot;#b3b3b3&quot;&gt;Views in HANA&lt;/font&gt;" style="rounded=0;whiteSpace=wrap;html=1;fontStyle=1;sketch=1;fontFamily=Architects Daughter;fontSource=https%3A%2F%2Ffonts.googleapis.com%2Fcss%3Ffamily%3DArchitects%2BDaughter;align=left;spacingLeft=46;" parent="1" vertex="1"><mxGeometry x="961.5" y="293" width="156" height="60" as="geometry"/></mxCell><mxCell id="157" value="&lt;font style=&quot;font-size: 12px&quot;&gt;SAP Data Marketplace&lt;br&gt;&lt;/font&gt;&lt;font style=&quot;font-size: 12px&quot; color=&quot;#b3b3b3&quot;&gt;Definition&lt;/font&gt;" style="rounded=0;whiteSpace=wrap;html=1;fontStyle=1;sketch=1;fontFamily=Architects Daughter;fontSource=https%3A%2F%2Ffonts.googleapis.com%2Fcss%3Ffamily%3DArchitects%2BDaughter;align=left;spacingLeft=46;" parent="1" vertex="1"><mxGeometry x="961.5" y="367" width="156" height="60" as="geometry"/></mxCell><mxCell id="159" value="&lt;font style=&quot;font-size: 12px&quot;&gt;CloudWatch&lt;br&gt;&lt;/font&gt;&lt;font style=&quot;font-size: 12px&quot; color=&quot;#b3b3b3&quot;&gt;Platform Operations&lt;/font&gt;" style="rounded=0;whiteSpace=wrap;html=1;fontStyle=1;sketch=1;fontFamily=Architects Daughter;fontSource=https%3A%2F%2Ffonts.googleapis.com%2Fcss%3Ffamily%3DArchitects%2BDaughter;align=left;spacingLeft=46;" parent="1" vertex="1"><mxGeometry x="1087" y="693" width="156" height="60" as="geometry"/></mxCell><mxCell id="23" value="Operational Data" style="rounded=0;whiteSpace=wrap;html=1;fontStyle=1;sketch=1;fontFamily=Architects Daughter;fontSource=https%3A%2F%2Ffonts.googleapis.com%2Fcss%3Ffamily%3DArchitects%2BDaughter;align=left;spacingLeft=46;verticalAlign=top;spacingTop=8;" parent="1" vertex="1"><mxGeometry x="239" y="253" width="179" height="272" as="geometry"/></mxCell><mxCell id="sA5HHYP2T-jOy_781jR3-54" value="" style="shape=image;verticalLabelPosition=bottom;labelBackgroundColor=default;verticalAlign=top;aspect=fixed;imageAspect=0;image=data:image/svg+xml,PHN2ZyB4bWxucz0iaHR0cDovL3d3dy53My5vcmcvMjAwMC9zdmciIHZpZXdCb3g9IjAgMCAyNTAgMjUwIj4mI3hhOyAgJiN4YTs8ZyB0cmFuc2Zvcm09Im1hdHJpeCgxMC40MTY2NjY2NjY2NjY2NjYsMCwwLDEwLjQxNjY2NjY2NjY2NjY2NiwwLDApIj48Zz4mI3hhOyAgICA8cGF0aCBkPSJNMTguMzQsNS41NmMtLjYuMTMtMS4wNS44NS0uNTYsMS4zNGExLjIyLDEuMjIsMCwwLDAsLjUzLjNDMTkuODcsNy41NSwxOS42OSw1LjI5LDE4LjM0LDUuNTZaIiBzdHlsZT0iZmlsbDogIzAwMDAwMDtmaWxsLXJ1bGU6IGV2ZW5vZGQiLz4mI3hhOyAgICA8cGF0aCBkPSJNMjMuOTIsNy41NEE5LjM3LDkuMzcsMCwwLDAsMjIsNi4yNGMuODgtLjU5LDEuNjMtLjg5LDEuNjMtMS42NWEzLjU2LDMuNTYsMCwwLDAtMS0yLjEyYy0uNzEtLjUyLTEuMTktLjExLTIuMTkuNDcsMC0uODQuMS0xLjUzLS41Ny0xLjk1QTQuMzUsNC4zNSwwLDAsMCwxNy40Ny41M2MtMS4wNy4yNS0xLDEuMTgtMSwyLjQ1bC0xLjA4LS42NmMtMS4xMy0uNTgtMiwuNTgtMi4zMSwxLjgtLjI0Ljg5LjEsMS4yMy44OCwxLjcycy4yOC4wOS40MywxYy0xLjg1LDEuMjMtMS42LDEtLjcxLDIuNzhhMy40NiwzLjQ2LDAsMCwwLC44Mi43OSwxLjM5LDEuMzksMCwwLDAsMS40NC0uMTljLjc5LS40OS42OC0uNjYuNjktLjNzLS4wNywxLC4zLDEuMjNjLjU4LjM2LDIuNjguNDksMy4wOC0uMjIuMjEtLjM3LjIzLS4zNy4xNy0xYS4zMi4zMiwwLDAsMC0uNjQuMDZjMCwuNDgsMCwuMzItLjEuNTYtLjI0LjM5LTEuNy0uMTEtMi0uMTUsMC0uMTcsMCwuNiwwLTEuNTVhLjQyLjQyLDAsMCwwLS42Ni0uMzVjLS41LjMzLTEuMywxLTEuNzcsMS4wOHMtLjc2LTEuMjQtLjg3LTEuNDVjLjU0LS4yNCwwLC4xMSwxLjE1LS42M2EuNTYuNTYsMCwwLDAsLjIyLS42NGMtLjIyLS42OS4yNy0xLS4xOS0xLjQyLS44OC0uNy0uNjMtLjUxLTEuMTQtLjg5YTIuODMsMi44MywwLDAsMSwuNTEtMS4wOGMwLS4wNS4wNy0uMTIuMTMtLjA5LDIuMDYsMS4yOSwxLjc2LDEuMjIsMi40Ni45NXMuMzgtMi42NC40OC0yLjY2QTQuMSw0LjEsMCwwLDEsMTkuMjEsMmMuMDYsMi4yLjE3LDIuMjYuNDQsMi40YS41OC41OCwwLDAsMCwuNTgsMGMxLjgxLTEuMTQsMS43LTEuMSwxLjgyLTFzLjMuMzIuNTksMS4yMmMtMS4zNywxLTEuNSwxLTEuNTQsMS4zMS0uMTQsMS0uMy43MSwyLDJhMi40OCwyLjQ4LDAsMCwxLS44MywxLjUxLDEzLjQ5LDEzLjQ5LDAsMCwxLTEuOC0xLjA2LjM2LjM2LDAsMCwwLS40MS42QTEyLjg1LDEyLjg1LDAsMCwwLDIyLDEwLjE4QzIzLDEwLjYsMjQuMzYsOC4zNiwyMy45Miw3LjU0WiIgc3R5bGU9ImZpbGw6ICMwMDAwMDA7ZmlsbC1ydWxlOiBldmVub2RkIi8+JiN4YTsgICAgPHBhdGggZD0iTTUuNzgsMTEuMTNBLjg2Ljg2LDAsMCwwLDUuNTksMTBhLjguOCwwLDAsMC0xLDEuMjRDNSwxMS42Miw1LjQzLDExLjUyLDUuNzgsMTEuMTNaIiBzdHlsZT0iZmlsbDogIzMzOTdGQTtmaWxsLXJ1bGU6IGV2ZW5vZGQiLz4mI3hhOyAgICA8cGF0aCBkPSJNNC42MSwxNi4xYy4zNS40My44MS4zMywxLjE3LS4wNmEuODYuODYsMCwwLDAtLjE5LTEuMThBLjguOCwwLDAsMCw0LjYxLDE2LjFaIiBzdHlsZT0iZmlsbDogIzMzOTdGQTtmaWxsLXJ1bGU6IGV2ZW5vZGQiLz4mI3hhOyAgICA8cGF0aCBkPSJNNC43MSwyMC43NGEuNzIuNzIsMCwwLDAsMS4xNy0uMDYuODYuODYsMCwwLDAtLjE5LTEuMThBLjguOCwwLDAsMCw0LjcxLDIwLjc0WiIgc3R5bGU9ImZpbGw6ICMzMzk3RkE7ZmlsbC1ydWxlOiBldmVub2RkIi8+JiN4YTsgICAgPHBhdGggZD0iTTMuMjQsMTEuMzVhLjg2Ljg2LDAsMCwwLS4xOS0xLjE4LjguOCwwLDAsMC0xLDEuMjRDMi40MiwxMS44NCwyLjg5LDExLjc0LDMuMjQsMTEuMzVaIiBzdHlsZT0iZmlsbDogIzMzOTdGQTtmaWxsLXJ1bGU6IGV2ZW5vZGQiLz4mI3hhOyAgICA8cGF0aCBkPSJNMi4xOCwxNi4wOEEuNzIuNzIsMCwwLDAsMy4zNSwxNmEuODYuODYsMCwwLDAtLjE5LTEuMThBLjguOCwwLDAsMCwyLjE4LDE2LjA4WiIgc3R5bGU9ImZpbGw6ICMzMzk3RkE7ZmlsbC1ydWxlOiBldmVub2RkIi8+JiN4YTsgICAgPHBhdGggZD0iTTIuMjksMjAuNzFjLjM0LjQzLjgxLjMzLDEuMTctLjA1YS44OC44OCwwLDAsMC0uMi0xLjE5QS43OS43OSwwLDAsMCwyLjI5LDIwLjcxWiIgc3R5bGU9ImZpbGw6ICMzMzk3RkE7ZmlsbC1ydWxlOiBldmVub2RkIi8+JiN4YTsgICAgPHBhdGggZD0iTTE0Ljg0LDEzLjA2Yy0uMzMsNi4yNi0uMzcsOC4zMS0uODUsOC43NmEzLjIyLDMuMjIsMCwwLDEtMS40Ni41N2MtLjYyLjA5LS40OS4wNi04LjEzLS4wNS0uNDgsMC0yLjc3LjEyLTMtLjRDMSwyMS4xMywxLDE4LjgsMSwxNy44OGE2LjE4LDYuMTgsMCwwLDAsLjg0LDAsMzguMTksMzguMTksMCwwLDAsNy43LjM2YzEuMTYtLjA5LDQuMzItLjI0LDQuNi0uNjMuMTMtLjIuMTMtLjM2LS4xLS41YTUuNzIsNS43MiwwLDAsMC0xLjYzLjFjLTIuMjQsMC05LjEzLS4xMi0xMS4zNi4wNS0uMSwwLS4wNi41OC0uMTctNi42NywwLTEuMjQuMTYtMS4yMiwwLTEuMzlhLjI4LjI4LDAsMCwwLS4zNSwwQy4xOCw5LjQuMjUsOS42NywwLDE5LjZhNy45Miw3LjkyLDAsMCwwLC4zOSwyLjgzYy41NiwxLjE3LDIuNzMsMS4wNiw0LDEuMDcsNy4zOSwwLDcuNzQuMDUsOC41OC0uMTRhMy43NywzLjc3LDAsMCwwLDEuNzktLjk1Yy43My0uODguNTktMy4xMi43NS05LjMzQS4zNC4zNCwwLDAsMCwxNC44NCwxMy4wNloiIHN0eWxlPSJmaWxsOiAjMDAwMDAwO2ZpbGwtcnVsZTogZXZlbm9kZCIvPiYjeGE7ICAgIDxwYXRoIGQ9Ik0xLjg3LDguNzdhNjEuMTEsNjEuMTEsMCwwLDAsOS4yNC0uMjcuMy4zLDAsMCwwLDAtLjYsMzMuNywzMy43LDAsMCwwLTQuNjUtLjIyYy0yLC4wNi00LjQzLjQtNC42LjQxQS4zNC4zNCwwLDAsMCwxLjg3LDguNzdaIiBzdHlsZT0iZmlsbDogIzAwMDAwMDtmaWxsLXJ1bGU6IGV2ZW5vZGQiLz4mI3hhOyAgICA8cGF0aCBkPSJNMTIuODksMTMuMzZhLjM0LjM0LDAsMCwwLDAtLjY4bC01LjQ0LS4xNGMtMS4yMywwLTUsLjA4LTUuMjkuMTRhLjMuMywwLDAsMC0uMTYuNTdjLjA4LDAsMy43NS40NSw1LjQ0LjQ0QzkuNTgsMTMuNjgsMTEuNDcsMTMuNDksMTIuODksMTMuMzZaIiBzdHlsZT0iZmlsbDogIzAwMDAwMDtmaWxsLXJ1bGU6IGV2ZW5vZGQiLz4mI3hhOyAgPC9nPjwvZz48L3N2Zz4=;" parent="1" vertex="1"><mxGeometry x="250" y="263" width="28" height="28" as="geometry"/></mxCell><mxCell id="18" value="Analytics" style="rounded=0;whiteSpace=wrap;html=1;fontStyle=1;sketch=1;fontFamily=Architects Daughter;fontSource=https%3A%2F%2Ffonts.googleapis.com%2Fcss%3Ffamily%3DArchitects%2BDaughter;align=left;spacingLeft=46;spacingTop=10;verticalAlign=top;" parent="1" vertex="1"><mxGeometry x="472" y="83" width="408" height="127" as="geometry"/></mxCell><mxCell id="sA5HHYP2T-jOy_781jR3-53" value="" style="shape=image;verticalLabelPosition=bottom;labelBackgroundColor=default;verticalAlign=top;aspect=fixed;imageAspect=0;image=data:image/svg+xml,PHN2ZyB4bWxucz0iaHR0cDovL3d3dy53My5vcmcvMjAwMC9zdmciIHZpZXdCb3g9IjAgMCAyNTAgMjUwIj4mI3hhOyAgJiN4YTs8ZyB0cmFuc2Zvcm09Im1hdHJpeCgxMC40MTY2NjY2NjY2NjY2NjYsMCwwLDEwLjQxNjY2NjY2NjY2NjY2NiwwLDApIj48Zz4mI3hhOyAgICA8cGF0aCBkPSJNNC44NiwxNi4yNGE4LjUxLDguNTEsMCwwLDAtMS42OC4xMSwyLjc3LDIuNzcsMCwwLDAtLjcxLjA3LjU5LjU5LDAsMCwwLS4zNi4zNSw2LDYsMCwwLDAtLjIzLDIuMTJjLjA2LDEuNTguNDEsMy40Ni41MSw0LjQzYS4yOC4yOCwwLDAsMC0uMTcuMjguMjkuMjksMCwwLDAsLjMzLjI1Yy4zMSwwLC41OS4xMi44OS4xNGEyLjQxLDIuNDEsMCwwLDAsLjM4LDAsMi4yLDIuMiwwLDAsMCwuMzctLjA2Yy4zLS4wNi41Ny0uMTQuODYtLjIybC4wNywwYS4zMy4zMywwLDAsMCwuMzQtLjMyYy4wNy0uOTUuMTQtMS45LjE4LTIuODUsMC0uNjMuMDYtMS4yNy4wNy0xLjkxLDAtLjIzLjA3LS44LjA2LTEuMjRhMS42NywxLjY3LDAsMCwwLS4xOC0uNzdBMSwxLDAsMCwwLDQuODYsMTYuMjRaTTQuMTQsMjIuOWEyLjU1LDIuNTUsMCwwLDAtLjM5LDAsMi42MywyLjYzLDAsMCwwLS4zOS4wNiwyLjU1LDIuNTUsMCwwLDAtLjM5LjEzYzAtLjg3LS4xMi0yLjI2LS4xMi0zLjU0YTguNjksOC42OSwwLDAsMSwuMTctMmwuMjEsMGMxLjc3LS4wOCwxLjQ1LS40MSwxLjQ5LDEuMjMsMCwuNjMuMDYsMS4yNS4wNywxLjg4LDAsLjgxLDAsMS42MiwwLDIuNDRDNC41OCwyMyw0LjM3LDIyLjkyLDQuMTQsMjIuOVoiIHN0eWxlPSJmaWxsOiAjMzM5N0ZBO2ZpbGwtcnVsZTogZXZlbm9kZCIvPiYjeGE7ICAgIDxwYXRoIGQ9Ik0xMS4yMywxMy40NmExLDEsMCwwLDAtLjc0LS40Miw5LjM2LDkuMzYsMCwwLDAtMS42OC4xMSwzLjIyLDMuMjIsMCwwLDAtLjcxLjA2LjY3LjY3LDAsMCwwLS4zNy4zNSwxMC42LDEwLjYsMCwwLDAtLjIzLDMuMWMuMDcsMi40Ny40NCw1LjYzLjUyLDYuNjZhLjI4LjI4LDAsMCwwLS4xNy4yOC4yOS4yOSwwLDAsMCwuMzMuMjVjLjMxLDAsLjU5LjEyLjg5LjE0YTIuNDEsMi40MSwwLDAsMCwuMzgsMCwyLjIsMi4yLDAsMCwwLC4zNy0uMDZjLjMtLjA2LjU3LS4xNC44Ni0uMjJsLjA3LDBhLjMzLjMzLDAsMCwwLC4zNC0uMzJjLjA2LS45My4xNC0yLjk0LjItNC43Ny4wNS0xLjMxLjA4LTIuNTMuMDgtMy4xOSwwLS4yNy4wNi0xLDAtMS40NEExLjMsMS4zLDAsMCwwLDExLjIzLDEzLjQ2Wk05Ljc3LDIyLjlhMi41NSwyLjU1LDAsMCwwLS4zOSwwLDIuNjMsMi42MywwLDAsMC0uMzkuMDYsMi41NSwyLjU1LDAsMCwwLS4zOS4xM2MwLTEuMjItLjE0LTQuMTItLjEtNi40MmExMy44MywxMy44MywwLDAsMSwuMTctMi4zNWwuMTksMGMxLjc1LS4wNywxLjQ2LS40MSwxLjQ2LDEuMjMsMCwuNzkuMDcsMi4zNy4wOSw0LDAsMS4zNiwwLDIuNzEsMCwzLjU3QzEwLjIyLDIzLDEwLDIyLjkyLDkuNzcsMjIuOVoiIHN0eWxlPSJmaWxsOiAjMzM5N0ZBO2ZpbGwtcnVsZTogZXZlbm9kZCIvPiYjeGE7ICAgIDxwYXRoIGQ9Ik0xNi4xMiwxNi4yNGE4LjUxLDguNTEsMCwwLDAtMS42OC4xMSwyLjc3LDIuNzcsMCwwLDAtLjcxLjA3LjU5LjU5LDAsMCwwLS4zNi4zNSw2LDYsMCwwLDAtLjIzLDIuMTJjLjA2LDEuNTguNDEsMy40Ni41MSw0LjQzYS4yNy4yNywwLDAsMC0uMTcuMjguMjkuMjksMCwwLDAsLjMzLjI1Yy4zMSwwLC41OC4xMi44OS4xNGEyLjQxLDIuNDEsMCwwLDAsLjM4LDAsMi4zOCwyLjM4LDAsMCwwLC4zNy0uMDZjLjMtLjA2LjU3LS4xNC44Ni0uMjJsLjA3LDBhLjMzLjMzLDAsMCwwLC4zNC0uMzJjLjA3LS45NS4xNC0xLjkuMTgtMi44NSwwLS42My4wNi0xLjI3LjA3LTEuOTEsMC0uMjMuMDctLjguMDUtMS4yNGExLjY4LDEuNjgsMCwwLDAtLjE3LS43N0ExLDEsMCwwLDAsMTYuMTIsMTYuMjRaTTE1LjQsMjIuOWEyLjY4LDIuNjgsMCwwLDAtLjQsMCwyLjUsMi41LDAsMCwwLS4zOC4wNiwyLjU1LDIuNTUsMCwwLDAtLjM5LjEzYzAtLjg3LS4xMy0yLjI2LS4xMi0zLjU0YTguNjksOC42OSwwLDAsMSwuMTctMmwuMjEsMGMxLjc3LS4wOCwxLjQzLS40MywxLjQ5LDEuMjMsMCwuNjMuMDYsMS4yNS4wNywxLjg4LDAsLjgxLDAsMS42MiwwLDIuNDRDMTUuODQsMjMsMTUuNjMsMjIuOTIsMTUuNCwyMi45WiIgc3R5bGU9ImZpbGw6ICMzMzk3RkE7ZmlsbC1ydWxlOiBldmVub2RkIi8+JiN4YTsgICAgPHBhdGggZD0iTTIyLjY1LDEwLjE1YTEuMywxLjMsMCwwLDAtLjE2LS41NywxLDEsMCwwLDAtLjc0LS40Miw5LjI5LDkuMjksMCwwLDAtMS42OC4xMSwzLjIyLDMuMjIsMCwwLDAtLjcxLjA2LjYyLjYyLDAsMCwwLS4zNy4zNiwxNy4zMywxNy4zMywwLDAsMC0uMjQsNC4yNWMuMDgsMy41Ni40NSw4LjI0LjUzLDkuMzhhLjI2LjI2LDAsMCwwLS4xNy4yOC4yOS4yOSwwLDAsMCwuMzIuMjVjLjMyLDAsLjU5LjEyLjkuMTRhMi40MSwyLjQxLDAsMCwwLC4zOCwwLDIuMzgsMi4zOCwwLDAsMCwuMzctLjA2Yy4zLS4wNi41Ny0uMTQuODYtLjIybC4wNywwYS4zMy4zMywwLDAsMCwuMzQtLjMyYzAtLjkxLjE1LTQuMTkuMjEtNy4xLjA1LTIuMTMuMDgtNC4wNy4wOC00Ljc0QTEzLjM1LDEzLjM1LDAsMCwwLDIyLjY1LDEwLjE1Wk0yMSwyMi45YTIuNjgsMi42OCwwLDAsMC0uNCwwLDIuNjMsMi42MywwLDAsMC0uMzkuMDYsMi44NCwyLjg0LDAsMCwwLS4zOC4xM2MwLTEuNDQtLjEzLTUuNzktLjA5LTkuMTNhMjguNDYsMjguNDYsMCwwLDEsLjE3LTMuNTJsLjE3LDBjMS43Ny0uMDcsMS40Ny0uMzMsMS40NSwxLjIzLDAsLjkxLjA4LDQuMTguMTEsNy4wOCwwLDEuOCwwLDMuNDUsMCw0LjMyQzIxLjQ3LDIzLDIxLjI2LDIyLjkyLDIxLDIyLjlaIiBzdHlsZT0iZmlsbDogIzMzOTdGQTtmaWxsLXJ1bGU6IGV2ZW5vZGQiLz4mI3hhOyAgICA8cGF0aCBkPSJNMTkuNjcsMy40OWExLjY1LDEuNjUsMCwwLDAsLjgyLjIsMi4xMSwyLjExLDAsMCwwLC41LDAsNC4wNiw0LjA2LDAsMCwwLC42My0uMjQuMzEuMzEsMCwwLDAsLjE4LS4yMSwxLjUzLDEuNTMsMCwwLDAsLjcxLTIsMS42NywxLjY3LDAsMCwwLTIuMjctMUEyLjM4LDIuMzgsMCwwLDAsMTksMmExLjc5LDEuNzksMCwwLDAsLjE3LjksMTMuMzIsMTMuMzIsMCwwLDAtMS4wOCwzLjE0Yy0uMTEuNDQtLjIyLjg4LS4zNSwxLjNzLS4xOC41NS0uMy44QTMuMTMsMy4xMywwLDAsMSwxNi4xOSw5LjZhMS42MSwxLjYxLDAsMCwwLTEuNzktLjMsMS4zMSwxLjMxLDAsMCwwLS4yNC4xN2MtLjI3LS40Ny0uNDYtLjk0LS42OS0xLjRhNS45Miw1LjkyLDAsMCwwLS42OC0xQTMuOTEsMy45MSwwLDAsMCwxMSw1LjkzaDBhMS43LDEuNywwLDAsMCwuMS0xLjUxLDEuNjcsMS42NywwLDAsMC0yLjI3LTFBMi40MSwyLjQxLDAsMCwwLDcuNSw1LjNhMS44MSwxLjgxLDAsMCwwLC4wNi41N0g3LjQ4YTUuNzEsNS43MSwwLDAsMC0xLjY1LDEsNS4xMiw1LjEyLDAsMCwwLS41OS41NSw3LjUyLDcuNTIsMCwwLDAtLjUuNjJjLS4zLjQzLS41My44OC0uNzcsMS4zYTEuNjUsMS42NSwwLDAsMC0xLjM2LDAsMi4zOCwyLjM4LDAsMCwwLTEuMjgsMS44OSwxLjQ1LDEuNDUsMCwwLDAsMS41MywxLjY2LDIuMDcsMi4wNywwLDAsMCwuNSwwQTMuNzEsMy43MSwwLDAsMCw0LDEyLjU2YS4yOS4yOSwwLDAsMCwuMTgtLjIxLDEuNTEsMS41MSwwLDAsMCwuNzEtMkEyLjA3LDIuMDcsMCwwLDAsNC41LDkuN2MuNC0uMzguODItLjc4LDEuMjMtMS4yMS4yMi0uMjMuNDQtLjQ4LjY1LS43MnMuNDItLjQ5LjY1LS43MWE1LjcyLDUuNzIsMCwwLDEsLjczLS41OXMwLDAsLjA2LDBBMS41NSwxLjU1LDAsMCwwLDksN2EyLjA3LDIuMDcsMCwwLDAsLjUsMCw0LjE2LDQuMTYsMCwwLDAsLjY0LS4yNC4zLjMsMCwwLDAsLjE3LS4yMSwxLjU5LDEuNTksMCwwLDAsLjI2LS4xNC4yNC4yNCwwLDAsMCwuMTQuMTQsMy45MSwzLjkxLDAsMCwxLC42OC41OCw1LjIzLDUuMjMsMCwwLDEsLjQxLjU1Yy4xNC4yLjI3LjM5LjQyLjU4YTE2LDE2LDAsMCwwLDEuNCwxLjc4LDIuMzEsMi4zMSwwLDAsMC0uNTMsMS4yNSwxLjQ1LDEuNDUsMCwwLDAsMS41NCwxLjY2LDIsMiwwLDAsMCwuNDksMCw0LjE2LDQuMTYsMCwwLDAsLjY0LS4yNC4zLjMsMCwwLDAsLjE3LS4yMSwxLjUxLDEuNTEsMCwwLDAsLjcxLTIsMSwxLDAsMCwwLS4wOC0uMTgsMy44LDMuOCwwLDAsMCwxLjY4LTEuNDgsNS4yNyw1LjI3LDAsMCwwLC40Ni0uOTIsOS40LDkuNCwwLDAsMCwuMzktMS40M0EyMC43MiwyMC43MiwwLDAsMSwxOS42NywzLjQ5Wm0uNDMtMS42OGExLjM1LDEuMzUsMCwwLDEsLjYyLS42Ny42OS42OSwwLDAsMSwxLC4zOS43OC43OCwwLDAsMS0uMzMsMS4xNC4zNC4zNCwwLDAsMC0uMjEuMjhMMjEsM2ExLjM1LDEuMzUsMCwwLDEtLjQsMCwuNjYuNjYsMCwwLDEtLjYtLjU5QTEuMTIsMS4xMiwwLDAsMSwyMC4xLDEuODFabS0xNi4zOSwxMGEuMzQuMzQsMCwwLDAtLjIxLjI4bC0uMTYsMGExLjMzLDEuMzMsMCwwLDEtLjQsMCwuNjcuNjcsMCwwLDEtLjYxLS41OEExLjI0LDEuMjQsMCwwLDEsMi40NywxMWExLjQ0LDEuNDQsMCwwLDEsLjYyLS42Ny43MS43MSwwLDAsMSwxLC4zOUEuNzguNzgsMCwwLDEsMy43MSwxMS44MlptNi4xNy01LjlhLjM2LjM2LDAsMCwwLS4yMS4yOGwtLjE2LDBhMS4zMywxLjMzLDAsMCwxLS40LDAsLjY3LjY3LDAsMCwxLS42MS0uNTgsMS4yNCwxLjI0LDAsMCwxLC4xNC0uNTgsMS40OSwxLjQ5LDAsMCwxLC42Mi0uNjcuNzEuNzEsMCwwLDEsMSwuMzlBLjc4Ljc4LDAsMCwxLDkuODgsNS45MlptNS42Myw1LjlhLjM3LjM3LDAsMCwwLS4yMi4yOGwtLjE2LDBhMS4zNCwxLjM0LDAsMCwxLS40LDAsLjY3LjY3LDAsMCwxLS42MS0uNTgsMS4yNCwxLjI0LDAsMCwxLC4xNC0uNTgsMS40OSwxLjQ5LDAsMCwxLC42Mi0uNjcuNzEuNzEsMCwwLDEsMSwuMzlBLjc4Ljc4LDAsMCwxLDE1LjUxLDExLjgyWiIgc3R5bGU9ImZpbGw6ICMwMDAwMDA7ZmlsbC1ydWxlOiBldmVub2RkIi8+JiN4YTsgIDwvZz48L2c+PC9zdmc+;" parent="1" vertex="1"><mxGeometry x="480" y="90" width="28" height="28" as="geometry"/></mxCell><mxCell id="89" value="" style="group" parent="1" vertex="1" connectable="0"><mxGeometry x="250" y="326" width="156" height="60" as="geometry"/></mxCell><mxCell id="90" value="&lt;font style=&quot;font-size: 12px&quot;&gt;Kafka&lt;br&gt;&lt;/font&gt;&lt;font style=&quot;font-size: 12px&quot; color=&quot;#b3b3b3&quot;&gt;Messages&lt;/font&gt;" style="rounded=0;whiteSpace=wrap;html=1;fontStyle=1;sketch=1;fontFamily=Architects Daughter;fontSource=https%3A%2F%2Ffonts.googleapis.com%2Fcss%3Ffamily%3DArchitects%2BDaughter;align=left;spacingLeft=46;" parent="89" vertex="1"><mxGeometry width="156" height="60" as="geometry"/></mxCell><mxCell id="179" value="" style="shape=image;verticalLabelPosition=bottom;labelBackgroundColor=#ffffff;verticalAlign=top;aspect=fixed;imageAspect=0;image=data:image/png,iVBORw0KGgoAAAANSUhEUgAAAFoAAAB6CAYAAAA/BEQ0AAAgAElEQVR4Ad19h3uWRdb+/iUfyZseklDS6L33Jl0EbHRQEHtZG9gQsKw0C6irC+oqSlNwpYguRZGqUhRQUmgJAdLP77rvMzPPPG+Ju9+6e32/fbnI9HZm5syZU+b5gyT4NUbHN4r4cY1eQL0xEaZAY6icVuvljW7HhGNy/H/e/h/sOGPA4UPSZvLcmPxeWjAlUeCyQet6UxBT339Z+3/wxupA5eAgIo3egP14l9l4YtKiIqKCLMW4OAl+1H9L+25FK7z8ISLGD/v+RNANymjuqP1uiok3eTZK3eg2/LDvN6XiRNk+a9L/nfYJaH/VaEe9EdDruh0H9F7eUKoHQmRJCNzwrvlvbV9XdBQwCS8ffh7MEnkJS5sYCtjIwI1JZlv8o1MVkyEom8gXKhIKxJaISUaEWSTOS09s2UQxoTpDAS3xh9j6/BivhIn2U6O6Z/sa2xfuYL+k9cccgW7AWgnymbxhx7Wh0QkSba7/A+3/wQ6EXTX9tf2zboJom/ybbqg8AjERJioUH1SbIDrI8Bu+UHkEYiL+/e0Hh2Go8aieW/ya4GyJyh0KBtXGrt6Ghgbh//p6qa+rF+TwzwukNTY0SF1trdTV1UlDfYM02L6EWkkcaKr9UKkgYyiaAdvmvzD+OKjDtMPKE7eeOMWsGGRImEkTALj6hgaph1uvgHaHZmOjNDTUcyIA5HoAGoA3dSasGt1Hov0fC7agY00B7ncev0MdOnOxvQoPyIRspHVjimmCTbYusmHF1tcpgLWYl+p5bZXhKA1h9WNifmsibVnr2jrD5bxUz2vzhqNMyEZa12Z2ribYZLjBivZjXYH4nnA1sXlsVUFKEENA19cRULW1tVJdXSMVFRVy8cJFKSsrk9KSUikpKaF7vqxcysrPS2VFpVy5ckXRB1AJUE19XVB9lC9ozSZExwRh57Me69qicVzNkjhjbEqjBDjaVWizwfX8ntdmtVEatiHr2lxh16bW1tTKyRPH5dtvvpFlr7wiTy98SmZOnyFTb71FJt10k0yeeJPMmjFD7pp3l6xYuVzWvvsX+fWXX6TicqU0NDawUgW4+kN9DTcZCtn2dWgu5OWxcXA9v+e1mW2Uhm3IujaXuuYKHj/Rzxo/h421rl/Cv4gEB2FDQ6NUXq6Q0rJy2blzh3z80Xp5+IH7ZfbM2TJ88BAZ0K+f9OjeQ3r16CHDhgyTsaPHyCMPPyzPL3pe9vz97/L9sWNSWVkp169XS11draIQB5Dfbp85fNzMrsfvv19b/Bw21rp+ifD49Wbop7syzuOnxvXbnO6gshE2txeurKiQN15/XZ5+coH06NZN2hQVSYvcPGmZkyvNMzIlOy1DstPSJSstTZqnZ0huZpYU5LWQotb50q1rVxk+dJi8/957smvnLqm+fp0t1DUozv5H2rdd8l2ve8EiTjB5fjnrt+Wbaj8GdWghW1SrCsXZ2mwrTbhKrunWBsVw6fJl+enkKXniiceJJlo2z5HUpGRJTY7o/0iKRBBOSpLUZkmS0gxp+J8i6SkpkpORKe2KiuWFJS/IunXrpLy8TK5du0bcXd9Qn6AnwVjo81dznBKhsZr0UNw/MX4trqWjAK2RzOC8zhOOJgXhVRXOxgTSyA1IaJTLly/Ln15+WR6+735p36adtMjNlfS0NElLSZUsruB0SQOACehkSf0fABrhJKZjpacD4JFUKWzVWvr26Cl/efcvsnPHDrl67TpXIoBNakS75f2N0zkvNfB6+ZzXeZjND1mYM85PCCo0vjiHoZ/f98eUNVurqTwANAZefb1azp49Kw/ff7/cNmmytGieQwBnRFIlPZIiWelAFemSlZouGWnp0jwjg2gjNQLApkh2eqZkpWXoqk9KlvTkiBS2aiVLnl8sa/+yVoCOLJDjA9pihKC39AVBNzw/yve7DM6jqU3ncZkDqiNxAXuQeTmc13mCGkVIetmtfP36dfly1y5Zt3addOvYWVo0by7Z6emSkZoqqUkRgzpSCOCObdtL985dZMSQoTJs0GApaJ0veTk5kp6aLumRiHBiUK6Z+osK8mXIoEFy5PARkocWyI2NDbxlhjrlArbP1tWEcMhl5m7UNC+H8zqPX8CjVoLo8IUF8a6s8wS5o3zhHHZCAGi9UiN7VVWVrP/wr/Lyiy9JYX6hpCalSgZWbmqqpCQlEYCt81pI28IiGTV8uEwYO15mzZgpM6ZPk8EDB0nvnr0E6bnZzSUjVVGNRS/pqWnSqUNH2f3lbjl9+mepNbQ1UVa9JfvMoExn7XYPhhIexe8xftYdqjaEOkIp3ooIABh0zvjCRVwy+BGWZ1FeVi4zZsyUEUOGSGZGJvEw0EFqBCs6WVrl5sljf3xUVixbJieOn+BlBWVKSkvk1Kmf5Jv9++TOO+6U8WPHE9g4FC1Oz0xOkYKWrWThkwvlzdVr5EpFBftQW1fHA9J2yHZTXf+vzQHX5tK4YNSBz89Nf7iIS46ORljJO5MSqtLLrV7vr5fGDtpl4sXbG+AvZ87KhBsnSLcuXYkeAFwAOj0llYDr2L69rFi2UjZ8vEGuVF0JOtvQKDXV1VJy7pw899wiuXvuXAIVODw7LZN4Hbi6dW6u3HvXfHlhyVK5fOkyy1veifbNVZnQE3TfH0CQ3Ru5ToeXLdH4tXRA4kRRHUHlURMcNeNmSkINGgKd+FGkob5eSs6VyL69e6Vrx4480EBlgGpIT07mgXjb5JvloQcelNOnT0vV1SqW0QlqkAZw8xoVDV28dEmOHjksQwcPIXkHtAMyMD0pIs0zM2Xo4MEyfdo0KSstYz/J4UNh1z/nMXFe2BtyyBuTxY+IP34LXJfT83iA1liX5oPWj2RtXgS9GsYALRuzrr5Ozvz8Ew/Cjm3aSoqhIFJTUkk9tMptIXfNnStLFy2WS5cusTXUAm4eJgmHKY402xz4HxPGj5cenbvwMkM83QykX4b07tlTbp40Wc6VlNgSWs4LmZq8GJPFOZrD5kO08zuPzexF0Kth/PVSQiFFHXHKM8ruKb9IuCZbki00NoC1qYdQzfVq+e7Ad7JxwwYedKQUUnEQpvESUpxfIGtee0O2ffaZXL12jfU4rhzaa2x0fGgknr9wQR5/7DGZdtvt3A0ANOhsoKG2xW3khqEj5OefT0tNTY32KbqfDNtI44adaCihE258zuc8LqmJ9oI8wYr2Kg2Sg7YT1Y+8No38Y8Pwqa2uJsPok/Uf85qNrZ6ZkkZAA7cWFRTKO2+/LTu2bxeQgBgUqBWsZvsDd6+mtpbBCxcuylMLF8qcGTOlZU6ekoXNFN8XFRYSrfz00ympqTWAtpUYl320HXVpXsTvMP4AEq4B5wkA7aI8yNk4rz82St1wAlY0tj5+OMgOHvRWdFIygUwSLSkiBQX5svr1N2TrZ5/xGo0yAGxtbZ2gHvyrqanVFdoocvHCBXns0Udl2q12RUckpVkzXs3bF2FFD5Mzp0+7idH+JfhL9K191zNBURUEDHV19VJXWydAffZQRX/81R3UGh4/4mNjNHcY0P75wVKJipmmvGR4saIhesIPW/jIocPy2ZYtAkCAZ5GemsIbYVpSCplEL738knz01w9Ja6MMWKdYwRg8/mNXANhY6TjoHrjnXpk4YYKSeeCPYEWnpEqHdh1k1MhRPFQhiXE/2z+6+BM+xBjjdhJEZnViSUOKziDZqYdUJyBXXd3w2Pqd14vw0xsNeecXsBWFi3ghz2vzOtfrEFAAGPnf7N8v3Tp11it1cooyiZKSyZUbP2qM3DPvLjlfdt5VYT22GQD5/IVyOfTdQenfr58UtGhFvAwcnZaUzHqHDBos06dOk/IyUB2YcJU12rqiXYeibCPW9TKGozTEaz6poXCqVyyhN7yiXbY4FcWJYnbGayJnnkwkkcaGegFZdvjQYenTqxcvJuBdkFoAvs7IkIF9+wlIvGPHjsnFixeJblQ2qLga6AeSlaNHjsjfPt0qnTt2JisVOB47JC0pIrkZ2TJh7BiZf9ddUl5ezlUGnjfatz/bdesC0GCt2pVaXV0t169dI8/kSkWlVFy+TJ452r569SpRWn1tgEpCaMQbfwAP+Gxr6uMV3D8HgmTbzaCIn2b91g1y64rSVdUoJSXnZM6s2TJi2HDJycokaYebHfgd4D8XtG4tc2bPkWcWLJTDhw7J6bNnCfTz5efl4IED8rdtn8stN98sQwYPluyMTMNkyuDlB9y8gpat5dmnn5E/v/0WBQLoBwCJ//oLetjYqMJexBM11dbKlSuV8vev/y7bt33O2+Wrr74mK/70iry6fIV88N57snnjJjlx4pScKzlHtGIqJRgxxnqzsGx8rKvteyvadIhO0DkHZhflPLF1mhh0AP/xu3Dhgjz6xz/KlFv0EEtJjjhOHVZ4Xna2jBs5SmZOny6bN22Sr3ftloPffSffHTggGzZ8ImtWv0GpS8fitoaDp+gCHD6wToH/X1+5SjZt3MTVhzbDgDadMigF4i9dvZVy5uxZ+fHHH+XDDz6QN1evlqcWLJTHH3lUHnrgAXn0oYflhaVLZeXK5bJ9+3bZt2eflJaUyeXLlwxlpKSsHWfQSnyfB+hwhhhwRh2UsbsgKOH0LxpFqquvy569e+WjDz+U4sIiw61LIn7FQQYGU05WtuTl5DIdl5ueXbtLt67deAsEvc0dkJpOXkl2RgZXdUZqhnRs205GDhsuP/zwo1RVVXKVYhRKtdjdq5corGD8ICjYuXM7V+uE8TfKoAGDpEObtiQ381u0lPy8FpKf11Ja5rUg37swv4D96Nmlm9z/wAPy4gsvSGlJiVy/XuMwCFY1dov7WVDQ1QPYAdqcxy6vqyWICfli8nupSn2glUbit5MnTsiXO3dK/569pVWLFmTgA1eDQQRgk8kESYph+uNaDWmKxcWMNzshOz2DZZBn2KBBPARx1Q+vrNBIOQE4nKsqrxAFQND78tKl0r1rV7Ji7SUqkPREdCHgLIgoKzcnM0sm3TRR7r37Hjlw4ICcPnOaMkvAyd/BCoZw+4j7t+pHA+DYxqCNcbPD9gQuxsrBoHCJwYHGFQvGPm97zYw4SycC+bJS0yQdfGjwSVJSBYPu0rGTbPjkY/lm337KDjmtHsoCEgVf2k5A5ZUr8v66dfLi0hekZ9duCuC0dPK4bfuc9BRwFnUBQCCBSchAODVVcrJzuMpHDR8hs2fOImsWO4SHKqDpUV3eWUjYuxUdngkNOfzMoJ0lm2a3phf28iF3fQM0jHRLXb12VbZ+tlXeXr1GenfvIYUFBYLVCSBioBgUZYUG+Hq9jiiaSMONMpWHZ4vmuSQXR44YIfv27JWzp884lihQBiYXP7Tf0Kh88Zrq61JaWiovLn2RtDhYs9hN3FX2zEhPdzvMSX7StG/ceZGI7qT0TOnSvoPcMHy47Nu7T34584tr306ubZ+9MGAjoC3+Yg/ZRQ+o9GoYf70U44+N0XqCv1T9qqvjYQUSDCoGK5evlL49eklxYaG7livqSJL0FAwKgIhIGgW0SeT+Deg/QCZPmixbt22V7777TqquXZV6o3KAi4XtHeldQ3VAjIYJWf/hh1zJLfPydIdEUlVig3aSI4qmjGAYF6sMy2mEFChZZZlZ6RmkfHBOgA8+ffp0WfDE46SSOFqwH/zDy4IgfGEJgBkNa5u/KTc0CaEAVlawhTHwPXv2yoYNG+XWSZNl+OChpBzyW7Xk6o0kYdAp/I9ti1VfVFhAMRgYSg89+KAcO3pUykrLyeFDnzCRoCbslFPlzO6kq1dl8+ZN8urKlYKDjXiYgoeIZJrDOC+rubTIzeFh3La4rXRu10E6tesgOIgBUKAN9Al9wX+Uy8lqLiOGD6c+yq9nf5Hr1dVkP3DRRo0ffQxUwhwUbXcR4ZUw0X6qzWFXkhupq8t4SLE0kizC1RaUCFBJack5OX78OJlLixc9L0UFBZKVDu5ehKiiU4cO5DW/t26d7Phiu/xy9qyUX7ggtTU1joQDgKPb18FqT3FbvGP6DBk2ZIjkpOs5QFRA4CWT4sEhN/+u+bJl02b5ctdO2bdvn3z11W554/XX5LlnnyFVkpORxYUAdq9OUJqeFR06yeZNG+XgwYMUQmPEOBcsK4IQ0BWtHeLfaCgGcDK+/51jq8XBCIa+PyHXrl2V7X/7m/z57belU9v2pDZ4AKZlSM/uPWT8uPGya9cuOXn8uNRGceYs39r2ioeS2brwg0kFHD5h7DjDx06nsCAjolxEkJXFBQVy3z33yuLFi+XwwcNy+uefKU47c+YMWbjvvPOODBo4SDq3b+f44DwgLbu3qFDefecdUlXkQhpA20MYfcP4g8PQQsP22nct3omipf0sifxBtQFB6F8o0KGqykr5/ugx6du7j0AggNM/Lytbxo0ZK/PnzaPOHZhUlunDFRNU7Jr2URSAfOrkSdmxY7t0bt+ReDkNq9gIICDsvXHMWLlr7jw5efyEXLp4iSxWqgjjil5XR5r7wvnzZIxBu6qoVT4pIgV0OncecP49d98tL77wolyuMKI0T7/EdjMO6jD9JnBtNjcW50mc4mGcBJnq6lWxHFMNiQw4dKdOnZIB/ftLqxYtJQuAzsySG8eNI91KHoYIBw82JralleS4DvkrqRFs2ho5duiIbN28WdoVtXEXJEwi+CS4IM2ZMUueeuqp4DDzKzPjB7/l0KFD8unmzQL5JikkK41PjrCeGdOny8IFC6jygCoowIjauWF1gziACUeZkI20rt9B+jXBJlvXZvP1o0GCQYvpyJEj0r9XH+rhkVbOai7jxoyRefPukjIwi8h6rSYrlfxhRERVHOyURq7Grdu2kXYHKal4X+liSHuKi4qpw/f117sFTCX8yIc2Cu9gTEE1GGxTAPv0mTMy8aYJpJSg6AMKCXcAXJxGDBsmc2bNctxDgRAONDVrNajDBkKxJkMiR8u4kjHZYlPCMRgAgIIfrq/g3IHL17d3b2mVAxo3VXIzs2XcqNEyb+5dcsEBuoZ8bl3N4Tq1LqPsKMLDdsuWzfLaqlelOD/fAFpxM+h16JHg8Dt06IgTLoDZD544UBP+g5OIHYQf+OGgegb160/KgzR/cjJpeyjxUDhs2bTm8GdB/gnpddhoOwC4nt/zRufUcJwMNqNxQesqlWCr1uvrpcuX5PDhw1wtraCZxNtfpoy6YYTceccdUl5WGuqKrRZ1Kf2MGBWFWQX1q1VXZf1H6+VPL/+JQgasaNQLXT+gDjCj/vb553L8x+NSW6fiMuJ+x15t5BUbuBp1l5eWyR2zZ8socCEzoZ+STHwN2npA/34y5bZbpZSAtnCwvVT3P6ofrVu7gavmenWNXK6oECjL/Pjj97L9ix28UOQ2b06VBLBQhw0aItOmTCE/urS0jJYB4BGjHru1dWfo4ChBN4AC+bjhkw2ycvkKrugUc7NLT0mjZKZNURvZsuVTOXLoiNTWKurgSoa6BK/vmLgGnguIh4R91rRp1OGGOjHQBiYM/RwyYIDMmDKVtD3BSrThS2XMig7NgQs4T3hq4oRsTkec2Aib1wuDGoBs7/DBg/LSiy/JE489TupiyICB7DQGgNWCrQnKAPp3IM8gQVmxYoW8t3YtJTdgyFta1epHV1dD5ghRmMosDx08TH5yu4Ji4tQsIxzG6i5q1VqWLlkq77/3voAPgh9WL/E0rcBUpAYgV125It9//73079uX6mmgXKhXkhzhxWXCjTfyan++/IKpJyxkBmIIyDsDFIWJBxm7yy0asdA0+X/b0brQ4YrKSm5BXAbAUH/w3vtk+m1TqNgIvWfo0mEAADJ5HSlpkpOVJd26dpfBAwfKow89JC88/zyl6ydPnpCqqiu8JJAka4BQVQGNPuEA++67A2Q8AR+Tr5GaRkk8ViL0+R556GFZ9soy4l8ciEBFOPxAr8OPXQOp+k8//yxffrmLtDi5iuZmCcVLaMYCd0MV4uIFFcmRvo8SPEQB2gOw8zoPYeqHLMwZ5yfEQL+R0o933vmzLF60SHp360kVBNCg6ChIJuBPaDBhtfF/M9XbANCpypueSa5fYX6+9OnZiwflx+s/lr1/30PesF0Htmmo8r75+mpZ8MQCQTs6cSnkxFGLNRKhdKdfr97yyccfy/59+wTMJ/vDtR6cubNnz8ijjzwiU26+VcDQAo7Xqzj0uXVnwOzjvXfXOpU2RZF6iGp9cQ5DH16+33YgcDW16Tx6Hb186ZKcPHVKFj33rMy/cy5pT2494jnFdWQoNdMDhjxgw0ZVRpPyhLGCMCGwFICa2fJXlsmHf/2QZBVwMlYlgANO3Q8//CDPPfOszLvzTmnZPFeSqWwDdV/l2qF9oBKs9hUrlsv6jz6S0z+fFpwF58+XEz0dP3lC/v7111RxgBoxdhfQBkw/VPVYy7/+6mvy6aefNinhcSs6McAsPejlcF7nCeBPXxB/6dJFWbpkidwz/x5KRFpB058cM/CbldyClAUrhaYURrqtAFY0Av1o2LRAAUcZPKlUWi9q3Vr69uwpb615SzZu3Ehjos+3fS633nyzDB86VIrzC2kb408W0AZYrugD1B7AEi1slS/t27UjY3/67VPk7rnzZM7s2TK4/wDp1a2b5OXkkdJQRfk0lkNf0D4OwqNHjvIuAPSIXzz97PCFhbmY12FmG4rnBuDUgn4YWw/WU7jx3Td/vkwaP4ErOTUZ5BVWVRKBhkHjSouVijjqapDxblCIUbwBekE+Jc90hUP+CO7aM089LStXLJf3339P3lzzpgzo01faFRYzP8k6oCTogLAd1KO8Z0VRhgWali59evSQwf0GyJhRo2XkDSPI5MeBTLQWSdF+gseB3ZCWTl7MxAk3yZnTZ6SmpjrQFVRweCALoQ4fTKAcbTjweSXVa7OYBHsIIBpA/su77/Lwat+2Hbc7cG2W4TcQ4OA14/ADjQuNfggB0jMor8vLzXUTAtKMk2PVDAw9DF41tnJ+i1akldsWFpK1iTo4cawXphsZkpeVRR299sXFqj5szDqQT3kXaksDcg3MJtz4tE1VjXCmHUbkBiuxNa+9Tk2rq1dVyuKP34cV4EHUERxqHuRivBrBv14abxKmAqukiNvU+fIyWbr4ebl33nwCDgAhINMUTSCMwwRbt3VeS/KKO3ZQ04p+ffrwwOvUtp05NFtIS1xkIimCVZweSRMwiCyFAgsuTpidOEfjZkhudg7FXhBfQeUBqr+gOCAOQ3+4WoGSUtJogaATjx2glmHBYQzzDoi00qSoVYH07dOHUntQNjXGDM+OPwBywIVzODpINL4QMBHnR5hVbqIQsuseEo+zv/xCvWiIrEBVqJBVpSbQj6b1FWjQzCxpX9yGDJmVK1fIV7t3y4Fvv5Vjx76XH44cla93fy2fbtkiDz30kEyfNlVyrblcUpIkG16DHpzJFKJyMiMqi9SLxCC5ZfLNZPzDGPTUqZNy4JtvZfa0aTTjQPtEH0YIy36SvIS6maIxvZio+R3ah6zy1VUrZcOGDWQiAWVQT8+7UTpIeR4P0Brr0nzQ+pGcBy+CtygV4SC2uqaGmkdbt34m7YqUfrXXVeJXI/XGVuzSqZMMGzJU1qxeLZs3bqBkGZy6K5WVUnmlUk6fPSPHjhyVVcuWyxOPP878BS1amguNWmcB92LV8ZJjVhwMREGXT79dJTKHDx/i5INfjGvy008+KXfMnCVdOnaUooIiHpgtsrOpzqDoDSgsXSCyys3IkvzcFkRJ0MMG/2XL5k2k5UkOUlkeT1yohMeDjA9Bgzrscg7nCsm/XJLz2ELWOEhPXBjQr1i+Qh5+8CGiBKwYbNHMFPBvFafm4hLSqbNs+PgT2f/Nfrlw8aIAz+FWptdrZergAgI+NOqE+RzsVJ5d+JRK0Q1uV/wO0ZeKmyB4BYWz5Lnn5eSJk3L+/HmSfXW1UAFTc7yLFy/I2TNnqGC5evUbMmP6DJk4YSLRVbcuXaRLh47s39ABA2XsyFGko5csXiLf7P9GTvx4nGpqsNrlRcleTKLhEhUOVrRF1AH8Qms3qlwolzJ3VKSEQTz91FNyx8yZhsqIcHVgpWD1AehQWAH5tX//Pvn111/12mxIo1DF3pqounqVQtm31qyRju07KI51B5raI+qNT42PoL1UcVmNh1An++8NAoDat3ePbNu6TRYuWCj333uv3Dx5skwcP17Gjx7Da//MqdNk7p1zZdWqlfLe2nWkz69WVfHGiDopdPZklWH0Gh5JAGg/3usQo6PDLm9sQklpqdwycZL06dGTWw+HC4CL/1h9IMewKt96cw2Ne8CbwEWjGuSRffjEsBlxBUYcJSs1NWR94lJx55w5MnrkaMHOAD0M1TDeLpNTePDCLgb6c9gJ+KENcOgoSwTQwWturBdYJeCCAzbt+QvnCciSklI59+s5KtqANXq+vJwTBn4HzT2MkaovdXfgsBPqRxh/GNDBIanJCVa5q8eDM7zQqcBTD2NGj5bO7TvwggHcST0JaiVFSF28seo1ioegLoDBA9CQiGCFWMkJGeeGDUpAOc1/o5AOE4vsHE4e8D12DNpqTdQxX17yrLTAYwb/otFQuqoVYI9vNxoloLxgXNUBo9sHnOzTBwoKDyCoxwYdU8lGeI2Eo7yQ7/U0c7DycNUGAx9GmCD0rWUs+AwAQvPMbOnWtYvs3buXZm0gh9gfnKWuV9oJrxlVxDG4EHzmjRs2CqgUqANgl2A164pWSmb0yFEy9447ncSDOyUOarLkmEp8fN6EwgiTzR1Vr8rw7KPfMQ9ev+UNr2iXO05t8aIAaJ6BynQHxXDg2wO0KczJUNE+UIfSu8mSk91cevXoSbHVpYrLHIRrMuQJN8YD0kwKtvqOL76gmi4AjWs0LkEWNcFufMjgITJ7+nTyLVAtdgl3iNcGWrDMH9ZvDzXm0fYdoCHeMuZ4XhXqZVavv87rPFxC/5J+NDti6sMJfO7XX2Xvnj00GwYpRxrUvFiAi0FxYQH1K3AtBzbWvi0AABwJSURBVDWB8lzLQZ+i1rWOBeIuSLiRDexPvFqzfv16Z4SEywZvgknJ5KwN6ttPpt56q5SXQtboVR7yW5BhEqw/nFslAEGcl83V5McFtfg+zeGtaFOEjl/cj0cFQRpXieklboMK6L0CxRcO3GqIgpETSZPigkIqlBPQwMn+CG29cdonkI1tN2jXA998I598rIDGjqFCizF5xooGoKfdehs5cP6QQ72PPo/itA9UAbzOnxu280RX3WTYA3Q4X0x1UR0DjPS/YteGhjqaNkCltUfnrtIcty5zmXCoIytbUcfRwzRfAP5L9PPbt6gDcdeuX5PtX3whb735tsPRyt1TQ1ErAps5Y6aUlQSWtLp7bGtau6IOpa3h93/IwR0LqsegDr+3/hrR2vQv67BeugofB2gNek35NXnR1qv5DbSNTgUsYPUw7KkUgUEb9jDMSc/kYQilw3PnzrmXvjggY59o6/f3s49DIcKCLHD58mVOum0PQxyMuFaPHjlS5t4xV4W6pm8Ue4UAABytFyTUj2t06GdWEnYdAQ162YNJDLzChU3INvg760djMFD4GztmjHSBdlCashTJlgQDJxLhKgSj/LMtnwkuIaBpHXlHOtpMIc2ddTVRRAU62JpqPPJHuf3W28hoslQHyDvwKvRmOF9eWrxUKozmEPSzrVkdIACAEY4MhCDEgD08bV6bw4LNculsPPP5gTgRbkVrPluVLeWHfb9JjxOF5x+gJQoSD1IIoA+41H9OTpHClq349Nrbb75FG3AAEfwRvbAEq0a3rXnJsb6O/F6sZvB+586eI6NuuEGs4iFXNHjMvLDk0ZB/GS8sl3mk4DUxvbCYUVLTqYHyRtizgAWgF5YS6t3hwoIba1lZKUnEisoKGhVh5VMH2xojxRm/PcM0KcC3BLS/JTSjVwO9rpg9MthjG4sO2JsSblnPPP00NXda5eRy8JBMQOGct8S0NIGdCl77gpzu119/MQostk241m+9jeSFfLZ1q6xZs0Y6tG9HiXlqCiQkKt4iC9MIXfH+x6srV9GEzXXU2/aIq75eQ3kjmF8LnnySguLJkyZRDW3M6JEybuwYmTZlqtx1x52yatUK+WDtOsGt9wqu4AbNQfreEEI5Xr91TvVv+MKimfgXfxKU8ctbP2504HegCK69UDKHhFntVSJU6rZ0LgACxjo4dxs/+UT27/+G7Mar16pU3I/bIf8rbiRTqbKCKAlMpWeeekrAwbMCVjDncfOEOQR41UAd995lmEonTyhTCazMujqiDCwKrGA8XbH+w4/kjddXy6xp02XiTTdyF3bp3JW32q4dO8mgAQOI7//4yCPyIplK++XE8eNUP4CetzVjBhxCIAsFFEpxlBx9CHslTLSf6hqg0oluEwAGBpqfb90qbYpVnyLlf5IkkgxNftUUAq4GKunWsaMMHTKEbNJNmzYRLUCfGZOF/3i+58jhQ7J82TJ5/NHHBINvBcVw8I8N907ljMr4B+rAhFo26dQpU6i4fvgg2KRnafYGwe2Tjz8us2bOlK4dOkhBfgHZpOA1Q7oN/WzUARFbdoY+pAVLreLW+eTfjB49RrZs2kSLYDCmAA97qCZcnL+XfjRRj9maWDm//vIrr9lg/ENijZUGwChjXh+fshQCREvQxIRyzO5du8mYP3r0KAWeX325W7Zs2SIPPvigTJ86VQ8/MubNbRN0urGaAvBpKWCk3DD+xJtMsMzdtHkzBbewDvtu/zcyY8p0oi5l/KsoDX3EBYt8bcP8B7WEfuJ/ZkoK2wfjf9XKlbLhk08EnEoy/kH+RZGHdrfbxRgchtFLNZQzWM5NZbO2I9hS4AMvXbyEpsPUeQYgjPENbo0AuhVlARVABgf2J14S69OrN//DjhAMfDCKoGYLQBIg3BlW2cbIHSG+spOACUiOEI/nQCrSoZP07NJVhg0bxtfHfFEWVi/OD6IflLcqD+Y9EAAe6VjtnEiIslrnS9/efY0o6zveVgEuO/4Q6EwgDuowKVyhicEaL0UPReVq4YXcde+slReeXyx4Zg0rG9QBBkb9DEjCgVIwOCNEhSoByDTgWYjAwF+2KILowu4MSMwpNbfCWZ0o3DzB/wDblBzDpODdPCi2Y9LwH+jB7i7IAEF+EuDGbBp5VSNJVzMVZsBPN+0D+FBVg3I6H3YBmWpeSQAMHML2gBRWN/AS7KyEo0zIRlrXZnaucr2gAvbzTz/JPXffI5NunEBNH13JRsgKCXSap27QLNkouuiLjZgQTARxJicp1bBedfViRwTqBivkg/ffJ74f0Kc3FWOoXpAcCVCX0SOBtAdpBJy1uIK6QfeeMmjAQKob3DBiJC9EwN1kJ1C4rPokWPVYNL269ZBA3cDybgAEBYwFD9xgRfuxDmDxPeFqYvPYqpACJfMXliyh5j5QAVYrAAggYQDpKbqasALxDp5e23ULY+XASovkod0NWMlm0FAP69u9F3U5AgWabXLLzbeQeYV0PC5LfRGDVrh7jMWu7iRFBZ3atZfJkyZSFxDmFlCggSirZ/ee1NkGPrc7EugLAgfUP6T/QGq7YpyW7OM7KqGTMaTXYQFmwQTX83ve6JwajpPBXH/RCTCSFj33HEVDHDz4IAaXOhRBybY9gFToqnjXKNZA/hhJ4+uO3Tp2ooLiR3/9iI/BXr1axRsmjI9AWfz4w4+y6GmohM0lGqLuHZUTzZshFKulcuWDt/3x+vVUCSsrLaVUBZeVEyeOUyUMnMBhAwfxeg88DYoJqrvYFVDUef211yitx4UKMAP6AInq//5j+tEVVyrlnT//me9AY8sVFxZT7AS9uGzgTOgtAwdaZRkeRoqjgbdBRZDMMkqOY0aNIQcPSo72eWN/YJWVFXxKaMETT0rrvDxJ5quRipKwa1LwBEXrfOnXs7ds3PAxBa9gBdgfGF7Xrl2nUBhKjrfdAiVHRSMkA/kobTLVf6G4qUqOVSzOK7p5D0Tr+w/qR6PjUCOA9v7XX30ln27cJA/dd79AAIqXDPDSF3FhM31ZRt9LUrvvXt26C16ZeeThh2Tp4sXU/YDFFeR4uOHhqUysopoaqNyqfjSeCcIrZSDD4ulHY9IeNmq7UGwEkEGa+vrR6DPuBTCJ2/3llwIJOVAIzhminWSo7ebKlNtvJ51//vxFwhUs4xC5526GdhodsrBowM4HXBMXdZX1iibwBnXBB/kdLiKHDh6U5S//SRY89oSMHzuONC9ujEpz6wUEWkYF+fkyftyNMmPaNFm5fLl8YBTRwS61fSK101BPQ08AGj8ADtZUmzduJHogHe/pR+NpZLz++N6696k+gDLR+tEYKvBu5ZUq+f77YzKwT1+SmgpoUDxQRM+WieNvpBT94nk1agoznXT8AR3N7gVAsXC1g2GyG5qGLMxZyitq8wauJlKKbF47ABMJdnmQMgOf7ti+Q3p17aoPU0VSpHl6Js0YZky5nYcNeMugYiqr1LQC/cLKAZBt+z4dC3xJ2eJymCarsRDIRwgJcH1vV1zMyxBe6sWqxQ/PA2EVg1SjpBw8nDo1HsJTFXi8BSplxM8kPZVWx5sfM26fSiYU6zGiM3/8UYAOg7VJ2JmZaDqP35ReVe2WssDBwPCmKAYMI3xeTPBkQ2aWjAJf+U4IWXWlBLVxOAQyVqH9cWWbMF/5NcZCuD5bSkEBnUxUtX3b32KMhexzcqgTKAnoBD+aOs+ZTVWy3IxMR8lkpKfLoH79ZMrttxljIdubsOsAnRhglsXt5XBe5wnXGmyHqHgEQWNjJeoAAOiLFy/JwUOHpF8vWM7mcdVhS0J9Fs9qlpfDZAGGnzU0dQhkBOH2FdA47RvV/G3zFmP+Bmm58kHAwwCVA83TLZu2UFABg1LUhB1CHG/M34izDR8c1Aje3BvYv780T4NVFmj5JGmemcHzwzd/+4/qR4dhHfBlgW7AUgVQ8APQIZk5cvSI9IeJsrEzzMnO4hcr8HkQazlLQDuhbnj3IaRGQ0pWXbt6TbZt2yarV6+W4oJ8ve7ThAPGmBE+X4GPMnz9lWfQycNQ0QcMTRXQdXx/D7bh+GwJpPigp4HzsUsCg86ZYdQRetQqREeHV4ddxxhAOMVbpAkSoqNtWN1GshdrrU4HTZRrqOk5oJ+aKGN7QwvpxnE3yr133+0sZznwevspp2DybI9ougwcax44xDNu27Z8Km2KiqnBCh4LmEOgGHJz8viKDNTXwEOPnTbtLYTBh44clk+3fKomyuZVGl62koyJ8rQZsvDJBXKJ9eihahcS+oaaiDqCQ00rZ8djvBrBv14aqwkqsGM2biwwkODjUqCOyoorVNXt07s3aWvoadAWHEbx8+bKL9DPq6mmjTUmqKEek287gTbUTz62EfgCBfx06qTs2rGT6g9YhQROHKP74z+elEuXLlPKg8nELgOZB+kL7Fm2boWp8xs01QBLAFd4PJyCCYOpCN6vxhNCTb1f7XB0FISiJzhqxs0w7VhDhQMQOFgYD6kCruSgIBRiINXmMxLt2qvkBLev1DRef0H64RmJE8d/dNQBOocaoNSCOu1P2bXmMWQ8I1FTK2fxUPjYsTSxw40OuBWrGvwTnANgRN1/732yZMliPvEJmvncuRLSzniaCE9EDB40WDp1aK/8EZpVpJH5hferi/GMxLvvyK5dO/UxW9wMsasw4W6YcVCHS/NB60dyVF4EvRrGXy8lFEI8VjLs+CCdqKq6yufl8dw8gLx00SIpKirSAeCqDZFXx458oQZGnHiVF8x7POsAHjBJRRyq3sTZ9kmesSeN1O2YM2OGDB0ylKxOrEjlsaTxFgpaffLESXLPvHmyZfMWTiqk9Lt375Y3Vr8hzz+3SDoUt+GkgL8BLiIOVEwauHxdzcMouBfgFRr0AbtU+R4I6U9Rhw0F8RpjUYIPsug8CcvaBNNwPQo2EsjQvofKwC03TeILM7gVwjIKfAReLMz2Bq7GdRcv04DhPuW22+XB+x8QCAbw7qnFg0RFdQFvgYetOQNAT2/ZvFleX/lqQE9DzgjGVAR2K2m0JMBTycUFRbRAAIOpQ7v2lKrwqR9YjCVH2BewYDFR0C3Exx/unDWLL+Pghgram7sKQ4+CU4A6PKAGIAryR5Xzs3h1xs+F2QW9CwXFsrJyyupWLFtOKyhsXeBPK9mAy5uXZw8IcgwaowMHDKBK8Gef6eNVoCz0gNSLi+0tAG3pdfBBoIcNFbJeXbuTfARaQhtcoWZSQ+07kZuyc9E+RGawAACfGtpQmIDZ03EIPikXLqppcjyyzgIqALSNgRsNr+iwyxub4MeEbmrXrtLocc0bq8n3zc9vzdsfGe7uOTYwkfS5YrzMRUCk4A0jlYKAlMJWh+xw1IiR1PODZWuglRq8X40uYoKx2gFscPRefvFFXpVb57Qg2iAtbLVR+Rwb2LZpKknxvo6BnWbfvsOKZvs3jOLbS5Di2/YBt7CamwNUlC14NJGQYJW74h5U1etFACcb5goOpQsXzgvMGBY8uUDy81rxxI6QTYrVmkapCLlqRsUXKwyqBCDJMBmOYjDv33Xt0FHw2jqeTQbOR8ugFngImQ6CCrGHEh57/eD9dfLSiy9Kzy7diapwq8Nk2vaBSqyYDe1l800+faLTogtc53FjvWP2HLJVcZgDTGgfK9pSQOyCBYdjKtkIB8HoRe1l8Lxe9pAXh4EdMBRk7JOZfXr1ca8DKCD1ZUbYn1ghK3A0rt/U3TOiI0jQQUoBMBZHIg8M8adNnUqlF7SZ6Ae8CVRy5UoVX/9d+xd9MhPvjUL+R/sasmeNEamVyqB9mEonJ7FPML144O57+eYebGqUU6jSpKbaR7/io44Y3BEHndhREfAe9LF9vPebwUXbs2cPH4Etso/AQnICwyGzWkFmQRiAR2L1EdiuNA2GfI8yQLw3lwr7a+BHyAPBfE+T9m3byshhI+T4D9+TA6fknVlUwT09pB8Ny6xdO3fK+x+8T67bwP4DpF2btiTz8JQnBMXgX4ONCg6f/wgsTDbwhaTy0lKSmq49w4wiSBwonIfQ/Jf0o1FxUJ2FvKEyzAoDynjU6Mrl5TTnCsHhh+2KAwk3wDE3jOLBsnnzZtn91ddkoeJZ400bNsjbq9+UAf0GEKgQAGCFkfFuHvvDw1SvrnqV7FCVcIQvRH4P8SKuxdl4YAWr8ocfvpcP3v9A/rzmTT5r/Nhjj1P5B32GecaqFSvliy+2Ex9DUwnSItQBXIxV/H/i/WgcRvh+CuRv+HwHtjvIJAAaKABSE+A8GP88tWABn/vBBQOG+qCX8TGGzz/fKrfdeosMHThYmvORvwjZlNDnwyFVyIe6n5Z333qbggVMN8k9j6tnl4ACRlEMSDEoPoLLt2/PHvni88/lrTVvymurXuPnpABg2JZv2rRBTp48SQMiMJ38iUN9v4UybNsJUIdfnckadVD656SuamO+YE4GzDjeksMr59DTUKGs0smgKMDTxUNQt998C193Ab8BTCNw9QAEkIPQ7sfKwxOZeHq+E74VQBttcM5ULwRf8Bw3dpzcPX+eYz7xKm5PKO+ybgeNx2mBs7H1kQ3oDYcaJEA0Jr1cKZcvQ7Ex/PR8HVdwUM7WZ8dvw26bM0FvsQ7Q3sVZ8/uQdDUEnpj8PHUtwY7Dp4HcLP9jCriy8tBrpgfejWPGkE+AryXH1Gfax3UWr6ofPXiI3wTgBQJ6dpAB4k2jdMOmnDrNafgr9YFRKghcr00QxkFKZwfpidp3Zb2dwgmKrtvP6NKC+n/X96NBaditBHM2fN8Kttztits6xjsOQOBZnPYvvfSSrP/A+zyIearH6ifjmR2sNgAFNn/33XOf6odkKa7HRQL14RaHz4OAlYkLDH/BGOMFXZyVpGBh8PKDp374DFsdr/msDys/diloO+ZvVHMxc+xWtOaPzu6HfX/82tFprCb8AKCDBw/Ixk82qE04HyQJ1Hfx6J/V9LlmXgeALSBlfmTIgdGP77ComAmHKtRx8QaT/VYtlCdxoII6uWHIMDnz8xn3fqn2NgrfmW6HaV295OByBT1qABb0P10j9CWQPSrGVuMWrouAx7WsfgM2AppkisuMFJPqygWFvZRQlczqXRj4eNS33/LzeW0LivhagGoc4eaFTzgV8QDbsf0L4keUV4EAVqS2Ak39uhoIWxup2rtw4UKBbQq+Vwt6GyoEuNSALIQs7+efTlFA64ZiPaiuCVT4e43f9ts269zwhSUAJsfpQ9SVSOxBdn13TtmDMP+1n3DCJ6kBGAI6NY1oBNQGPuEEEwvwQNBJUAt1UDzBQmywb5EqKrh44SJf4pp6++1mRUfMFz5TiZqGDxvO17y4AwjYpvsaGh4DGuO8oQyJ67IpyO6KhAKaI1AJsyWC7KaoKR52onJrIlCHXR14bvJn6EPs2iUdgKNT9OEoXHGBW/Fy1/w77pDFzy4yn9nDooM9odK6ADqvtKY/kELfNG68dO3SlY9HYeKgfZRhPrOHl9KRJ+6PGMQMgBmsP+YI9MH1T48/BDq/I7+XfrStE4BygMaHI0tKZP/evdKlU2deMqBCRX5CUgq1fmDr8uD991P7HiYLZM44rUzlG2CX4AtFx44c4edUgY+xMwBoTBjIPbzgBUUcNXfTCbP9QN8sWB2MYyJMnlC8HVVU+SD6H/ah2uAwTNCIds4kJjhb4rWIgWJVgrs2YfwE6dGlq6TzgwnKBrVMGjwVjIdPNnz0Mb/SaetCeRyopedKZNGzz/GdZ3wni+ph0MynShY+hYr3Oe7mR9mber8Z4GpqiE0mWvz+T4zfjcN44qAOk8LKE3ctcYr54IyqVFIfYtZM3AyHKaOI/GZlvOM5HZhB4LqLN+xOnAg+7ouPyuBpHtDhMKDHs5l8scu8O4cHqcDzAF0NwSjsW/CoIH6q1lXXxFL8BxbOvzB+Thqa8ID0b9GPhhUtcSyeF66qkg8//JBfuS9qXchrswo3083rihFy9Pi56mEj+NQ8Plc9fep0GTpwoPTs0VMfm+LnqlU/2qr2Qp0Xkpfd/Fw1PkCjB6f9JpYdp3XNEgoBIBSIyRhKDSBn81nXVWw9mmCT4QYr2o+1+RO44WpiM4FysEJTcMvwgYJ1a9dKt05diJvBULJ4NqWZsiIBtI7t2kn3Tl34zhLwLjSMcpvn6sOClIgoW5VyP5B1RYV8kffI4cNUGbBtxtNPDvfSDtYDpI2ybrhAKPRb44+tIiSctXXZbHA9v+eNzqnh2Axk4tTXUzqML06AzXjz5JsFb0TjULSiJAg6laMHZlMar9XNwTQyPGIahOK1Ryt9iQSv5eIJHhhcWssoqwFl+xjt2l7q0FzIy2bj4Hp+z2sz2ygN25B1bS51/6360UAfeiVvFLzP8aeXXpYH739QOrVpx+/GpkPXIgIBLL7gY973SFYtf+Bv+4QmJ8EY62CCwCfu06OXvLduLb/SfJ2apZaOj1I/4DijDkL/UCNc4gPHB1X8HDbWun4JpX405t+sH43zhGQWhQENfNEAmv8LnnhC5kyfQTRCethIMsADAf6loLRZM94mKYmh+VkqSTlIzKFuu27tOjlfVibXr1c7/WhHHESPOzochodbt4x2eZ0nKnds0OZsqv2AvDPltZAtqpGhOFtbbHsJYoK64Ku8XCGvv/4aKQU8sIpbI1iokLBAfAVqAjgcKxwSFQgG8NIjPjAJEnHEkKH8CAKUavDhHPywcyx+ju1EuH1ANYhJlDucQ0Mm7n85/ihAew04r/OwV37Itsk4PyGm/0EiOHwwjSsrL5OdO3fQdgS6Gvia2ojBg8kK7dm9Oz9chscHx48eLY88/LAsfe55GmUe+/4Y3z0FkMELsdRNk9BrOtHrbdDPoIgX52FtFPpnxh8F6PBsh5vw+kOvpjadJygTnRvSjZ+On+CzPcteeYUvHsyaNkNuu/VWmTTxJpk8cSIZSNAmXblypUCgihfIQCur4NfyRgKcHLQW64tun+E4nfejfP9v1xibw49xgE5cqT1IvBzO6zx+nVHzHk4C/wKsVFAHfEejuloqKippCA+eM/QvcFmBCwX08vIyuVxRyWccQCdTV4OMe4ik/vn2gzLhsuGQ3+ffZ/zhCwvqdy06j99qyB/OYTtksoQSA8QIma2vH+01qAVdOecJtYkAcbI1qXCp/1j7dru7YsGANco16zxB1ihfOEfT7bsVHT3goFjgi2onuohLDncgyKbxwV+QfpbWpqzQY0qhVX3Jsd6YOBj7Eh8w0Q2ZHkRH23DQctAn12m/Xq63oJT1BXkTNJQgGuUJaDvLIZB6tavX++ulsctBBVF9CVZyVAKDFtB1dVDdUg1Mx3VDUTMR0ImG0Q4lOGj7d2rf9inovldxjFcj+NdL+0fH761o26xxQ5Uhzo8wU+JHueLedLl05zHVeGFXLsoTk8WP+P+vfQ/QOpDwcMzg/UhGeRH0ahh/vZRQyMZbNwqsLq+f7vzOY0t5EfRqGH+9lFDIxlvX1hS4muKnO7/z2NxeBL0axl8vJRRS1BGnPKPsnvKLhGuyJaNbSBC2hY0bduKUsfm9pCAqaBu+6Pi4YRtp3LATpw6b30sKov6p9oMV7QHVr8HWa10/zfqDtMBn06zLlJhkL+K/vP3/Bwdw/rcrpchlAAAAAElFTkSuQmCC;" parent="89" vertex="1"><mxGeometry x="6.029999999999973" y="5.480000000000018" width="33.22" height="45.03" as="geometry"/></mxCell><mxCell id="170" value="&lt;font style=&quot;font-size: 12px&quot;&gt;Database&lt;br&gt;&lt;/font&gt;&lt;font style=&quot;font-size: 12px&quot; color=&quot;#b3b3b3&quot;&gt;Entities&lt;/font&gt;" style="rounded=0;whiteSpace=wrap;html=1;fontStyle=1;sketch=1;fontFamily=Architects Daughter;fontSource=https%3A%2F%2Ffonts.googleapis.com%2Fcss%3Ffamily%3DArchitects%2BDaughter;align=left;spacingLeft=46;" parent="1" vertex="1"><mxGeometry x="250" y="408" width="156" height="60" as="geometry"/></mxCell><mxCell id="180" value="" style="shape=image;verticalLabelPosition=bottom;labelBackgroundColor=#ffffff;verticalAlign=top;aspect=fixed;imageAspect=0;image=data:image/png,iVBORw0KGgoAAAANSUhEUgAAAIIAAABwCAYAAADSWajvAAAgAElEQVR4Ae19B3hWVdI/0hXFVbHtt7rfuqsoIl3siGIF17IqKhYEQgJIEUSQZgFcKUno0jvSu0jvVXpPBAKhkwQC6T35/Z+Zc+ecc+9931A+df0/C89DzpyZOWfOnZnTy1sEQf4VePEFgI0rsCIK9CGcBAWudCpbi9crx4n7OK7Kd+nx19Z/EbGDz1y2JGGyQh+/RTMu4zGnRCW0Ps2X31X5Lo16Iz59uRhEwRI6RIlKaOm/iAXrrDQfgALLIDZeM3tkaLyH2RNlNsYFINioq/KNNgyktawBH82D8ER9+tctgsrRy27HbdiRHwAlrYEiedpzKbblXIK6Kp804FWoHbdhR2sBUJKHIl26/tkR7FqnMrIkMKizdRXVYMWcVjpByfcFNb671bkqn3Ro6ZFBFfdQHC6L1053mfpXLYJHGOdn529nGgR2FdIV8SfwkVkW/1Gf4mPw5+HFuJK4Il5On6s5ev/vll9Efb6tLBtjadRB21RKpeJBiJItt1B2SoEDDXmEJrm787apwiGlCFYhCO+WJLm4saq4QpPc/zvkFxEl8ufaOlBa4b9B0BZH4aArPUV8CAflwps8g6ANw0UgV3qK+BBX5ZvBoks5Hs1K/x5k7OHhdkVNtoFqn8VqGC2kA16VrxTxG+o/QNdgKz+4dYJTnBpHDEGZHEJhH8bGD5pB8Kyp+CI7aPKr8tnKlv511yAExw104NalUWAwfpVQ8UlaCQNnalEtUHjdKCcmSAmFWYeKIGQJPWQnalEtUHjdKCcmSAmFWYeKIGQJPWQnalEtUHjdKCcmSAmFWYeKIGQJPWQnqqimRRBuCXUqP6BYgjP6KV6MiWtIAAn9YjVGsQRn9FO8GBPXkAASaml+QLEEZ/RTvBgT15AAEvrFaoxiCc7op3gxJi6QGSN4xJj2lQhWGyIpfS2/ECTUGboATWVAxywewVFowRYozIJScYlJKFzuUFMZ0DGLSXAUWrAFCrOgVFxiEgqXO9RUBnTMYhIchRZsgcIsKBWXmITC5Q41lQEdg7PEbBDuZCYWmEOwEhp+gsxClWegaPmV+tbA6e3cAnMIVkI7xVX5l6N/tbJo60/rVAM2NSAsnHpwLwjh9sYF74Quso5owMPtjwrnVflKN6IHrSlRkEa4ASL7ugaVxp3ShfNJcWfqj5m8GLJbAz+z0xiaNMTyW8hPS0tD4rlziIuLx7lz55CcnIzsnByXrNzcPMQnxGPrtm0YO3YMWjRvjtpPP42//e1vuKHsDShVuhSuu+463HbbbahWvRreb9AAAwYMwIYNGxAfH4/cvFxdev0df5Dv96re4wiWATSoAU5rx8QnGGcTvFIc9frQXkRBPjIyMnDgwAHMmD4D3bt3R0hIE7z99tt4/dXX8Prrr6P+O++gWbNm6NG9OyZMmIht27YhLj4eOdk53tyseAFOnjyJ6TOm47N27fDKK/9EzUdqouJDFXH//ffjwQcfRLVq1fB0rafwxhtvoGXLlujapSveeust3F/+PjZ2kSJFYP+/5ho7fo2iObjSpUujfPnyeP/99zFt2nTExZ1Bfn6+VZ5goKVEDWqAE9mxX1P/HkeQ2qcKagv1F11RC+cxqbzcHHcSU82JiYnh2vRsnTooe2NZXHONo1w2gFvR11hGKVa8OO6++27889V/4pvu3bF48WKujaT4vLw8rFq1Cp+0+AS333knyHh22qJFrkHRokVxTVFbVhEUsYxM9HLlbsUjjzyK+vXr49NPP8W3Pb/F4MGDMGLECHw/dCj69u2LDh07oMH77+Pxxx7HrbfeimLFirFzUPqqVaqgb3g4jh8/hgLHIezvN1r6z+if5GtHcGxil8mBZaBncWhQA550wfDEJrQC5OcX4NixY+jUqTPu/POfUcQxzK3lyuHJJ5/Ehx9+iC5dOqNf/wEYMWI4hg8fjsjISHTu1AUfN/wYzz1XBw88cD+uu66Mrq0lS5bC3XffhY8afoR69V7BDTfcwIYtXrwE1/qPP26IiPBwzJ49C2vWrMWmTZs4nDN3LoYM+R5t2rRBvbp18dxzz6FLly5YsWI5Tp0+g8zMDPON8gn6WwwpKysbJ04cx5y5cxAW1gz33HMPipcozt9Grc/w4cOQkpJs6UGl1VmarBzot9O/Lcq9oEQUXSIN2Pwu2M0hBXZYXETTMUpzlpWVhcVLFqN69WpsxDJlyrBhR40cjYMHDyIjM80lK1AkJycHCQnx2LVrFyZNmojQsDBUqVIV1157rXaMm2++GR83/AirVq5CckoK/C20q6D8/TTazs7J0iLz8vJxNjkdB0+exZaDx7F060HMWrsHk1ftwozVu7Dg5yhsiorFwZMJuJCWxQ4uejx67BgiI8LxUMWHUKJkSRQrVgJvvfU2oqKikJefZytcydPF0YAuhxdwc1ye/k1eKhfdIlgewDwmWwOZxA7kLokme9ESV2E+MjIzMHbceB5klShRAjVr1sTMmTOQmpqqZBcAqZnZiDmdiHV7j2Dexv2YsXoPZq7ZjQWbo7F+n6P0lAzk5rn7Xhr0rd+wnmtzaGgo1q9fj6zsbM43O78Ax+MSsWRLNIYt2Iy+U1fh2x9WIHzaKgz/cSNmr9+LnTEncSE1C3nisShAenYOVu6IQYNvJ+HBkD6o0LgPKob0RaUmfTmsEBLB4WOtBuKNr8ah/fAFmLV2L06dTWKnoO8+djQWXbp2xR2338ZOev8DFbBw4UJkO2X7/fSvrCA2EaOxI8g3u0xucdpJGbZoThVS+bnwhDItgQikD586bRqoplIr8MEHH+DIkVgmp2VlYXP0UTbQ29+Mx6MtB6JqswhUCotAldBwVApVcLVm/VGjZX8813E4mvabjsjpq7FwczSOnTmPnFyqZfJPyU/JzMb8jfvRYtAsPNZ6EOf3UNMIPNgkHA80IcOGo2JIBB4KDUf15v3wQqcR6DTiJ/y4cT/OnE/hyl1QkI/YuPPoO201an36PR4MDUeVsEguX9WwCFRtFokqoRFQ+UagctNwvPTFCIRPXY2DJ85qh12wYAGqVKmC4sWL43/+538wb948ZGWpge7voX/RjB2S/a0WwSb5Wyy3xzpF9hme8rA+R9MVkF+Qjy2bt+Duu/7CTkA1lmow1eq9safRfuh81PxkAB5oEo5KIX0dRUeicjOlcBVSnBwiElWbRqBi0764v0lvVAmLwJNtBuPTwXNw4GSCWswqANbuOYyGvSazE1EtrhIaiWrNlOHIydT/SFRpTjLU/0qhkajYuA8eCo1A3S6jETljDWJOnWUFZWbnYtXuGHzw3Q+oHBLBZaG0kp7ypnJWaxaJyk0jUCGkL57/fBhG/bQZianprMb9+/bimWeeAbWGd9xxB+bPn+9MNS0baN0JzkZcmf45J87GzkvlbzmCItosGtZAgEIxTTHQXzerieWjABcuXEC9V15BqVKl8Oabb+H8hfMgxS7d+gvqfjEc5UP6cG0lJZJiKzcnhfaDrnEcj9Rx4qvq1EqqjWSAIfM34nxqBnLy8jF+8RY81e57VG7a13EmcSoyeD/HeP3YAdiAJNMxosjnViikL17pPAqjl2zB+ZR0/soDxxPQcfiPXL5KoeHK8GR8x2nJqcThqDUjp2o1cDaijycgL78AsbFH8eJLL0INbu/Gju3bWHf50jzbujRqdAxgIRhUcfprUVwxwUsolpRQdQ0S83JdUqH8ZWOMlRcNvvJy8zFlymSeVpUvfx927NiBnJw8rNoTg1qffc81RxnV1ExxAFKqUrAY3uKRWhwSgW5jlnC/TMUeueBnPE7dQGi4qulhZHC7JVB5scGdPILJJ9kVm0agWvN+aDNoLvYdOcOfeCL+ArpPWIYaLfo7LY0lgx1UOZnqNiK5G3q7xwTsOHScW8HDMYfx6KOPoGixYnj22To4d/acWEKFv5L+jT3EKE5oBaZFsITapfEktUkaFh6vP2oGAEnJyXj2mWd5caZb167cdFNzW7/nRO6rxejVWYHG8GQEMhb1xxRyK+AYTmDqHv711Ths/eUYqEYt3nwAL3UYzt0FG8Gp6T5Da8cwrUxh8qlLotpNg8Z1e2JBKjsadx5dxyxiJ6kSRk6nnE3KZsuvFkrOEA5yhqijcbzItHLlKtx11128vkHrEpyppTjRrYQWSYOGZiBNdACm+MgGYRzBTmnoCuuNa14/wY9Rmz8LFy3kPvHee+/FgV8OIjkzE9/P3cC1RJRFITXZZDAyuoqrmkuKZZzTFTCf0x/TAG/0ws1ITstC1LF4fPDtRN136zyk1lMYRt1OhOp2HLyRV7h8csiHmvbFG1+Nx+LN0cjNz8fhkwloP3Qel/chS47J0/qWZpE8OKVB7qmzyWz3Fi1aoGSpkqhVqxYyM7P89SmQUtkGfoIfo41lAB5DuzndjuAd5AdpJXSOVl4KtBDE5ETz8/LRvHkzlCxVAk1CQpCbm4+YEwl4ucso7r+pNVBjAdMSkAGr82jcNK+EE+VyjQtTTXaTvlOx/2gcMrOz8d0Py1Gz9UDVGoQ5LYiMI5qrcYS0DDQGkQHj5cqnWcEbX47Fsm0HkV8AbD14Ao17T+GZg5SR5Eg5SU4VSz61DKMWb0ZGVg4WLVqEP934J9xy8y2I/uUXrV5v62AIDmSpuzD9KzsQh3uQaSV3Zg02xi/DWJRoAXh9BfQgaGZQvVo1lClzPSZP/oEHiFNX7OS5N9fYMBm4mZqjxwQ0Pmiumls2nNN1sFOQAzWPxKiffkZSWia27D/KxlFNtMmLeFVTbfpwYyBqIa5MPk03G/Wewk5AXdLCzVGo12UUT0P5u6zWwSv/wSZ90KzfTFxIzcCJ4ydx19138bL6nDlzWHtuNVsxC/So+fKjklfw6aNwWHkHQJkSW0QNagB79u7FjTfeiNtuv503lMhon49YoLsF2+hKYdRCuA2p+m7VOggPDQRf7TIWG/fHIjs3j6d5T7QaxK2BjNjJINS3q9DkqVoDFb9S+TxuCe2HLqN+wrH4C0hOz0TEtNV4pOUgVOXxguTvl0/rEK9/NRYnEpJwLjER1atX530PWv4OWNuMOi2jCKtF1KAGdN01GL8EXmK2ewCbWSQKTkLCCyyh8PrDAkyaNIk/8uGaNXgKeTLhAt74ehwvvnCTKU1os0hUam66AjI4NdkyYLQNRjAtAn0xciGOxl1AzKkENO471Vp7kDGAMgI5AjXNpqYKHMFpxPEuRz7lVTEsAk98OgSjF/6MtMxs7Ik5Beqq1JTStEBe+TSlff6LkbwsnZREA+lnWEdt27f3qVB0LOHl6t9kaOcg2ALugawxgsPEgZ3AxttFkIwuHtLOXLFixfHmW28hIysLew+fxFNthrASqWmXGs5G0oNBNR4g43GfS3hnCij8NT7pjzGLtiAtPQvzN0TjxY4jeOFIRu7SV6v0ysG0M9GAkRztCuVTOnEqGi+8230CNuyL5Wnh2MWbUbvd97wmohxAym7GQLTYVKfDcBw4EY+UlBTeZ6EdS9opNdXM0rc2iQYurvgAHDq1ZzxoOYI7lU4gaE9CfytipRCQwwK88a9/oWTJknyOgDZwNkUfwcMt+unpnSjUhKoVMHEaOKrWQoxLS7kvfTESK3ccQnZOPiKmr8KjrcwgUTuPM7Ow8yLnkhbAxhv44vKrsFOSM1CLEoHqzcLRfcJSnD6XjJgTZ9G8/0xeWyC6dj49Q4lAVVqC7jQSh06eBbUITz/9NLcIn3/+OWtcVCjqpybYxl2O/u10Kj8/RjuCtTDs8PqZdaHYZwujC02FjzzyCEqVLIlOHb/g6dbybYec2iLNs+nHyRjchPNMwswSlJGIP4Knf7R027DPZOyKOYlT55J41c4Yl/jczTLRyJmMgygjivFlHHFJ8p1xh90qkGPW7TwKS7YdQFZODkYs2IxabQejkjNWcMtXexH/+nosL4CdO5eIqtWqsiP07t37V9e/tpvbLK6W53d5H6F8+ft5C7ZHj+68KUQbQKQ4rinOLMA2otQgMhrVNqFVZuNSM6v2GDqNWIDYU4nYcuA43u4xkRd7lCGJx+laOH+p4cbxiO/K5atugRyBBozUNdDKY6WQCPx74nLEXUjB9gMn8OG/JzldlVs+yaVFsIZ9piIxOR1nzpzB3/52D88afvhhkqfmi/XcLYI2rgMYrsAIH13cwCHoFkEl97LbcRsOLMzOQ3Gr9uyee/7GCybffdcLdA5w7rq9vCgjtVEbT6/KyYBRGU51BwqmwSM5Bk0RI6evwbnkNPz0czTqfTGSN4FoSkdbxfc26g2aopHDPdCkt9rIcgal5Fy27CuRz3Iah/Py8nOfD8c/u47BK53HoO2Qedhz5DSSM7Lw1bjFqNligCVLyk5lCsfnwxcgOS0Tu3bvxk0334TixYvxeUdHu2Kq4MoOYBJxF1v/Jj/Jyp+QHcEceyZGYrIYGVRxD8XhsnjtdJb0++69DyVLlED3b7ojJy8PP/0cxZswallZ9bFS67nPlQFis35Oc64MRzVJ/Y9AjU8GYOTizUjPyMT4JVt555FW/F78YiQ+H/4jxizegiVbDmDlzsOYt34fvhm3GLU/G8pylSzZzLo8+bTrSU5Yr9MoRExfg037j+BEwgUkpWVxWZJSM7hroKNy4xZvwbPthvEuqSyhk1OTfNr67jd9NVKzsjFr1izcWLYs7rjjTsTEHPrV9a9MatvJMg5JKyiwF5SMsVVCN/PFYi4ncUWAGg/X4MFihw4deFS9fFcMKup5tizpirFVXFb/pObyyp+sLYSF85RtyqqdSErPwtB5G9FswCxMWrGDB2uBDv5Q+aOPxaFhnyk87TRjgsuQ73RjYRHTsPPQKZfb259ckA8U5BdgyuodeL7DMD1OkG8hZ34otC/mrNuLrJw89OndB6WvLcXnFBLPX/DVxYvpnui2fHfEn9rF6yQ2V940P7HJPyuJg7apxKXiQYhONm/+600UL1kcTZo04QOlWw8dxcOtqMk0I+oqzvqBmeuTY8h/1eeTImmeT1vOddoP5cMm6Vm5iD+fzHN4sUz8+RRsijqKyat2YuziLVj08y84m5zKGzpnEpPxZvdxvPonZwdU16C6o8LkU5fS4N8/8OYWfRqdQBq/bBtaD5rNG0lvfj0eIRHTsWjLL8jMysakFdu5nHRuwjheJDvGk20HY8/hk1wxGjVqxGOoV199FXn5dARe/pFe3bp1YsJwSfonJvdkQHIxWH1mkUlC12IUEATt4Qoe7dqtG4+IX375ZaSnpiH6aDye+3yYa85PtcTbCoiBiEZGk1E6LdbQ6Z+lWw/oI2W0pU27j99MWIpXu43hfvmZz4bire7j+XBJw15TEHU0nmsqOQaNHVQNlZaocPlVw/riiU8Hof+stbyKufPwKXQYsQBfjV+CpdsPsvFDI2bwwRpyPlplHLNwM56l9YRQkeVMg0Mi8F7PidylnD13Vk0dixVDt67dfLuPpNX/q/5d6SniQ9gnlFxEj1Fl0uqZy3q4AkYp25kzZ/E264OVK+HsuUTEJabi3Z4T+RQSGYP7bKfZJWdgp3C6AUVzFMn9sxqlUx+9fPshPuRBW7pdxyzG420G8bmG8k3C8ULHEdh9+BRPVzOy8zBt1U58M3EpMrNz+KQQrUGIM1yKfHK+ep1G4qfN0Xzwpf/MdbyCuCvmFH/3kdPn0W7oPDzTfijmbdzHm0nkNFQmOhVFYwRZ1qYzj3SO4UJqJvbs2YO7/vIXFCtaDD8u+NG6Jmip8/+of5WTqf1WzhoM0DU4NBYe3DuCUxyPIwaHaffuPbjh+utx+2234UB0NJLSM/DZ0Hl8CNQ2upodOCt2PLI3NYmNJQsyoRF48YsRPGdPz8hGz4nLUa15fz4axq1IaATXzKkrdiEjUx1c3Rx9DG9+M55rIamkxYBZfBztUuXTOYS3vxnHp5WPnk7kASkdVAnrNxMDZ69DWL8ZvBz+z66jsWbXYVC5vhm3DDU/UQtndvkrhfbF9FW7kJmZg/ETJqBs2Rtx55134kjsEW0YtfMYXMvBKX79m0wFclJbFVt3DcwSIHc3ymQQjF+JUnyS9kxcHN8ouuGGspg7bx5SM3LQb+ZadgTTJ6um2RimH3cFElehWlOgeTuPETbsR0p6FnpNXskHXWVaWK15BDfHj7QehM+H/YjuE5fhhY7DUblZf6zbd5SPtEfOXIv7G/d27z+4WiO3fGre63cfh63RJ3D45Fl8NnQ+T09pYeu+xr15XYDORH7w3WQ+gUTjhzaDZru+gRa5KB+aSew6cppPOIeFNQXdjHrttdeQmpLqaxFEh7ZepYLpUBGtv279u/MwFdTO07QIwi2hla0XdIvxUnVDoAm5uTl8YYQ+uNd3vfiO4bwN+3hjRi/Velf9nDk/LSLZtYlqPJ3/q9V2CGau3YOU9GyextHpZHEEchpqXR5qpg6P0noCnYSu0Lg3Zq3ezfcJftwY5Rx6ddYsLiKfuoY3vhyD1bsP4/jZJHw9bjHPfKrrpWY6sBKBFv1mYl/sGT4f0ajPFKdM0rKpk9OhkdNxJjEF8fFxqFnzUT6+F943XB1g/Q3077eIESKQZ0GJbCckCi3YAsXCglJxiUkoXOAjWa1bt+YTSh81bAg6Gk7n/ngJlg6dygYOG98oTc0anKVg1xgiArU+Hcz9fnJ6FvrPpr7Y2WdwFqXUQNDpZpz1B2oBImasRl5+PnYcPMGOSKN53SUVIp+MTK3KrDV7kZSeieHzN4BmOuR8Kr06yk4nlegIHg1cG3Sf6BookqwHQvpg9MJN3JItW7aUTzHThdp169ap+5E09+R/pEfRpdWGC8qiGn6CLAZFcP3VVAZ07Hd6H6EgH6PGjGZHqFXraSQknMWx+CTU7zmBl2WrNaezfjJ9I+PJyqLbkMq4agGItn6nrtwBcoQBs9biSRqUOa0ItSBkHGkheJrYXK0w0moezTB+OZGAmtSKhNJshJyvcPm0Z0AyBs5eywPB+RuiUKe9zAiU81JL1XnUAhw7k4iNUbE8pqCuQOQT/GTb77F+rzo/0e3LL3F9metRtWpl0H5DYf+MyWwuwUpo09RCkcJ4BoqWXym/cRaUXNnoiAbcuQeICace3ApCeAvAt5avLVWaD2ru27ePT+Z0G72Yl1rtc340a1BdgbQMElfG5cEgnwEYjOkrdyI5PRuRs9fx6JzuI3ANl9ZDL0ApIz/UOBwhEdP45hKdiaCVRjKOjEPY0QqRX7VFPx4knk1K482uxn2m8h6DtGh0PoLGJDGnzuHn6KN4p8cE1SKEqb0Gkt+Mzyom8ZX8p556ii+6dOjYEZmZmWp8oHWnAdFi0FA4C9N/0MROG+LrGlSmkrVK7sKJtMJydtFUanovoOJDD+HGsjdixswZvAA0fvFW0HUxacapFsugUOHUETLCkYHZQcLUQJDuK9D9Qxos0gUUmqbJqSAZU0iTLfnTwK7Btz8gOSMbCRdS8XInM4UknovJp9bjnW/G8YmohOQ0RMxYpc9actqmfXkX9MCxeOw+fBIf9v5BryqqQ68RoG9OycjC7Nmzcecdd/Al3SVLlvBCG6nNpWtHjy7cFepf5223BpadPI6gRDJdgxpwo6nQDokDN5slgvjUuwcffvQhylx3Hd9+pj2HNXsOo6acIXAWjcRoZnHJcRSnlpNT0MDtOZqv86whE/+evBKPfTIQlZs5dxikJeCQWgOVB+34vdtzAlLSc3AuJR11u7rPF1ITXph86mpokDpiwc/Izs3l6es/u4ziVoHK+2BoXz4lRYtNh0+dQ/OImXo7nFoeOn+w6+BJZGfnonmL5ihzfRk8/vjjiIuLc/RlKVGDGrhi/Yt7uYziiXgcwZ3EXQRPyoC+6+Ux8ZzcXERGRvDmU926dXkJ9uipRLzWbYw57OlM31RNltbBP2agOf3LnUZg+faDSMnIRvfxy1Cj5QB1Dc7bLTgtCTlQxZA++ODfP3CNjL+QirodRxrZ5DSXIJ+coc2gOYiNT+S7kB1H/sR5UJkrNKUWYwJ3CwlJqWg/bD6qtVBdG92x7DZmIWj5+/Dhw6hStSqKX1MUPXr0QHpGup422jq3YaNJgRS1cB7hFbsaboZM1Nx9tHAmNUMy0LA4NKgBXxobQTnQWwgrVqzADTdcjwcfrIBffolGwoU0Zz7u7qelaVe1k2hOrXameLTv//Y3E7iJpsUpOrdYQw8wFa9yJtMa0GCQLr2G9ZvO09ej8Yl4up0aIxBNdUlqcFqYfJqGvtRxJOau34/cvDzMXrcHz7QfxotZtDVNdyVX7TrEK5g9JiznhS1K81jrwbwkTs/zDBw4AOXK3cK7jZs3bwad2gqmSTKholkcGtSArW7dwXiQTlTSSKjQ7gUlwmm6BgLnZ7MyhxTYYXclVx3TqdOncc89/+AXSObMmc1X38cu2uw0rdQsq9NHqr+2mmmrqVc1uy8a9ZmKnTGn+PRwywGzeAxB4wgZ/ZuuhWqkyveBkL74cuxSvlcRdfQMajirfuJwlyKfBra0itlp1EK+KU3H0toOmcu7ieQIz7YfxreoMzJzEDF9Nd++frBJb7QeOAdH4y/g7NlE1K1bDyVLlsB7Dd7DuXPqcq1WstabBjTJC7g5Lq5/Si/duclL5WJ1DcGy9QgwOVhOYyP9aM65oABp6el47713cP3116NT5y7IzsnlccLjbQajSmhf0z87g0NlVGktqHarAR2t4IVFzsD+I2dw4Hg8QsKn81RRarJyCO/UMwLlm/TB1JXbkVeQj6XbD/GMRTkB8bodzziVXz4ZnMYGizZFs1PR2w3PcasQzmOIGWt2s5MPmrMeT9G3tYjErDU7kZaVjdmzZvLMqVTpa/kcAj0ToM6D/Mb61xVXyXFLczadxEtcJrc47aQMWzQ2u8nA7RHUvDi89LE52dkYOHAgT5nq1KnDD2McOZOI93pOQoUQNTMQY9MmjTKsMoQM5FSLEIHQftP5Kv3BEwloGj5NHWPX4wPpElRLQO1Pp9kAABuSSURBVN0E9e106nnrgeOseJppPNCot3IuTkfdg3IG7lYKkc+nqVvQfYaFOH0uiZec2w2Zx2siT7Ydgumr9/A4ZPDc9XjkkwH4sNdk0O3pzIwMNGzYkO9/Pv/88zh+XJXFqM9SrA9UCP5r0S5V/x7DuKIk32oRXDRtQIO1pTsuY6M0o+VOmq4Aeipm3dp1uLXcLfxE3caNG3AuKY03jWhqZ2qnnB5SrYDqv6VmqvN+Df49Cdt+OY64C6m861elheLlxRvfjqZ60YQGikmpmTxVI5gGj9ISqDGFtCKFy6c01Cq83HEE5m7YxyuVM9fvQZ0Ow1C73WDefczMyuGjdPRmw4SlNGXMxvIVy3HffeVRskRxjBw5EunpdMU+yD+tO6HbiCvTP+fE2dh5qfwtR1BEm0XDGghQKKYpBvrrZjUxgegpvEcffRQ33XQzIiIjkJWtjq497OwNkNGpJSDD0EKNupNoairRaNOJtpGXbTsA6ov7TFmJx1rRrCHctQ4hrQiFtLRL5wToRtTuw6dRo8UA5yqd5UAB3kcIJF+OndE4pMPQ+TgWl4iTZ5PQYfgCPrtI+xF0BO3LMQvRNHI6omLP8H0OeuOpzPXX8/cfOhQDejjE/FMaEj0RXsMaEG4LwaCK01+L4ooJXkLJSUJ2BE3UgEOWNsvO0ssjOXnxAeK0nkDvJH3+eXvecXun/rtcK/bGnsHrX47lptW0CmoPX+KqVZApHm0z9+cb0LQ4Q2cg630xipeLpYarwaIyMu0TvNhxJA6fPsfdQt9pq9T4wNknsPMWeRxah1wD8dDaAI0N6KxDTk4+aCPr6/FL+RxE7Jnz+HTwPExeuYMXz35asBD331+ej+wNGjSQL7WI1bSqNPDb6N+4iSPICkyLYBldbEuhlE1CmyawoRlIaBIShc7x0Uto8+fN41dTKlR4ANHRBxCXmIIuI3/i08eFvU9ArYQMCMm4bQfPAY0R4pNSeem3Oo8F1KKS8JFBKzTti54/LOfW49S5ZLzQcaTvXoXU8kuVT/mSDFrcoi3p2NOJOH3uAnYfPYXElAys2HEI/568gt9BSElNxceNGqPMdWX44bCo/fv9A8TfQf/amGIUC2EcQRMt6wsuqH39BD9GMlEh9W4xh2JQsfJDuP222/ntROpP527Yy7efeM1AtoRl2uis/6tBnBrh077CU+2G8Eto2Tl5am2/+3h1OtpJR/y0tEuDxI3RsdyX0/M3lZrQjicNRlWLQUblvDmdHGaV8YJqhcjotnyZ0dAaATkWbavzoVWA1xDoZPWyHQcYnjlzJu677z7edBtIrUFyCvJhdwtuHVn2EaV5GCTq17YfI7xWyGN4N6fbEcwgX6UK4qU6SysvBVoIYpIoh/SngF80uXD+Al9/K13mOnzwwftIdc4xvtN9glpTcEbvF3sfoWKTCDSNmI79sXHOSynReLXraLXSR84TGsnH4WhgGEcHXLOy8GHvKc5JJtn+pvGH4xSugymX9j4DORE5Q9vv5yHmeAKrZu+RU5i7fi+Ox13gyytvv/U2SpcuhdrPPI1fDhzQehH12Pp04X4D/WtTWOYh+coRXNJVsdwoK2aB+gMuE6C5M3UP15a+FhUqVMDWLdtwljZxpq/SbyboPpkGh4W8j0BG+Hr8Ej6CRsXYfvAEmg+YxRdPaFn3vo978VEyOrK249ApXuCh8QN3HTLdvML3EcgJuDUJi8CjrQZh2LyNvKtKj3nRf3o0a+j33/O6Ad1bGD58BD8LsHr1anw/ZAhatWzF7zWHNg3DzFkzudsUVbrVbMUsUHivOJS8gk8fhcMSEQDFVMZbRA1qwN0wkCcWFOBw7BE88cQT/G5x7z59+AbUyp0xeLrdEB792308KVv13TLCV90D10Z6Lq95BMYs2swnh0kYHYVbtu0XdBu/BGEDZmLboWN8bJyOp9GUkRak6PSSGNJ2OiVX1jBM9xBMPq0p0KyErrw932E45q3fj5xcavYLsG37dtBzONcULcrdws233IKyZcvygLGI5/3n4sWKoXHjxkhPoxdnje60BQKgrlT/lM6b3e/yPoL+GEs8vaLy7bffolSpknjxxZcQHxeH2DOJaDV4rnpcyxmMUT9OhqL+2TaYwLTR0zRyJp8PoJNH58+ft14zVaej+MMLChB17DQWb45C59ELUfMTGuipbkEOtLBjXcb7DMTPZeNxSD++07BmzxFeMaWbTtOnTcdjjz3KW810G/za60qjXLlyPF6oXftphIWFoXv3b/D++x/w4V56/b1Lt25GXQ4kRpOQv8dD8yXSiECpNJFdgnoga4zgJOAgQGKN0oCd2yXDkjovNw/rN2zAn/98J/73r3/FtGlTeQl2xqpdeKRlf30EjA636kGa9T4C1Vw6CPJuj4nYTK+p5YOf26WHuN9443WMGzcOUVH7+aV29eaxKqLIX7BhP6q36O+MD0wLo6adZt0iqHzneB05Ak1lu49fjpMJST49kIPv3LUTmzb+jC1btmB/VBQSEhJA3y9loUTNmoXxiivNLNz11eHSzBrwyboUhE7tGQ9ajuDORicQtCehPY5RvFYKATm0VholL1JBQQHvw9MtH3pE+91330VychIOnojnfQTaIJKmm0JqmvmWk2MAcoLXuo3laVpWbgH27dsDWral10z5dxWuuQbFixUH3cCmp/3o37KtB7BgUxRy+U4c8N2Ulfr5HluWdzcykHw5dEv3Ld//jm4/HeXuh57x6TFhGUYt3MxPAlMrJeqQzycMPdx5LjldPxLerVs3Ljv9jAD986ZhlUkGRLcYFOhDOJkE0b+VF4HaEXzstiRPIor6+F08UigJHaJEnTArKxP0eNRNN92Ev//j75g5axa3ClNX7+A1eprbm2md1Fp1SLT2Z+qEEl1YOXr0KDuS/So7Pflfp86zPDijMcnCTdF4ouVAvgAzbtFW1mT0cdqBpNbH7HOQ0fmIfWHvMzibYnItnm4905vNdKGGjq+Vb9Sbu506HYYirP9M9Ji4DP1mrEafySv57Sh6EpjeZiSnp+352NhYVKpcia/FP/zww0pZv4P+bXf7Xd5HUI7j8hSOkD8cP3acf6Hlumuv4xH0+fOJiDl9jvcPaABGm0UycKQ1BlrAearNIH5ZlR7lSohP4L6Wlm6pNtEPftz917sR0iQEBw8e4JPBdGH1+S/oWZ2+PP6gBy/TsnL5xlPdL9QpJZFBU0kZf5ATeuVzyyGzjWaRPDsJn76aZwnzN+zjk873N+3Dq6TUWtzfuA/+0bAP7v7wO9zbqBcvQdMaw/nULF5JOBp7FC+99BJKFC/Bm1ErV650tQZqZ9LxDb8KNUbqWDCEjy6tjkPQLUJgUXZyG3bEBUCJlymSpz+RUlrenpWZiVmzZ+NPN/0J9I7CxIkTkZ9XgLV7YvHal2N4HKBaBeUU9Nxtr8kr+F5AclIyP8dPv7H0TO1n0OObHli48Cf+MRA6EUVliT4Wz0031Xpq8is06o0vRi3g7iExJR0vd1aOoC7aqLGBWWgyYwVZuiaazCzoKtsjLQfwKWpySnocg84mvNRpFJ7rOIJvY73WdQya9ZuB/jPXYvXuIzy9lF9xWb58OWo+/DDfayhWvBh69frOWXHUihJAzGbFA6MuV/+SITuC7XUqI8vCDGqzur2Vc7F4XVQR4RTYMr5FYZB+xeXjhg1Bv7Ly/PPPYd/+vcjIycHsdftQp91QVGhKL6XTw9ZqOffQqQSecw/+fghCmjQGKZRfLLXk0wMaNPB87ctx3ExTzaYHMz7sPZmvzpNgOo1MdxXoLKNsUJHB9QAxyPsMymnUBZonWg/AsPkbkZZJT+0X8DI6/dYEvYSSkpqJ3DynMjjfT/stu3ftQmhoGMreUJZ/XYYeKe8XGclT6P+E/sn+1sjEGJv1advXa7kAcWLXSVwRP7OXnEsHVNau5h/EKnvjn9C6VWskJ6UgNSML8zfuw7s9JqDOZ8Pw1djFvLdAOc6dOw+vvf4a5s//kQXQAs6m6GOYsHQ7vhj+E+p+MRIVw1RXQFvc1M20GDSbTwnRS6lUhoSkNNT5fBTfUBLjyhK3mj2YdQTTStBiFLUU6vxC7XZDMWnZDmTl5CLx/Hn+2QHeVHSUQXsrp06fwsaNGzF69Gi88847uKVcOXYA6soeeKACTzNzctUdTU7mVZBfhT6MK4kr4mP1m5emjyzYxWtjrBwdtE2lZCoehCj5suLtlAKbISdtzAwdOhRlb7yBf9mla9euoPECSaBnaOLOp/KLrZRyxfLleOyxx1CxYkUsWbqUeeh1sm8nreA++LE2g3kQ+EibQbzr2CxiBuas34vMLPX2QHJKEl8vS7iQgtrt1fX8y3mfQcYTtA7xQocRfP4gLT0N3/bsyb8YV6NGDTxdqxYefVyV8a7/+QtKl7kWReUHy64pwi+tduzwOY4dU4dTRFWiURWnr3V05Q40u0IHIQrXJehfn1nkrJz8JL2EQdBCvmjoSk8RH0KhTp08hc8++4zn03/6003cXdDqHD06QRzkGGPHjkXlypV5ikiLNE2bNuVfiJNC0Asqh08l8v1Dui5/5lwSX41nekEB5s6egyaNQ7jmxp1PAb2hQAblAaI1CJTpJDkI0agVkPcZhKYe51ZT2IS4eDRt0pT7e9fPAjq/SEfN/+23345naz+D8PBIns3YvwvJKnHpRb7Ioy6DvmTIlS1FfAhr+ugmemRI/+40qR5qoVEj09T+gAkcxhPHT+DTtm31D3TRL77Rj27SayL0A1mlnR/uKlWqNM+76ef06G7AsGHDeRqZy4NEI4GyTUtLx6JFC1H/3Xc4DS1tZ6Sn48y5ZH3bSXcFno0nrv1yLsFF68ddSoOek7Ah6hgOHozBu++9hz//+c9o8H4DdOzYEZ07d8Z3vb7D2LHjsGrVSpw4dRLe8umSGkVplAZ+B/0H6Boc8Sw8eOmCUxyPI4agTA4hiGPRrSgaPP3jH3/Xv9Ymv9dIN6pfevFFTJ02FbQIQ4qnGkivlpa7pRx3Ge83eB8tP2mJFs1a8HXzf/zjXn7nUWrq07Vr8YEYupFcy2kR1PqBGROo8wlq1kA06Q4EpvONNHhtGjENe46c4n2Fui/X5dNH9Ity/O1X+P1sgd9Z/7prUMK1D2rA/S3GgMH4VULFJ2klDJypRbVAOusfG3sEI0aOBP320zvvvovP2n+GBT8uQKJzYTQrM4t/KY1+vZV+LEx+NNT+lVZxIGo56LwgnaB+6slaSE1LA3UNz+onfOT0kziD+30EtbZgtqvZcULD0e77eXwohX5olH6rkjaZNmxY51KP9Vm2ehx1WFQLFF25UU5MkBIKsw4VQcgSeshOVFFNiyDcEupUfkCxBGf0U7wYE9eQABL6xWqMYjGMdIGUnqChx7+pSSanebnuy6hbry7/ity33/YE3S+knxqmn/598sknkJKcDLrt9CzNGmjzSQ7DyDjB2aqmWYTdGpADiFPQ+KHHuGU8+5g7dy6PXeh09sZNmzwrr6as6iNMXEMCSKi/1g8oluCMfooXY+ICeRaUSKiQKLRgC5SiCUrFJSahcLlDTWVAxywmwVFowRYozIJScYlJKFwmpB8Df7hmTd4RTDp/AWeTUnnFUT31p5zBXk+QRSQOLQeRTTB667Hf9DVIzczE+PFj+Vdf69Wri+3bt5uiG/EM6dIxoGMWl+AotGALFGZBqbjEJBQud6ipDOjY7/Q+gqd+0PfpIngK5C62iWl+g3IryoVXEbNQpgaqiYmJeOKJJ1Gjeg1+1Isuwr7caRQqhZkNLrWKaY6wUQtgWgGCndXGsEg82WYgRvy4Cckpqfy71vSzxu/Urw8+k0jfLIO8P8j3axUF0L9aWdQclm6NqWxqQFiMJN8toWYWBo1wAy6yjmjAzRwgJpwiV0LNSh9eUIDkpCT+vcXKlSvxHsWFtEx+io8Wm8Tg1EWorsDgpGtQTqIcg/Y8nm8/DFNW7ca5pCR89dVXuPHGm9C4SWMcPnwk0PagLo4XkPIzXkc04GX3xYVTvltCzSgMGuEGiOzrGlQad0oXzifFnak/ZvJiyPZGP7PjfiYNsfwa8skR6ModjezvK38/6B4m/dAG/eIsnYgmRyBDS/+vHCPw+wxEo+7k1a6jsGhLNM4mnEWr1q1QqmQJtG3blrfX7dZAPvM/+f1aj0H073EEywAa1AB/jx0Tn2CcTZAv12GhRM0lJncLcqe1Y5cjnwyTk5uDt958E3f/9X9x7PgxZObl4cNeU9RvTjqLRnbLoGCnZXDGCMpR1CUbOhRD5w9iDh9Bg/caoPS1pdGjZ091Z8H6Ktd3ufDeiPV1GtSAWy1UQRwSB242T8aFEpnX4wjuIheeXFEL5zHl8XJzPEBiG2XDJieBFLVwHuEFn3Kmr2v40Ud8TvJIbCxvENE7iXRdno3uLBhJFyBGV0fXZVqpug7a0g4Jn8bP5NHgkGYot952Gy+T0yzG+89bWo4HKLyNsmFvfmKpwnlMKsVnuBkyUdM1WDiTmiFZEbQ4NKgBXxoPwopKGgkVyR2z2PVAy+LQoAbsBLoz8SA52q5dW36jYf/+fVyj2g+fzy+lG6PLGEEMT8vPNHh0TzFpE6r9sHk4kXAey5Yt54Wk8uXLY9as2cjLs99T9pZCyiyhortjdprfR//uBSWSr0ukAbtULtjNIQV2WFxE0zFJc2YycjH+5vL79AlHiRIlQQtAVOLvpqxwbkVTF6CMTa2D7EbqrsKaPdDZBvox897TViE1IxvTpk3Dfffdi6dr18b69RvUp7k+64/z/cH0b3UNrpLrekiWcVOMCYMRvPwSV6H918rLk5mRaiCbm2HJ2EPwoiVO4Yzp03gfY/yEiTyToF+QpfcXZVoohi/sfQSaMdCby1OWbeel6oiISN5QahoSwsfORJ4US+IqtP8KB4XCpXDmqw1kczPsTqLJXrTEVWj/1UlU1yBe4hIpqXURrQwsGn+AycDkLCV18XrITtQkt5h9oELwX4t2ufJpBZKWo+nFeMpm1c4Y53bVpb+PQE/30KNcNFA8ffoUWrVsyVvnkRGR/Eye+UrTEhicH/o9v98vXQ06rRbBw+JSNtFshOMyNkont9xJ0zXgZGPFdToP4GOxEVcuPy01DY8+UhN169XjdxLOp2TwTWz6QU5pDXhwyDuOamFJppQU0kknumz75bgl/LbDhk0b8dzzz+Gxxx/jk1J0AVKX1A/8x79fFU4XTCvdcgRFtFk0rAFJZyEYVHH6a1FcMcFLKDmZUFFsuoY1INwWgkEVp78WxRVjWoG6e9mlSxd+x2nvvr3IyyvAuCVb8GCTXny1joxNC0i8puB5n4Hea6A1h3e7j+eXVekUdv9+/fluxqdt2uD0mTOFyqfSu8sn32MoNl3DGhB+C8GgitNfi+KKCV5CyUlCdgRN1IBDljbLztLLIzl58QHjgnRCd+D9CjNR/pXlr127hk8Mt2rVmktPR9Y+7jsVDzQyS83cOjjnEGhwSDeqaNuZzh+s2hXDx9B//vlnvPDCC7zZNH/ej+7yy6e69CNI94cL1mPF3+z7dUGtYpgWwTK6lJ1CKaSENk1gQzOQ0CRkio9sIX5H+XQohX6L8uabbwI9b0c/8H3oeBw+6j0F9EwunXGkCzYS0u8yvPHVOH6HmR7SpH+0k9no40Z8J6NT5078U8dGW/LVJvwjfb+nVBw1jmCo/u+x7GWz+RkDYdwpOMZjqKCZ+jMJyuon+DFu+Ty6KADGjR/Hv5pCDkEXZCgd7T3M2xCFL8csRushc9F5zGKMXrgFP0cd55tJlFNebi62b9uK+vXfwbXXlsbb9d9GdFS0FnIx+f/p7w8m3+0I3kFukFoa6KuVAjxqkCiH9Mc9yBOynZ8L9xvKz8jIwGtvvI6iRa9B9erVsIHm/4V8P51Gjo6Kwtdff42///3vKF2qFF5/7XW15axbTlfpjUMzmv78cb6fdG6XVjmCjXGs4kZZMQvUBrxSQPKS0MrHjbJiFmixXxFI5yPpxDFdjyt7Y1k+xEIXbLZt24YDBw9ix44d/Hj2l19/ybeRbrm1HB+Lo5/d6dylM1+kuSLBkki+RULBe4zkMlkAXivZ5YGSl/s2tJ2HcFi4ACimMt4ialAD2vMMxvVplhABbU4HFwD1a8ine4dv16+PYkWLqrOPRYvyEvTNN93E19nlUm2JosXwl7/cxW8YrFm92jxqweWyCqdBDfyhv180/h97H0EKwM2l0ZlWmqEbp7HYNJ+Ns9MY2OawYeEoQHZ2DmbOmKFaB7l7QPcoixThnxWoW+8VHlPQRlVeXh4nlJwklNz8oc1hw8JJB1gENt9qMAZnsf2q30/yrTGCI4aDACI1SgN2WS8Z1qm9/bF8GjNoLtNIapQGLlmmzahTX5UvGmf1WI5gq8t4ocZ6FOf3Yq1ik5hRzgBJZ0SAxevCm4iP46p8l9Z+bf1rR/CZy5Zk7KMhH7+mECBmlNAhSlRCzUcpNFIxX5Xv0qg34tOXi0F0KaFDlKiEls7/4+8jWGXRn6LLSS5lOYSN18yeb9R4D7MnymyMC0CwUf8t8nWLoBRoq4AwdtyGHXUHQEkaRfK0504y1+hIcBx6M7TjNnxVfkB1WcjL1T87gu31ypCW0hnU2QZwDYvXRXWMRQGxWDXboqiiu2jMbFg4eyXDQ3GkKZpKYMMmi6vyL65/1SKw/pQSNRhEp5Z6XSCx6ySuiIuNIz4yJ1SpNaii/sRBMMSuk7gi/gQ+MidUqTWoov7EQTDErpO4Iv4EPjInVKk1qKL+xEEwxK6TuCL+BD7yH+l9BFNc/TnOpzlxd6DZFToIUbi4h3J4GCdwoCGX0IiRYCfuDiRnhxqEKFz/H8jXZxb5U5zvkfJLGAQt5IuGrvQU8SEclAtvsg2CNgwXgVzpKeJDXJVvBosu5Xg0K314kLGfh9sVNdkGqn0Wq2G0kA54Vb5SxG+of3Mb2qt+Vn5w6wSnWC1qUCaHUNiHXZXvbbpcFgqqWuIiovx3pZKIX/+6a2CWALm7USaDYPxKlOKTtBJKMQI1zcHyc6d1YoKUUGcsgCIIWUKhXpWvNaGdzbQIoi0JbV4PrFiCM/opXoyJa0gACT0y7ahiCc7op3gxJq4hASS0BXpgxRKc0U/xYkxcQwJI6JFpRxVLcEY/xYsxcYHMGEFLEhKFFmyBwiooFZeYhMLlDjWVAR2zmARHoQVboDALSsUlJqFwuUNNZUDHLCbBUWjBFijMglJxiUkoXO5QUxnQMYtJcBRasAUKs6BUXGISCpc71FQGdOy/630ErRJ7bOJRiObxAEZlNkGwEto0e3ncM1D+A8pXK4t2+fU3acCmBoSFUw/uBSHc3rjgndBF1hENeLj9UeG8Kl/pRvSgNSUK0gg3QGRf16DSuFO6cD4p7kz9MZMXQ3Zt8DM7jaFJQyxX5RstFLZUH0CdWns6hyD6/3+l+K4ySGdzEgAAAABJRU5ErkJggg==;" parent="1" vertex="1"><mxGeometry x="252" y="419" width="44.1" height="38" as="geometry"/></mxCell><mxCell id="195" value="Analytics Cloud&lt;br&gt;&lt;font style=&quot;font-size: 12px&quot; color=&quot;#b3b3b3&quot;&gt;Visualization&lt;/font&gt;" style="rounded=0;whiteSpace=wrap;html=1;fontStyle=1;sketch=1;fontFamily=Architects Daughter;fontSource=https%3A%2F%2Ffonts.googleapis.com%2Fcss%3Ffamily%3DArchitects%2BDaughter;align=left;spacingLeft=46;" parent="1" vertex="1"><mxGeometry x="524" y="131" width="145" height="60" as="geometry"/></mxCell><mxCell id="211" value="IAM&lt;br&gt;&lt;font style=&quot;font-size: 12px&quot; color=&quot;#b3b3b3&quot;&gt;Access Management&lt;/font&gt;" style="rounded=0;whiteSpace=wrap;html=1;fontStyle=1;sketch=1;fontFamily=Architects Daughter;fontSource=https%3A%2F%2Ffonts.googleapis.com%2Fcss%3Ffamily%3DArchitects%2BDaughter;align=left;spacingLeft=40;spacing=0;" parent="1" vertex="1"><mxGeometry x="368" y="693" width="156" height="60" as="geometry"/></mxCell><mxCell id="219" value="" style="sketch=0;points=[[0,0,0],[0.25,0,0],[0.5,0,0],[0.75,0,0],[1,0,0],[0,1,0],[0.25,1,0],[0.5,1,0],[0.75,1,0],[1,1,0],[0,0.25,0],[0,0.5,0],[0,0.75,0],[1,0.25,0],[1,0.5,0],[1,0.75,0]];outlineConnect=0;fontColor=#232F3E;gradientColor=#60A337;gradientDirection=north;fillColor=#277116;strokeColor=#ffffff;dashed=0;verticalLabelPosition=bottom;verticalAlign=top;align=center;html=1;fontSize=12;fontStyle=0;aspect=fixed;shape=mxgraph.aws4.resourceIcon;resIcon=mxgraph.aws4.s3;" parent="1" vertex="1"><mxGeometry x="969.57" y="308" width="30" height="30" as="geometry"/></mxCell><mxCell id="223" value="" style="sketch=0;points=[[0,0,0],[0.25,0,0],[0.5,0,0],[0.75,0,0],[1,0,0],[0,1,0],[0.25,1,0],[0.5,1,0],[0.75,1,0],[1,1,0],[0,0.25,0],[0,0.5,0],[0,0.75,0],[1,0.25,0],[1,0.5,0],[1,0.75,0]];outlineConnect=0;fontColor=#232F3E;gradientColor=#945DF2;gradientDirection=north;fillColor=#5A30B5;strokeColor=#ffffff;dashed=0;verticalLabelPosition=bottom;verticalAlign=top;align=center;html=1;fontSize=12;fontStyle=0;aspect=fixed;shape=mxgraph.aws4.resourceIcon;resIcon=mxgraph.aws4.lake_formation;" parent="1" vertex="1"><mxGeometry x="972.4999999999999" y="382" width="30" height="30" as="geometry"/></mxCell><mxCell id="222" value="" style="sketch=0;points=[[0,0,0],[0.25,0,0],[0.5,0,0],[0.75,0,0],[1,0,0],[0,1,0],[0.25,1,0],[0.5,1,0],[0.75,1,0],[1,1,0],[0,0.25,0],[0,0.5,0],[0,0.75,0],[1,0.25,0],[1,0.5,0],[1,0.75,0]];outlineConnect=0;fontColor=#232F3E;gradientColor=#945DF2;gradientDirection=north;fillColor=#5A30B5;strokeColor=#ffffff;dashed=0;verticalLabelPosition=bottom;verticalAlign=top;align=center;html=1;fontSize=12;fontStyle=0;aspect=fixed;shape=mxgraph.aws4.resourceIcon;resIcon=mxgraph.aws4.quicksight;" parent="1" vertex="1"><mxGeometry x="533.56" y="146" width="30" height="30" as="geometry"/></mxCell><mxCell id="229" value="" style="sketch=0;points=[[0,0,0],[0.25,0,0],[0.5,0,0],[0.75,0,0],[1,0,0],[0,1,0],[0.25,1,0],[0.5,1,0],[0.75,1,0],[1,1,0],[0,0.25,0],[0,0.5,0],[0,0.75,0],[1,0.25,0],[1,0.5,0],[1,0.75,0]];points=[[0,0,0],[0.25,0,0],[0.5,0,0],[0.75,0,0],[1,0,0],[0,1,0],[0.25,1,0],[0.5,1,0],[0.75,1,0],[1,1,0],[0,0.25,0],[0,0.5,0],[0,0.75,0],[1,0.25,0],[1,0.5,0],[1,0.75,0]];outlineConnect=0;fontColor=#232F3E;gradientColor=#F34482;gradientDirection=north;fillColor=#BC1356;strokeColor=#ffffff;dashed=0;verticalLabelPosition=bottom;verticalAlign=top;align=center;html=1;fontSize=12;fontStyle=0;aspect=fixed;shape=mxgraph.aws4.resourceIcon;resIcon=mxgraph.aws4.cloudwatch_2;" parent="1" vertex="1"><mxGeometry x="1095.0700000000002" y="708" width="30" height="30" as="geometry"/></mxCell><mxCell id="233" value="" style="sketch=0;points=[[0,0,0],[0.25,0,0],[0.5,0,0],[0.75,0,0],[1,0,0],[0,1,0],[0.25,1,0],[0.5,1,0],[0.75,1,0],[1,1,0],[0,0.25,0],[0,0.5,0],[0,0.75,0],[1,0.25,0],[1,0.5,0],[1,0.75,0]];outlineConnect=0;fontColor=#232F3E;gradientColor=#F54749;gradientDirection=north;fillColor=#C7131F;strokeColor=#ffffff;dashed=0;verticalLabelPosition=bottom;verticalAlign=top;align=center;html=1;fontSize=12;fontStyle=0;aspect=fixed;shape=mxgraph.aws4.resourceIcon;resIcon=mxgraph.aws4.identity_and_access_management;" parent="1" vertex="1"><mxGeometry x="373" y="707" width="30" height="30" as="geometry"/></mxCell><mxCell id="243" value="&lt;font style=&quot;font-size: 12px&quot;&gt;SAP Datasphere&lt;br&gt;&lt;/font&gt;&lt;font style=&quot;font-size: 12px&quot; color=&quot;#b3b3b3&quot;&gt;Data Catalog&lt;/font&gt;" style="rounded=0;whiteSpace=wrap;html=1;fontStyle=1;sketch=1;fontFamily=Architects Daughter;fontSource=https%3A%2F%2Ffonts.googleapis.com%2Fcss%3Ffamily%3DArchitects%2BDaughter;align=left;spacingLeft=46;" parent="1" vertex="1"><mxGeometry x="130" y="695" width="156" height="60" as="geometry"/></mxCell><mxCell id="244" value="" style="sketch=0;points=[[0,0,0],[0.25,0,0],[0.5,0,0],[0.75,0,0],[1,0,0],[0,1,0],[0.25,1,0],[0.5,1,0],[0.75,1,0],[1,1,0],[0,0.25,0],[0,0.5,0],[0,0.75,0],[1,0.25,0],[1,0.5,0],[1,0.75,0]];outlineConnect=0;fontColor=#232F3E;gradientColor=#945DF2;gradientDirection=north;fillColor=#5A30B5;strokeColor=#ffffff;dashed=0;verticalLabelPosition=bottom;verticalAlign=top;align=center;html=1;fontSize=12;fontStyle=0;aspect=fixed;shape=mxgraph.aws4.resourceIcon;resIcon=mxgraph.aws4.lake_formation;" parent="1" vertex="1"><mxGeometry x="140.9999999999999" y="710" width="30" height="30" as="geometry"/></mxCell><mxCell id="245" value="&lt;font style=&quot;font-size: 12px&quot;&gt;Metaplane, ...&lt;br&gt;&lt;/font&gt;&lt;font style=&quot;font-size: 12px&quot; color=&quot;#b3b3b3&quot;&gt;Data Quality Monitoring&lt;/font&gt;" style="rounded=0;whiteSpace=wrap;html=1;fontStyle=1;sketch=1;fontFamily=Architects Daughter;fontSource=https%3A%2F%2Ffonts.googleapis.com%2Fcss%3Ffamily%3DArchitects%2BDaughter;align=left;spacingLeft=46;" parent="1" vertex="1"><mxGeometry x="854.5" y="697" width="156" height="60" as="geometry"/></mxCell><mxCell id="246" value="BYO" style="text;html=1;strokeColor=none;fillColor=none;align=center;verticalAlign=middle;whiteSpace=wrap;rounded=0;fontStyle=1;fontSize=15;" parent="1" vertex="1"><mxGeometry x="849" y="712" width="60" height="30" as="geometry"/></mxCell><mxCell id="247" value="SAP Data Marketplace&lt;br&gt;&lt;font style=&quot;font-size: 12px&quot; color=&quot;#b3b3b3&quot;&gt;Metrics&lt;/font&gt;" style="rounded=0;whiteSpace=wrap;html=1;fontStyle=1;sketch=1;fontFamily=Architects Daughter;fontSource=https%3A%2F%2Ffonts.googleapis.com%2Fcss%3Ffamily%3DArchitects%2BDaughter;align=left;spacingLeft=46;" parent="1" vertex="1"><mxGeometry x="961.5" y="445" width="156" height="60" as="geometry"/></mxCell><mxCell id="248" value="BYO" style="text;html=1;strokeColor=none;fillColor=none;align=center;verticalAlign=middle;whiteSpace=wrap;rounded=0;fontStyle=1;fontSize=15;" parent="1" vertex="1"><mxGeometry x="956" y="460" width="60" height="30" as="geometry"/></mxCell><mxCell id="235" value="&lt;font style=&quot;font-size: 12px&quot;&gt;SAP HANA&lt;br&gt;&lt;/font&gt;&lt;font style=&quot;font-size: 12px&quot; color=&quot;#b3b3b3&quot;&gt;Distributed Query Engine&lt;/font&gt;" style="rounded=0;whiteSpace=wrap;html=1;fontStyle=1;sketch=1;fontFamily=Architects Daughter;fontSource=https%3A%2F%2Ffonts.googleapis.com%2Fcss%3Ffamily%3DArchitects%2BDaughter;align=left;spacingLeft=46;" parent="1" vertex="1"><mxGeometry x="524" y="371" width="310" height="60" as="geometry"/></mxCell><mxCell id="236" value="" style="sketch=0;points=[[0,0,0],[0.25,0,0],[0.5,0,0],[0.75,0,0],[1,0,0],[0,1,0],[0.25,1,0],[0.5,1,0],[0.75,1,0],[1,1,0],[0,0.25,0],[0,0.5,0],[0,0.75,0],[1,0.25,0],[1,0.5,0],[1,0.75,0]];outlineConnect=0;fontColor=#232F3E;gradientColor=#945DF2;gradientDirection=north;fillColor=#5A30B5;strokeColor=#ffffff;dashed=0;verticalLabelPosition=bottom;verticalAlign=top;align=center;html=1;fontSize=12;fontStyle=0;aspect=fixed;shape=mxgraph.aws4.resourceIcon;resIcon=mxgraph.aws4.athena;" parent="1" vertex="1"><mxGeometry x="534.561794871795" y="386" width="30" height="30" as="geometry"/></mxCell><mxCell id="147" value="SAP HANA Cloud&lt;br&gt;&lt;font style=&quot;font-size: 12px&quot; color=&quot;#b3b3b3&quot;&gt;Column-based In-memory database&lt;/font&gt;" style="rounded=0;whiteSpace=wrap;html=1;fontStyle=1;sketch=1;fontFamily=Architects Daughter;fontSource=https%3A%2F%2Ffonts.googleapis.com%2Fcss%3Ffamily%3DArchitects%2BDaughter;align=left;spacingLeft=46;" parent="1" vertex="1"><mxGeometry x="521.5" y="447" width="312.5" height="60" as="geometry"/></mxCell><mxCell id="224" value="" style="sketch=0;points=[[0,0,0],[0.25,0,0],[0.5,0,0],[0.75,0,0],[1,0,0],[0,1,0],[0.25,1,0],[0.5,1,0],[0.75,1,0],[1,1,0],[0,0.25,0],[0,0.5,0],[0,0.75,0],[1,0.25,0],[1,0.5,0],[1,0.75,0]];outlineConnect=0;fontColor=#232F3E;gradientColor=#60A337;gradientDirection=north;fillColor=#277116;strokeColor=#ffffff;dashed=0;verticalLabelPosition=bottom;verticalAlign=top;align=center;html=1;fontSize=12;fontStyle=0;aspect=fixed;shape=mxgraph.aws4.resourceIcon;resIcon=mxgraph.aws4.s3;" parent="1" vertex="1"><mxGeometry x="528.9871794871794" y="463" width="28.076923076923077" height="28.076923076923077" as="geometry"/></mxCell><mxCell id="239" value="&lt;font style=&quot;font-size: 12px&quot;&gt;Analytical Model (SAP Datasphere)&lt;br&gt;&lt;/font&gt;&lt;font style=&quot;font-size: 12px&quot; color=&quot;#b3b3b3&quot;&gt;Transformation&lt;/font&gt;" style="rounded=0;whiteSpace=wrap;html=1;fontStyle=1;sketch=1;fontFamily=Architects Daughter;fontSource=https%3A%2F%2Ffonts.googleapis.com%2Fcss%3Ffamily%3DArchitects%2BDaughter;align=left;spacingLeft=46;" parent="1" vertex="1"><mxGeometry x="523" y="298" width="310" height="60" as="geometry"/></mxCell><mxCell id="241" value="" style="sketch=0;points=[[0,0,0],[0.25,0,0],[0.5,0,0],[0.75,0,0],[1,0,0],[0,1,0],[0.25,1,0],[0.5,1,0],[0.75,1,0],[1,1,0],[0,0.25,0],[0,0.5,0],[0,0.75,0],[1,0.25,0],[1,0.5,0],[1,0.75,0]];outlineConnect=0;fontColor=#232F3E;gradientColor=#945DF2;gradientDirection=north;fillColor=#5A30B5;strokeColor=#ffffff;dashed=0;verticalLabelPosition=bottom;verticalAlign=top;align=center;html=1;fontSize=12;fontStyle=0;aspect=fixed;shape=mxgraph.aws4.resourceIcon;resIcon=mxgraph.aws4.glue;" parent="1" vertex="1"><mxGeometry x="530.9961538461539" y="313.25" width="29.5" height="29.5" as="geometry"/></mxCell><mxCell id="253" value="SageMaker&lt;br&gt;&lt;font style=&quot;font-size: 12px&quot; color=&quot;#b3b3b3&quot;&gt;Machine Learning&lt;/font&gt;" style="rounded=0;whiteSpace=wrap;html=1;fontStyle=1;sketch=1;fontFamily=Architects Daughter;fontSource=https%3A%2F%2Ffonts.googleapis.com%2Fcss%3Ffamily%3DArchitects%2BDaughter;align=left;spacingLeft=46;spacing=0;" parent="1" vertex="1"><mxGeometry x="687" y="131" width="146" height="60" as="geometry"/></mxCell><mxCell id="252" value="" style="sketch=0;points=[[0,0,0],[0.25,0,0],[0.5,0,0],[0.75,0,0],[1,0,0],[0,1,0],[0.25,1,0],[0.5,1,0],[0.75,1,0],[1,1,0],[0,0.25,0],[0,0.5,0],[0,0.75,0],[1,0.25,0],[1,0.5,0],[1,0.75,0]];outlineConnect=0;fontColor=#232F3E;gradientColor=#4AB29A;gradientDirection=north;fillColor=#116D5B;strokeColor=#ffffff;dashed=0;verticalLabelPosition=bottom;verticalAlign=top;align=center;html=1;fontSize=12;fontStyle=0;aspect=fixed;shape=mxgraph.aws4.resourceIcon;resIcon=mxgraph.aws4.sagemaker;" parent="1" vertex="1"><mxGeometry x="697" y="145" width="31" height="31" as="geometry"/></mxCell><mxCell id="254" value="" style="shape=image;verticalLabelPosition=bottom;labelBackgroundColor=#ffffff;verticalAlign=top;aspect=fixed;imageAspect=0;image=data:image/png,iVBORw0KGgoAAAANSUhEUgAAA+gAAAPoCAYAAABNo9TkAAAEtGlUWHRYTUw6Y29tLmFkb2JlLnhtcAAAAAAAPD94cGFja2V0IGJlZ2luPSLvu78iIGlkPSJXNU0wTXBDZWhpSHpyZVN6TlRjemtjOWQiPz4KPHg6eG1wbWV0YSB4bWxuczp4PSJhZG9iZTpuczptZXRhLyIgeDp4bXB0az0iWE1QIENvcmUgNS41LjAiPgogPHJkZjpSREYgeG1sbnM6cmRmPSJodHRwOi8vd3d3LnczLm9yZy8xOTk5LzAyLzIyLXJkZi1zeW50YXgtbnMjIj4KICA8cmRmOkRlc2NyaXB0aW9uIHJkZjphYm91dD0iIgogICAgeG1sbnM6ZXhpZj0iaHR0cDovL25zLmFkb2JlLmNvbS9leGlmLzEuMC8iCiAgICB4bWxuczp0aWZmPSJodHRwOi8vbnMuYWRvYmUuY29tL3RpZmYvMS4wLyIKICAgIHhtbG5zOnBob3Rvc2hvcD0iaHR0cDovL25zLmFkb2JlLmNvbS9waG90b3Nob3AvMS4wLyIKICAgIHhtbG5zOnhtcD0iaHR0cDovL25zLmFkb2JlLmNvbS94YXAvMS4wLyIKICAgIHhtbG5zOnhtcE1NPSJodHRwOi8vbnMuYWRvYmUuY29tL3hhcC8xLjAvbW0vIgogICAgeG1sbnM6c3RFdnQ9Imh0dHA6Ly9ucy5hZG9iZS5jb20veGFwLzEuMC9zVHlwZS9SZXNvdXJjZUV2ZW50IyIKICAgZXhpZjpQaXhlbFhEaW1lbnNpb249IjEwMDAiCiAgIGV4aWY6UGl4ZWxZRGltZW5zaW9uPSIxMDAwIgogICBleGlmOkNvbG9yU3BhY2U9IjEiCiAgIHRpZmY6SW1hZ2VXaWR0aD0iMTAwMCIKICAgdGlmZjpJbWFnZUxlbmd0aD0iMTAwMCIKICAgdGlmZjpSZXNvbHV0aW9uVW5pdD0iMiIKICAgdGlmZjpYUmVzb2x1dGlvbj0iNzIvMSIKICAgdGlmZjpZUmVzb2x1dGlvbj0iNzIvMSIKICAgcGhvdG9zaG9wOkNvbG9yTW9kZT0iMyIKICAgcGhvdG9zaG9wOklDQ1Byb2ZpbGU9InNSR0IgSUVDNjE5NjYtMi4xIgogICB4bXA6TW9kaWZ5RGF0ZT0iMjAyMi0wMi0yMlQxNzowMzo1OSswMTowMCIKICAgeG1wOk1ldGFkYXRhRGF0ZT0iMjAyMi0wMi0yMlQxNzowMzo1OSswMTowMCI+CiAgIDx4bXBNTTpIaXN0b3J5PgogICAgPHJkZjpTZXE+CiAgICAgPHJkZjpsaQogICAgICBzdEV2dDphY3Rpb249InByb2R1Y2VkIgogICAgICBzdEV2dDpzb2Z0d2FyZUFnZW50PSJQaG90byBpUGFkIDEuMTAuMyIKICAgICAgc3RFdnQ6d2hlbj0iMjAyMi0wMi0yMlQxNzowMzo1OSswMTowMCIvPgogICAgPC9yZGY6U2VxPgogICA8L3htcE1NOkhpc3Rvcnk+CiAgPC9yZGY6RGVzY3JpcHRpb24+CiA8L3JkZjpSREY+CjwveDp4bXBtZXRhPgo8P3hwYWNrZXQgZW5kPSJyIj8+5Bqi7gAAAYBpQ0NQc1JHQiBJRUM2MTk2Ni0yLjEAACiRdZHfK4NRGMc/24iYpkguqCWUQjO1uFG2NGpJM2W42d79Uvvx9r6T5Fa5XVHixq8L/gJulWuliJRcyjVxg17Pu6kt2XN6zvM533Oep3OeA9ZQWsnoNS7IZPNa0O91zocXnHXPWGnDQR+dEUVXx2dmAlS1jzssZrwZMGtVP/evNcbiugKWeuExRdXywpPCgdW8avK2cKuSisSET4X7Nbmg8K2pR0v8YnKyxF8ma6GgD6zNws5kBUcrWElpGWF5Od2Z9Iryex/zJfZ4dm5WYpd4BzpB/HhxMsUEPjwMMSqzhwHcDMqKKvmuYv40OclVZFZZQ2OZJCny9Iu6ItXjEhOix2WkWTP7/7evemLYXapu90Ltk2G89UDdFnwXDOPz0DC+j8D2CBfZcn7uAEbeRS+Ute59cGzA2WVZi+7A+Sa0P6gRLVKUbOLWRAJeT6ApDC3X0LBY6tnvPsf3EFqXr7qC3T3olfOOpR9npWfmjQ3JvAAAAAlwSFlzAAALEwAACxMBAJqcGAAAIABJREFUeJzs3XeUXlW9//H3M5NGSAIJPfQOAkE6IlIEREBFiigiXkG8+OOCiorYC6KoiHQEFQuKBUQE7KgUadIJvYVeQggJpE9mht8f38wFc5PJ88yc8+xT3q+1PsvFvS55Zu/T9jl7fzdIkiRJkiRJkiRJkiRJkiRJkiRJkiRJkiRJkiRJkiRJkiRJkiRJkiRJkiRJkiRJkiRJkiRJkiRJkiRJkiRJkiRJkiRJkiRJkiRJkiRJkiRJkiRJkiRJkiRJkiRJkiRJkiRJkiRJkiRJkiRJkiRJkiRJkiRJkiRJkiRJkiRJkiRJkiRJkiRJkiRJkiRJkiRJkiRJkiRJkiRJkiRJkiRJkiRJkiRJkiRJkiRJkiRJkiRJkiRJkiRJkiRJkiRJkiRJkiRJkiRJkiRJkiRJkiRJkiRJkiRJkiRJkiRJkiRJkiRJkiRJkiRJkiRJkiRJkiRJkiRJkiRJkiRJkiRJkiRJkiRJkiRJkiRJkiRJkiRJkiRJkiRJkiRJkiRJkiRJkiRJkiRJkiRJkiRJkiRJkiRJkiRJkiRJkiRJkiRJkiRJkiRJkiRJkiRJkiRJkiRJkiRJkiRJkiRJkiRJkiRJkiRJkiRJkiRJkiRJkiRJkiRJkiRJkiRJkiRJkiRJkiRJkiRJkiRJkiRJkiRJkiRJkiRJkiRJkiRJkiRJkiRJkiRJkiRJkiRJkiRJkiRJkiRJkiRJkiRJkiRJkiRJkiRJkiRJkiRJkiRJkiRJkiRJkiRJkiRJkiRJkiRJkiRJkiRJkiRJkiRJkiRJkiRJkiRJkiRJkiRJkiRJkiRJkiRJkiRJkiRJkiRJkiRJkiRJkiRJkiRJkiRJkiRJkiRJkiRJkiRJkiRJkiRJkiRJkiRJkiRJkiRJkiRJkiRJkiRJkiRJkiRJkiRJkiRJkiRJkiRJkiRJkiRJkiRJkiRJkiRJkiRJkiRJkiRJkiRJkiRJkiRJkiRJkiRJkiRJkiRJkiRJkiRJkiRJkiRJkiRJkiRJkiRJkiRJkiRJkiRJkiRJkiRJkiRJkiRJkiRJkiRJkiRJkiRJkiRJkiRJkiRJkiRJkiRJkiRJkiRJkiRJkiRJkiRJkiRJkiRJkiRJkiRJkiRJkiRJkiRJkiRJkiRJkiRJkiRJkiRJkiRJkiRJkiRJkiRJkiRJkiRJkiRJkiRJkiRJkiRJkiRJkgqkkfoHSJKkzDUWZCiwAjAeWBqYC7wCvLDgP+cDvYl+oyRJWogDdEmSyqUDGAEsCwwDXgVmAT3AEGAdYEdgJ2JgPmrBf69jwX+3hxiYzwEeBX4CXLPgn19t498hSZIW4gBdkqTiaxCD8jcBHwHWI76Idyz4//cSg+sGMBwYDYwhvqB3LPw/tsCrxBf1KcBU4O/AmcCzxCBekiRJkiTx2hT1twC/Ae4EHgdmEwPoVzNMLzANeAC4Etic+BovSZIkSVItNYgv3uOAY4AbgUnEoLzvK3ne6QIeAX4OrISz7SRJkiRJNdK3rnwr4HzgLmAy0E17BuWLyizgVmBb/JouSZIkSaqwvkH5BOBbwA3El+sZtO9r+ZLSAzwMfHDBb5UkSZIkqRI6iCJuGwNfAa4CHiLWf6f8Wr6kPAscBSyVfZNIkiRJktQefcXe1gM+D/yDKMY2ldjuLPXgu9k8DxxNMQfpfS8+RhPbzy294J87cQ29JKlEvGlJkpS9xoIsD+wPvAtYG1iB17Y/K6PJwPHAr4F5iX5DBzEAH73gP9cFdga2IIrrDSVmI8wkZif8ldjnfTpuHydJKjgH6JIkZadBfGHeATiU2K5sZWAsMXCswn33aeD9RIX57jb+e4cBBxDr4ccv+Oe+dfxjgJFEMbsG8cW/l9jnfTrwEnALcDZwDzFzQZIkSZJUMQ1iKvVqwCeAq4HHiC+4RSn2lmV6iT3ZV6c9LxwawPrEev2niS/3rbZrL1F872HgEqIwn5XpJUmSJKkiGsTX252AC4CJxBTwMq0rH2i6gXOBUYNuxf71Dc5vJvZnz+K3zyEG6j8kXqp05Pw3SJIkSZJy0kFMWz+WWNs8iep+Le8vLwGbke8Ad3ViKn0eLz1mENPdP0WsZ5ckSZIklUCDqAq+FfHl+E7gBerxtXxx6SWq0udV1X154gVIVl/OF/c3vECsTz8wx79FkiRJkjRIHUTl9Q8CfyOmRr9C/b6WLy6/Jwq0ZW0p4A/EevN2/B09xPr2vwHbEwXoJEmSJEmJ9e1bviVwHnAH8Cz5fskta/IYoHcSsxRmJvh7uoBHgR/g+nRJkiRJSqYDWA74EK99LZ+BX8v7y5eI7c2y0gAOIortpWz3GcDdwNHkXwhPkiRJkrRAB7As8DmiWrhfy5vLfGA74ot3VpYjquH3FODv6yVeFPyDqD0wNMO/U5IkSZK0QN/e5WsCpwK3AVMoxsCwLLmdWJ+flQ7gdGIbtNR/2+vTRcymOBkYR3v2fpckSZKkyusgpmS/Ffg1sc3WdByYt5pe4L1kW0xtWeAxirukYBpwHbANMCTDv1uSJEmSaqVBFDM7hti66zFgNsUdDBY9twOrkO3X5LcDLxfgb+sv84FHgG8QLxQkSZIkSU1qEAOp44GbiDXFdd67PIt0A7uT/VfkY4BZBfj7mslLwLXA5mS7Bl+SJEmSKqcBLAN8Avg3sb68m/QDuyrkPPL5erw7xf+C/vrMBx4CvgCMzqE9JEmSJKnUGsS2WP8PuJH4Yu7APLs8BmxEPvuDjwHuo3z1AF4ktuXbCL+mS5IkSRIN4ivm/xAD8+dxYJ51uoDdyG+7sQbwZmBqAf7WVjMPuJ+Ypr901g0jSZIkSWXQAEYA7wP+hQPzvNILfAhYqqleGbihwIGUa6r769toMvBH4A34NV2SJElSTfQNzA8kqrI/jcXf8sxXgLG0Zw/wkcB7iO3vUv/dA8lc4AHga7hvuiRJkqSKGwLsAPwZeBIH5nnne2S/pdqSLAXsDDxHebfCmwrcTOwXvzQO1CVJkiRVSAewNnAh8DCx7jf1IKzqOQlYjXyKwi3JEGACsZ1ZWV/C9BCzO64F9idmB0iSJElSaXUSa3ovIKp8z6K8X1XLkl6i4NnKpBmc92kQL2WOpJzr0vsyH3gK+DuwDzFQ94u6JEmSpNLoAFYHzseBeTvTBRxA7HVelEHkaGBz4DLi96Vuo8G07ZPEtmz74NR3SZIkSQXXIPbEPhG4C5iBA/N2ZRqwO/lXax+IBvHCZkdiS7Oy7Zf++rx+oP52/KIuSZIkqWAaxEDlcGIv85dwYN7OPE7sQ57XPudZ6QQ2BI4nXt6kbrfBZB7wBPBP4GBgGRyoS5IkSUqog1jr/EngOuBZ3Mu83XkA2IYozFYWY4lK73dR/uOlC3iGeDH1cWB53EddkiRJUht1AKsCJwN3AC9Q/oFWGTMJ2JpyDgiH8NrX9DIXketLNzAZuBX4PFFBv4z9IkmSJKlERgLHArcR657LvJ64zHkO2I5yDwIbxNf07Yip4mXdku316QFeJGYHfBUYT9pq+pIkSZIqqBPYCbiK+FLowDxdXgHeQrmmtfenE1iLWMs9lfTtm0V6F/wtE4FTgfWpTn9JkiRJSqSvsNfFwKOUe6usKmQO8DZgWH+dVlIjgS2IZRNVWTLRC0wnthv8IbApxS/mJ0mSJKlA+qqy7wX8gShENpv0g526Zz5wEDBi8V1Xeg1gA2IwO5f0bZ5VeonK9Q8BNwCnE9vijcEp8JIkSZIWoQGMBj4N/JvYRmoe6Qc3JgbnBwOjFtt71bIKcRzOJH3bZ51uojDe48DdxEuwnajmrAhJkiRJLWoAKwDnAHcCU3CNeZHSBXyAGJzXaa/tscCBVGdd+uIyD3gMuAl4Bw7UJUmSpFpqEFNsTyeKWb1CTMVNPWAxr2UmsC/1G5z3GUl8XX6c6h+bPcCTwM1UqwigJEmSpH40gJWBnxLbQb1M9Qc/ZcwTwG5Ue815M4YQxeNuoTrF4/pLD7HH/bXEfup1fDEjSZIkVV4Hr1Vkv4f4OuvAvJi5HNgaK3736SCKx/2C+tRF6AbuB34MLDP4JpQkSZKUWoP4Avs+4F/Ag8RWXakHH2bR6SKKo61DbHGn1zSIL8qfISqip+6rdmUm8ULtEJxNIUmSJJVSJ7A58Eui8NvT1GN6cJnzDLAnsCxOa+7PWOCdwLPUawbIM8Q0/43w5Y0kSZJUCsOAjxB7LT8MzKJeg5iy5mJgG6zg3azhRHvVZV16X3qIvdR/Rey84IscSZIkqWAaRLXrLwC3As9Rr0FLmTMLOBJYC7+KtqoTWB84D5hL+r5sZ2YD9wLHAaMH25CSJEmSBq8DWBX4PjGN/UX8Wl6mXA/sTAyw/BI6MH07EnwIeIn0fdruTAHuAA4ClhpcU0qSJEkaiOHA/sA/gPtw//KyZSbwSaKivntdZ2MUsV/6A8Q08NR93M70EjUmbicK6I0lXt5JkiRJykkDGAOcRXwxewqYT/rBgWltIHUFsCOxbZZfzbM1BNgE+Dn12Ypt4eNrClHx/ZfABHwBJEmSJGWqQRSD+jkwEb+WlzWTgHcBa+KgKU8NYtnHh4nBal3PldlEkcjbgPcSs24kSZIkDVAHsDZwCfFFzGrs5cw84EvE18zh+NW8XUYDOwA3Uu+Cia+f/v4mLEQoSZIktaSTGFj8FbgfmEP6h3wzsPwLeCswDtcEpzCEqPL+FWAa9X7B1UvM4vg7UVTPF0WSJElSP4YBhxL7l08Cukj/UG8GlheJrdM2AIailBrAcsAuwHVYt6GLKCz5XdyeTZIkSfo/hgIfA24GnqHe03HLnlnAl4GtcOu0ohkKrAccBTxB/Sq9L5zpwN3AAcTLQUmSJKnWhgPHArcCk3HAUOZ0AecA2+N09iLr2wnhjcCJwFTqPe39VWI3iH8TW/553EqSJKlW+gYIpxJFm17AAUKZ00Nsm7Yrsa7XAlzl0AEsT7xQ+THwMvU+D3uAh4DfEi+YJEmSpErrANbgta3S6j4gKHt6gauBPXHbtDLrBMYT+9L/kJj2Xefzcg5wL7HrwNKDaFdJkiSpcBrENPZDiGre9+NWaWVPL7Gv9P7Aurh2tyqGAKsA2wDfI4r81fk8nUqsT/8sMGoQ7SpJkiQl17d/+XnAHVj4rQrpBW4C3kFs2zUCC8BVUQewIlHk70Tgeeo9UJ8C3AOcC6yAx7wkSZJKokEM2vYDrgIeAGZQ74f7qmQi8B5iYD4cByl10LdGfSvgi0QhtToXcZxBbM32F2LrQGstSJIkqZD61pb3fS1/CvdZrkomAu8iBiRL4cC8jjqIomkTgKOBB6n3bJguopjcDcC2WHtBkiRJBTEcOIj4Wn4/fi2vUp4DDgc2xi/mCh3E7gsbEcsc/gHMI/2xmio9wKPAzcQsAwfqkiRJaru+LdJOI7ZIexq/llcps4HjgM2JwlgOzLUow4F1gHcTxR+7SH/spkoP8AjwT2A1PGckSZLUBg1gWWIbprtwi7SqpQf4DfDmBf3sIEPNGAGsRwzUr6HeL+vmEzOJTgVGD6ZRJUmSpMXp+2J+PrEe2Wns1ctEYF+ijoCFr9SqvuKQ6wJvB26h3mvUXybOqR1x2rskSZIyNAI4BbgTmIkD86rlTqLi/oa4zlzZGEZ8Ud8DmEy9rxmTiIrvbs0mSZKkQRkBfItYYz6dej9kVy29xFZRHyCKfbmXufIwFHgD8AlgFumP+1SZR5xvHyPONUmSJKkpDWLd5CnEVmnTcGBepfQQVbf3Ir6Yj8SBufI3BtiC2HqxzteTycTU//WIaviSJEnSInUSFbsvJdZN+sW8WukB/gTsCaxNTEGW2qlBbNd3CjCH9OdEqvQCzxP7p78DWI44H31RJkmSVHMN4sHwEGKLpIep94NzVXMDMTBfCwfmSm8FYHvgBdKfG0XIHGKbykuJmS3L4td1SZKk2lka+CpwK/AM9a62XNU8Qrx8WR8H5iqWTmJt+jeA2aQ/V4qSbmAq8cL0HcR12i/rkiRJFTYCOBm4G7dKq2J6iaJ+BxIDINeYq8iWI9am+zV90efyS8AFwAZ4HkuSJFXKSsB3iLWPfi2vXrqAPwDvJB7ml8IHepVDg3iZ9FdgPunPpaJmEvARrAIvSZJUSisCBwFnA/eT/uHS5JNZwKnAW4A1cR9zldeawMHEzJ7U51WRMwv4PjBhYM0sSe3hw4ikulsJ2GVBdiaqJau6ZgMnAlcCTxDb4XUn/UXS4I0ENgX+DIxL/FvK4E7gh8AviZ03JEmSlMgqxNemc4EHSP9Vx7Qn3cSa1DcBY7Has6qnA9gMuBanvDebOcQgfXf8aCVJktQW44H3Az8AHiT9A6Fpb3qINbq7AasSVbClqmoQ2wLuBrxI+vOvTHkM+AqwRquNLkmSpMVbDfgAMX3xYdI/9Jk0mUsUf3sbMWAZilQfQ4kCcifgdmytpoe4duzRcqtLUgacziOp7FbntTXkuwDrJPwtSqsXeIhYvnATUXn/OaJSu1RH44gvwj8ktmVzBklr7gPOIJbHzEn8WyTVhAN0SWUzkhiI77kgGyb9NSqCecQ60p/x2qB8JjFgl+quAaxNrE+/ABiT9ueU0kvES46zgacS/xZJkqTkNgc+A/yDmLqcegqkKUbmEHvUb08U/xuCpMUZDmwD3EtM4059/pYx84GLgB1abHtJkqRSWwE4hPgi+hzpH8pMsTIHOI2oyL4iTtuVmtUBbAT8BF92Dja3EPVOrG8hSZIqZyixB/k3gduIqcmpH75M8TIHOAnYDgfm0kA1iN0tDif2AE99Xpc9zwJfIl4sS5IkldbywBHAZcArpH/IMsXNLOBM4M3EceMe5tLgjSamak/EKe9ZZC4xM+GNrXSCJElSSqsBxwBXA92kf6AyxU0PMAk4EtgSv5hLeegENga+R8xQSX3eVyVXA/vhy0RJA2AVd0l5Ww84ANifKFDkdUeL8yowFbgY+C0xdfQZoiL7qwl/l1RlDWJ69gTgN8TWbMrG48BZwI+Al9P+FEll4YOypDxMIAbk+xNb+0iL0ktMC50EXE58dXoemEIM1Ocn+2VS/QwF3kC8HFsHv/5maSZR9PQM4KHEv0VSwTlAl5SFBrAtrw3K10v7c1RAvURBqjuAa4h1r1OI9eWziX2GX+G1pQ+S2q8BbAj8gdg73UF6tl4F/gKcDvw18W+RVFAO0CUNxjbAocRau9US/xYVx1xgMnA/cDdwO/AUMQCfQUz1nE0Mxvsq9ksqjo2BPwNr4LNiXu4nvqhfQFwPJQnwoiupdSsRe78eBmyS+LeoGGYDNxJrx+8hpnPOI4pOzVqQLhyMS2XR4LVB+ur4vJinacAPgbOBJxP/FkkF4AVXUjOGAvsQg/K9gSFpf44S6wVeAC4kHuCnEF/FXyIG6w7EpfJrABsR9SFck56/HuBSYvr7dYl/i6SEHKBL6s9mxKD8A0SVX9VPL/GFp2/t+K3Ai8RAfAqxrtx141J1bQhcQnxRd5DeHrcRA/XfELOPJNWIA3RJCxsLvJ8YmG+V+Leo/eYSVYYvIqatTyemq88k1pDPIqqrOyCX6mN94HzgTTiDqp2eB85dkMmJf4skSWqjDuDtxNv6ucTgy9Qjs4kH7z2JSvwTiCr8Y4kHcV/kSoKo6v5z4oVd6utW3TKX2KZtiyX2kiRJKrUVgROAp0n/AGLan4uJ6aujgGE4fVVS/8YDxxEzaVJfv+qaa4B34ctTSZIqZX1iytwc0j9smPbnIWBXJKl1ywK7ELUpUl/L6pz7gMOJl6uSJKmktiWK/fSQ/uHCtD/zgK8DI5CkgRtCLId5BO8nqfMMcDywTL89JkmSCqMBvIOYFpf6QcKkSS/wC2INqSRloUEskfkR1i4pQl4GTgZW7a/TJElSOkOBDwH3kP7BwaTLH4HNkaR8rAzsTmy/mPp6Z2Km1E+ATfrrNEmS1D5jgE9j4be650ZgJyQpf0OJAeGZWNukKOkF/oD3AUmSklkF+Daxb3XqBwOTLvcB70aS2m9FYBvgQVybXqRcC7yln36TJEkZ2ozYx9q9aeudp4iKvp1IUjodwAbAwcALxJfc1NdHE/kzsOXiu06SJA1UB7Av8E/S3/BN2kwlljRYmV1SkYwkpr2/F3gcB+pFSS9wMbDRYntOkiQ1bQxwLPAo6W/yJm1mAd/ArXUkFdtSxGDwTcDPcY16UdJNFJNbc/FdJ0mSFmd9ovjODNLf1E3azAPOIWoOSFJZdALjif3TPwRMxq/qRcg84vlipcX2nCRJ+l97ENtk+RBjZgOn4x63kspvaWL6+37AJCwoV4TMAk4CxvbTb5Ik1dJI4EjgXtLfsE36zAC+g183JFXPCGBDYDei0KUvo9NnGvAZYFg//SZJUi2sTmyTNpX0N2iTPtOBrwPLIUnVNpRYp3488SU39fXXxFZ5e/XXaZIkVdWbiYqq3aS/IZv0eRH4IhZ/k1Q/ywLbE9fB1NdiE7kcWLe/TpMkqQqGAYcCt5L+5muKkeeB44BRSFJ9dQKbATfhi+uiZC6xa8jIfvpNkqRSWgn4CvAc6W+4phh5CvgYsRWRJAkaxFfbo4CZpL9Om9fuV+/tp98kSSqNLYGfEduZpL7BmmJkElEM0EI8krRoo4EtgDvwa3qRchUxy0GSpNLZg7iRpb6ZmuLkQWIP4CFIkpakAawHHAK8QvpruIl0A2cQdQMkSSq0BrAv8G/S30BNcXI38D6gA0lSq0YCmwN/BLpIf003kReAw/rpN0mSkukEDgYmkv6GaYqT64kXNg0kSYPRANYAdgQew33Ti5Q/AuMX33WSJLXPUODDwMOkv0GaYqQX+D2wA5KkrHUS+6YfAEwl/TXfRF4CPtBPv0mSlKulgGOAJ0l/UzTFyFzgR8SDoyQpXyOATYCvArNJfw8wkUuBFRffbZIkZWs0cDwwmfQ3QVOMTAe+BayCJKndxgFbAXcBPaS/JxiYArynv06TJGmwxgFfI6Zwpb7xmWLkaeDTxEsbSVI6DWB9otr7y6S/P5jIb4Dl+uk3SZJatjJwMjCD9Dc6U4zcQ2yVNhRJUpGMBCYAN+De6UXJ80SxVEmSBmVN4GxgDulvbqYYuQbYByuyS1KRNYB1iDoxM0l/7zCRC3DfdEnSAGwA/AT3WTWRHuASYDskSWUyBngT8CxuyVaUPA28rb9OkySpz+bEWikLzJhXiZkT5xFrGiVJ5dRJVHo/l9hpI/W9xcTLktOA4f30mySpxrYFriD9DcsUIy8B3wBWQpJUFSsBOxBbo/o1vRiZCGzaX6dJkuplE+D3pL9BmWLkSeBYYBSSpCrqBDYCjsLCr0XJHODjWNtFkmptLeBnOJXdRG4FDgWGIEmqg9HAG4F/AfNJfx8y8Fdglf46TZJUPSsCZwDzSH8jMmkzG/gxsA2SpDpqAGsD7wBeJP19ycAU3I5NkmphGeDrOJ3NwIPENPaxSJIUhco2Bc7CInJFyQ+ApfvrNElSOS0FHAdMJf3NxqTLfOC3wG64xk2StGgrAtsDd+MSuCLkQWDrfntMklQaQ4D/JvbaTH2DMenyNPBlYDySJC1ZB7G15nvx5X4R0gV8fkG/SJJKqEHcVB8i/U3FpEkv8DdgPyz6JkkamKWInV6+TFQZT31vq3uuAdbot8ckSYWzF3A76W8iJk2mAt8lvnxIkpSFccCWwPW4d3rqTAfe3393SZKKYAfizWrqG4dJk5uA/wJGIElS9vqqve8DTCP9fa/uuZAo/itJKpjNgMtJf6Mw7c9MosLrFkiS1B7DgDcA3wG6SX8vrHMeB3bst7ckSW2zDvALrLBax9wHHINvziVJ6YwBtgNuIP19sc7pBk7EejOSlMzKwNlERc/UNwXTvnQBvwZ2RpKkYmgAo4Djgdmkv1fWOTdj/RlJaquRwAnALNLfBEz78gTwBWAlJEkqro2JvdNT3zfrnJnAEUvqKEnS4L0feIr0F37TnvQAfwLeCXQiSVI5DAdOweV3qXMpsNwS+kqSNABbAdeR/kJv2pMHgC8CayFJUnntBEwi/X21znkW2GNJHSVJas5KwI9xr9E65AXgdGAbJEmqjlHETiOp77N1Ti9wKjGzQZI0AMOA44BXSH9RN/llNvArYG+suipJqra9ia+5qe+9dc5EYNMldZQk6T+9E3iI9Bdxk096gH8AHwJGI0lSfYwjXkynvhfXOXOAjxOV9yVJ/dgY+AvpL9wmn9wNfAZYDUmS6u0g4EXS35vrnL8CqyypoySpjpYl1h7PJ/3F2mSbx4DvApsjSZJeb2XgCtLfq+ucKcC+S+ooSaqLDuCjxMUx9QXaZJc7ga/ioFySpGYcjjV3Uuc8YOSSOkqSqmwXYiCX+oJsBp8e4FrgWGBtJElSq9YA/kj6e3qd8yCw9ZI6SpKqZi3gt6S/CJvBZQ4xLe/DwApIaputvt9lYSOpug4mth1NfZ+va7qAzxOzPCWp0kYCXycGdqkvvmZgmQb8AjiQ2NNVkiRlbzngZ6S/79c51xCzGiSpkg4BniL9xda0ll5iv9DTgT2AoQt3rKT22ur7XZ6HUn3sATxK+ueBumY68P4l9pIklcgWwPWkv8Ca5tI3ID8D2J94gy+pILb6fldn6t8gqe1GAicD3aR/TqhrLgSWWVJHSVLRHQPMI/1F1Sw+DsglSSqHLYHbSf/sUNc8Duy4pE6SpCIaA1xE+gup+b9xQC5JUnkNAY4DZpP+maKO6QZOXNAPklQKmwMPkf4CaiIOyCVJqp51gb+Q/jmjrrkZWH+JvSRJiR2BFdqLknnAZ3FALklSle0B3Eb65446Zibx7CtJhTMStwIpYnqAS4EdFt91kiSp5BpEpfFJpH/2qGMuxQ8ikgpkY+Ae0l8cTf+5Hng30LHobpQkSSU3DPgYMIX0zx11y7PEbAZJSuoQYnpP6ouiaT4PAkcCIxbRn5IkqfzGAF8HZpH+uaNO6QVOBYYvuYskKVvDgfNIfyE0A89k4EvAOCRJUhWtApwH6/K+AAAgAElEQVQLzCf9c0edMhHYtIn+kaRMrIt7cFYps4AzgbWRJElVtCFwCemfOeqUOcDHifoAkpSb/YHppL/omezTDfwG2BpJklRF2wKXE1OxUz931CV/JWYySFKmhgKnkf4iZ9qTq4C9kCRJVTQB+CXxcj71M0cdMgXYt6mekaQmrAHcRPqLm2l/bgHehSRJqqJ1gR8A80j/zFGHnEdsTSxJA7Y3MJX0FzSTNrcD++E6KkmSqmhV4Hu4M0878iAuJ5Q0AJ3ASbhGyfxn7gIOxIG6JElVtDyxPds00j9zVDldwOeBjua6RVLdLQ9cTfqLV5YXwceAa4HLiEGmb4gHl3uA9+GNRZKkKhoNHE9syZr6maPKuYZYSipJi7Ux8CjpL1iDzSPAMcB4Fv+1dzywE3EDctu4geU+4BBixoUkSaqWpYDDsBZRnpkOHNxsh0iql90p/5Sm64F3M7Avu+sDXyC+sKf+O8qWB4EP4kBdkqSqmgCcjdvt5pVfAMs03RuSKu9IYD7pL06DyXfJbsr1FsDFQE8B/q4y5RHgcGBI600uSZJKYCR+Vc8rjwM7Nt0Tkiqpg6jamfqCNJjMJ14w5GEj4ALK//Ki3ZkEHIpr1CVJqjK/qmefbuBE/Ngh1dIo4HLSX4gGk1nA27JumEVYh9i7sqvNf1/Zcyew1wDaW5IklYdf1bPPzcTyS0k1sRpwB+kvPoPNCVk3zBK8Abguo99ep/wT2GYA7S1JksrFr+rZZSZwRGvNL6mMtgaeJf1FZ7B5gdgGpN0awEcof0G9FLkY3wZLklQHfV/VbyT980fZ8ztgudaaX1JZ7E9MC099ockiR2fcNq1aCfgV6duhbJkPfB9YufUmlyRJJTQBOAu/qg8mzwJ7tNrwkorts0Av6S8wWeQRYGi2zTNgbyeKoqVuk7JlJvB10syCkCRJ7edX9cGlFzgVGN5qw0sqlqHAj0l/Ucky7820hQZvJPBtrPY+kEwBPgEMa7nVJUlSWU0ATqMayy7bnYnApq03uaQiGAdcTfoLSZa5hVgHXkQTsILpQDMJ+ADF7VtJkpS9DmBXYrecF0n/PFKWzAE+js9NUqmsDzxE+gtI1tk1y0bKQQdwFPAy6duqjLkD11hJklRHQ4ilgz/F9erN5i9Y10cqhV2AqaS/aGSdP2fYRnkbD/yW9G1W1lxG7D8vSZLqZzjwbuDXVKfAcV6ZAuw7sGaW1A6HAV2kv1hknR5iCnnZ7EtcOFO3XxkzF/gGsHTLrS5JkqpiJFF/6FLi2SD180lR86mBNrCkfDSAb5H+4pBXfpZdU7XdeOAfpG/DsuYp4OCWW12SJFXNGOCDwJ+wOO+i8pGBN62KzoID5TIUuAB4X+ofkpN5wAbAk6l/yCB0AMcDJxBrrNS6fwEfA+5M/UMkSRIAI4BNiFmOGyz4v3UR26neCfwbeCWnf/dywAHE1/VdiGetuusFDiGWBkhKZARwBenf2OWZ72bWWulth/umDyY9wLnETVmSJLVPBzEYP5youn4n0M2S79u3AUcCS+X421YC/ge4ZsG/M/XzSsrMB94xuOaUNFBLU/2p09OI7eKqZAzwK9K3bZnzEnA00Nli20uSpOasQhRqOwn4J/ElfDD37qnA58h/JuF4Ysbd9cQX5dTPLCkyh+LvfCRVzjLEhSf1BSDvfCarBiugw4kpYKnbuMyZSExrkyRJAzcS2An4NHAxsawwr3v3zcBG7fmzWB34JHBTjn9PUTMD2HbwTSipGcsDt5P+xM87TxJT+KtsQ+rRl3nnIuImLEmS+tcBbEprU9Wzzmxgt7z/0IWsCRwH3DrI316mTAU2y6LxJC3eeOBe0p/w7chhGbVZ0Q0DTiV9e5c9s4AvU/2XOpIktSLrqepZZTbppmGvS0y3v38Jv7EKeQ5YL5tmk7SwtYBHSH+ityN3U79qnPsAL5C+7cuex7A4iiSpnpYmpqofB/yW2Ko09X25v8wC3pBLSzSnAexJbNtW5fXqj+NMQylzq5LveqCiZZ9smq10VgH+Tvr2r0IuBlZurfklSSqVvq3GziTNVPUs8m+KUfR1Q+Asqlsf6AFgxcxaS6q5pYktKlKf2O3K1Zm0Wnl1AJ8ltslI3RdlzzRia5dGSz0gSVIxLQfsD5xBFEqtylffIhUFXoYoLPcY6dsl69wBLJtdU0n11AFcSvoTup3ZLpOWKz/3TM8u/wI2bq35JUlKbhywH3A61RqQL5yXKF4NmU6i7a8mfftkmeuJj3+SBug7pD+R25mLs2m2yhgD/Ib0/VKFzAO+BgxvqQckSWqf1w/I76K6A/JF5dAM2i8vmwM/BuaSvp2yyJX4PCQNyIdJfwK3M11YZXJxjiYGmKn7qAp5gCigI0lSamOJCuunUb8B+cK5bpBt2Q7rAleQvq2yyKXAkGybR6q2txID1tQnbztzaiYtV11bU831UCnSC/yIeDCSJKldXj8gvxPoIf09sSiZT3kGjPsAD5O+zQabH2bdMFJVbUisxUl90rYzLxHTutS/ZYHfk76/qpLngfe11AOSJDVvLLAv8RHiDhyQLyllmkk5HPg8sVVc6nYbTI7LumGkqlmOaryRazXHZtF4NfIprPKeZf4IrNlSD0iS9H8NA/YATsEB+UDy9tabPLk1gRtI33YDTQ9R90DSIjSAv5H+RG13HiFuaGrNm4AnSd9/VclMYluVIuzFKkkqjzWAjwKXU909tNuVo1ts+6IYAnyb8tYQmEUspZS0kONIf4KmyAFZNF5NLQf8ifR9WKXcCmzRSidIkmplKLArcDJwL+nvW1VK2WdU7gVMIX07DiTPAqtn3yRSeW1J/YrCvUrsT63BaQCfA7pJ359VSTfwXWBkC/0gSaqu8cARwO+AV0h/n6pq9my2QwpsVeAa0rflQHIXMDr7JpHKZ2ngQdKflO1OL7BtBu2nsDPx9jN1v1Ypj1HO9XCSpMEZQmzJeRIxaEl9P6pLVmumc0qgEziX9O05kPwRl/tJ/JD0J2OK/DKLxtN/WBG4kvR9W7X8akHbSpKqa2XgMOAiYBrp7z11y/Qld1HpfJ307TqQnJlHY0hlcQDpT8IUmYNVs/PSAXwVK8dmnZeADzffDZKkgusAdgBOBG6jvAW+qpIb+u+u0jqGch5bx+TRGFLRrUb99jvvy7cyaD/1b3dgMun7umq5CtighX6QJBXHCsChxMyoqaS/p5jXcnw//VZ2B1O+WlPdwN55NIZUVB3Eg37qky9FXgDGDL4J1YRVKG+hkiJnLvAlopKvJKnYtiBmlt2Ms8uKmqeBpRbTf1WxJ+Xbhm8GMCGPxpCK6HOkP+lS5agM2k/N6wS+STmnVxU99xDTIyVJxdEAtie2QZtE+nuFWXI+ssierJ63Ei/5U7d3K3mS+OAjVdq6lO/kzCr3E5VR1X57AS+S/hioWnqB7wPLNN8VkqSMdQBvAU4HniL9vcE0n/upV9XwAyjfTI5bcOtZVdwVpD/RUuWdGbSfBm514HrSHwdVzDPETVeS1B6dwG7ES9LnSH8fMK2nC3jbwh1bA/9N+rZvNb8jXoRJlbM36U+wVPlnBu2nwRtCFOlzyns++T3V2cdVkopmGDEj7HycFVb2zKbeRci+QPo+aDXfyaUlpISGAQ+R/uRKkR6iSIuK4+1Ewb7Ux0YV8wqxPYlvmiVp8EYA+wIX4P7kVckrwE7oNNL3Rat5Ty4tISXyWdKfVKny08E3n3IwHqu855mbgM2a7g1JUp+liYHAr4lK0qmv5ya7TAG2RhAFDX9B+j5pJa8AG+bRGFK7jae+N5hZwKqDb0LlpBM4gfIVLClLuoCvETNoJEmLNwY4hFjrOpv012+TbZ4EPoVb7S5sKOWrD3QP8RJNKrULSX8ypcoJGbSf8rcb8Dzpj5eq5h5g26Z7Q5LqYRxwGPAH6rvDTdVzJ/AB3MWnP6sAz5K+r1rJhbm0hNQmbyH9SZQqTwOjBt+EapOVgb+T/ripanqAU3CrEkn1tjxRxfpvwHzSX5tN9ukilie4zrx5bybaLXXftZKjcmkJKWedxJvD1CdQquw/+CZUm3UAXwK6SX/8VDWPALs22yGSVAENYjuti4B5pL8Om3zyOPB5YCU0EEeRvg9byTycHagSeh/pT55UuSyD9lM6OxN7e6c+jqqaXuA8XIsnqdpWBb4IPEb6667JJz3An4B34u4lWfgx6fu0lTwBLJdLS0g5uYH0J06KzABWz6D9lNYKwF9IfzxVOU8B+zTbIZJUAp3Au4ArcDZWlfMC8C1gbZSl4cAtpO/fVvIXfDmjktiK9CdMqnwyg/ZTMTSILQJdJ5hvLiTWZUpSWa0NfANnX1U91xHV9oejvKxOvABJ3det5Kt5NISUtZ+Q/mRJkduIt+eqljcTW6SkPr6qnBeIZTGSVBbDgPcCVxJLd1JfR00+mQF8H9gMtctulOuc6gH2zKUlpIwsD8wh/cnS7nQTMwdUTeOAy0l/nFU9lwHjm+wTSUphY2JXiimkv2aa/DIR+H/AaJTCyaQ/BlrJi8AaubSElIHPkf4kSZHTs2g8Fd4nKd9WIGXLdOCIZjtEktpgJPBfxBTn1NdIk1/mEcuudkSpDQNuJ/0x0UpuXvC7pULppJ5TgZ/AN6x1si1W5W1H/o4FeCSltQVwDvHiMPU10eSXx4iaMyugItkImE3646OVnJNLS0iDcADpT4x2pxd4axaNp1JZFvgd6Y+/qmcm8AmskCqpfcYAHyXqyqS+Bpr80kNU298b7zFFVrb90V8lCglKhXEV6U+KdufUTFpOZXUMMJf0x2HVcwOx7lOS8rIxcC7xYjD1Nc/kl8lExf01UVlcQfrjppXMAjbNpSWkFm1G+hOi3bkXGJFF46nUtgQeJv3xWPXMBb4IDGmuWySpKXsSexmXqWq0aT3XELuFuEa4fFYAnif9MdRK7sbt+FQA55H+ZGhnuoi1aRLAKOB80h+XdcidxEsRSRqopYAjiRftqa9pJr/MIrZI2wSV3V6kP55azSm5tITUpGWIi2DqE6Gd+UImLaeq2R+YSvrjs+qZD3wLZ7BIas144JvElkipr2MmvzwJfAYYi6rkTNIfW62kF9g1l5aQmnAE6U+CduYGomK9tCjjgStJf5zWIQ/gdjiSlmxrYvsst8msdq4HDsKlUFU1AniI9MdZK3mC+JAptd21pD8B2pWZwHrZNJsqrEHsmW4BufzTC5xFLDOQpD6dwHuIQVvq65TJL13Ey5dtUB3sSvpjrtX8PJeWkPqxFvUqrHJ4Jq2mupgA3EP647YOeRx4W1O9IqnKlgE+TVwTUl+XTH6ZApxIzFpTvfyE9Mdfqzkol5aQFuNLpD/o25XzM2oz1csI4AzSH791yfnEPsaS6mU9Yo3qDNJfh0x+mQh8GGuQ1Nk44AXSH4utZCq+TFIblW0tyEBzB94MNDhvB54j/bFchzwB7NZct0gqubcClwM9pL/2mHzSS+yF7XVdfQ4h/XHZav5KLIGUcrU96Q/2dmQasE5GbaZ6WwG4jPTHdB3SC5wNLN1Uz0gqk+HAYcBdpL/WmPwyg5iBZu0fLcpfSH+Mtpqjc2kJ6XXOJv2Bnnd6gXdm1WDSAh+lflsTpsojwFua6xZJBTeK2OZ0MumvLSa/TAKOxerX6t/alO9ZajawYR6NIQEMox77iH4zqwaTFrIhcBvpj/E6pAf4Hi5TkcpqBLEzRtnWnZrWcjXwbqADqTmfIf1x22puwa0AlZN3k/4Azzt/x/3Ola+hwEm4drJdeQDYrqmekVQEQ4AjgadJf/0w+WQuUZX7jUitG0LUiUp9HLeaE/JoDOkS0h/ceeYpYr2w1A47A0+S/rivQ7qJmTHDmuoZSSl0AB8glqikvmaYfPI88BVgRaTB2ZryfejoJmp5SZkZC8wj/cGdV6YDm2XWWlJzlgV+Rfrjvy6ZCGzRVM9Iaqf9gHtIf40w+eR24IP4klTZOo30x3areRgL2SpDR5D+oM4r84Bds2sqqWWHAi+T/lyoQ7qILziuBZPSextwM+mvCyb79BI7mOyElI9RlHMm4nl5NIbq6QrSH9B53UAOzrCdpIFaC7iO9OdEXXIrsEkzHSMpc28mioOlvg6Y7DMPOB/YCCl/7yD9MT+Q7J1HY6helgbmkP5gziPHZdhO0mB1Al8C5pP+3KhD5gLHY2FIqV22AP5E+nPfZJ+Xge8A45Ha62LSH/+t5iliBoA0YPuR/kDOI2dk2UhShrYj1imlPkfqkhuBDZrqGUkDsRFwETFrLfX5brLNs8SLTvcvVyqrELWkUp8LreaUPBpD9fET0h/EWecS3HNTxTaKmCaY+lypS2YDnwAazXSOpKasRTxDdJP+HDfZ5n7gw1j4TcXwUdKfE61mPrB5Ho2h6usEppD+IM4y/wJGZNlIUo72B6aS/rypS64B1mmqZyQtzsrAWVR795e65gbg3fgyU8XSoJx1fG7Ec0kD8BbSH7xZ5jpgdKYtJOVvPPBn0p8/dckM4m28pNaMA74NzCL9eWyySy9RLHhHpOJ6A+V8KfjfeTSGqu27pD9ws8rVuPegyu2/icFj6nOpLvkbsFpTPSPV21Dg07hdZNXSA/wSd7xQeZxA+vOm1bwErJBHY6i6HiL9gZtFrgRGZtw2Ugpr4/ZE7cw0Yp96SYu2K3Av6c9Vk116gAtxqzSVz3DgAdKfQ63mgjwaQ9W0MekP2CzyJ1xzrmppAB8nCpulPr/qkt/hG27p9cYDvyL9uWmySzfwC2BDpPLamXLuGLFLDm2hCvos6Q/WweYyrDCq6tqAKDCS+jyrSyYTxZGkOhsCfAp4hfTnpMkm3cQXPLebVFWUcRece3GHKTWh7A/+lxDr4qQq6yReppWxMEpZ8zPc81f1tDNwD+nPQZNNuonr2fpI1TKWeKme+hxrNe/JozFUHeOINUipD9SB5tfEW36pLjYDbif9uVeXPAns3lTPSOW3CrEmOfV5Z7JJN/BTYD2k6no/6c+1VnN7Li2hytiP9AfpQHMB8VVRqpuhRAXT+aQ/D+uQXuBMLECp6hoCHIvV2auS+cBPgHWR6uFq0p93rWbPPBpC1XA66Q/QgeQcXL8hbY1VlduZh4Dtm+oZqTx2Au4m/fllBp/5wI+BdZDqZVPK99Hi6jwaQtUwkfQHaKv5ci4tIZXTcOBkyr1UpUzpBr6JRSlVfisTlbxTn1Mmm+vSz3Aqu+rtNNKfi61mh1xaQqW2POXanqAbODKXlpDK783Aw6Q/T+uSu4AJTfWMVCydwCdwOnsV0kO8ZLEquxRFXZ8n/XnZSq7IpSVUageQ/sBsNnOJ9fKSFm8kcBblevFW5swDPoe1MFQeOxIvl1KfO2Zw6SGK5G6MpNf7L9Kfn62klyj+K/2vs0h/YDaT6cSWL5KasxvwBOnP3brkBpxaqmJbiSismvpcMYNLL3AxsAmSFqUBXE/6c7WVXJhLS6i0yrDH6bM4jVQaiDFEsaDU53BdMgv4H+LhQCqKTuBjxIvu1OeIGXh6gd/h85DUjDdSrro83cDaubSESmcF0h+QS8pDwFo5/f1SXexDvOhKfT7XJVcCqzfVM1K+tgHuJP05YQaXy4AtkNSKs0l/7raSr+TTDCqb95D+YOwvtxAvESQN3lj8mt7OTAc+1EzHSDkYAXyb+CqT+lwwA88fiK00JbVuLDCN9Odxs7kvn2ZQ2ZxD+oNxcbkSGJXfny7V1m7Ao6Q/x+uS3xNrf6V22QF4gPTHvhl4/gxsu3DHSmrZZ0l/PreSzfNpBpXJfaQ/EBeVi3B/YSlPI4l90/261p5MAQ5sqmekgRtJ7AFcpnWX5j9zJfCmhTtW0oAtBTxD+nO72ZyUTzOoLNYj/UG4qJwDdOT4d0t6zVbAHaQ/7+uSXxJT7qSs7QI8Qvpj3Aws/yS2v5OUvSNJf443m0k5tYFK4tukPwgXzlfz/IMlLdIQYgrYHNJfA+qQZ4G9m+oZaclGES+2e0l/bJvWcw3xckVSfoYQRadTn+/NxuUtNTUUmEz6A7AvPcTWRJLSWR+4ivTXg7rkR8DopnpGWrS3AY+T/lg2rec6oh6IpPZ4L+nP+2bzvZzaQAW3J+kPvr7MI04aSek1gI9QrqqnZc5j+PVMrVsGOJ/0x69pPTcSL1YktVcDuI3014Bm8vSC36ua+RjpD75XgRnAHjn/rZJatwpwCemvEXVIL3A6UchGWpJ9iIe31MetaS03A3stoj8ltc+BpL8WNJudcmoDFdj3SH/gTcM1FlLR7U+smU59vahDHgC2a65bVEPjgJ+T/jg1reUu4F2L6E9J7TccmE7660IzOSOnNlCB/Y60B900+P/s3Xe8HUX5x/HPTbkhhYQSSgiQEHovB6QJIggC0kUEpP1EgUtRRKUJiNIRaQKHDlKkW0CQ3jtcEAi9J0ACSUhvJ8nN74/nXLlJbjlld5/dne/79XpesUDO7Mw5szs7M8+wYexXKSJRGABciZJQJRGzgTPRMZMyrz2A0fh/PxWVx7vA3miZqkjaXI1//1BJvBJXBUh63YbfF24CsFH8lygiEduKbGVBzXK8BqxbUatIng0Ebsf/+6ioPD4FDga6t9OeIuJvK/z7iUpiNtA3niqQtLoAny+bBuci2bYQcBYwC/+bV95jJvA79KAfqm3R9pIsxWgsv0+v9hpTRFKjARiBf59RSWwVTxVIWh1N8l+yCWjPuUherAu8jP/NK4R4AVi1smaRHGgE/oy2lGQlvgaORzNdIlnyJ/z7jkri+LgqQNJpDZL9gk1EyY9E8qY78BtgKv43sbzHNOzFqvaz5tvqwKv4f98UXcdk4DQsR4eIZMsv8e9DKol/xVUBkl7vksyXS4NzkXwbBtyH/40shHgMGFpRq0jWHIa9iPH+jik6j+nYSThLtN+MIpIBh+Pfl1QSX8ZVAZJexxL/F2sisElSFyQirnbHEiR539DyHpOAn1fYJpJ+A4F/4v+9UnQes4ArgGXbb0YRyZCf4d+nVBrDYqoDSamFgJHE94WaAWyW2NWISBr0wZLIlfC/qeU97gOWqaxZJKW+hxLBpT3mADcBK3bQhiKSPQfi37dUGj+JqQ4kxfYhvi/UkQleh4iky2rAw/jf2PIeXwP7Vtgmkh6NwHkoEVza4+/Amh20oYhk15H49y+VxiUx1YGk3IVE/2W6K9ErEJG0+jHwOf43uLzHHdhSaUm/1YBX8P/OKDqOB9CRsCJ59ij+/Uyl8XxMdSAp151o9781A4skegUikmYLY8dG6ez0eONLYNcK20R8HIZOPUhzPA18p8PWE5E8WAGYjX9/U2m8Fk81SBZ0w5bb1fsluhbb2y4iMr+1gSfxv9nlPf6Kjn5Km8VQIrg0RzOwQ4etJyJ58m/8+5xq4tV4qkGyZA/gQ6r/8owHDnUor4hkzwHYbK/3TS/PMRLYttIGkVgVgI/x/04oFoy3gD2Bhg5bT0Ty5AD8+51qozmWmpDM6QkcAbxE11+a14FDsMzNIiKVWgS4FMuQ7H3zy2u0AJcBfStsE4newdiJJt7fBcW88TGWxbl7x00nIjmzD9la2t4aL8VRGWmjt6TVWRbYBliOb47z+bAc7wNvOpVLRPJhA2wQubF3QXLsQ+AgbH+tJKMX9gLqYO+CyDxGAacDV2NHQYpIGH6Cbf/K4ku5F9EzkoiIJKwB+DkwDv831XmNOcA52PFeEq8hVLYCTZFcjAV+C/TupN1EJJ/2J9ur9ZTFXURE3CwOXIXOho4zXgPWqbRBpGrbYYNB73ZWWEwEfg/076zRRCS3DiXbg/O5aPWbiIikwCbonOg4YyZwHHZ6h0SjATiJ7D8I5iWmAediL/1EJDyLA3fi3xdFEddGXDciIiI16Q4cCUzA/+aY13gKGFZpg0iHFgHuwb89Fbav/FJgUKctJiJ5tgOWb8K7P4oqjoy2ekRq1x/YDDv+5HAsucN3gOU9CyUiiVsSuALNTMYVk7H9/1KbdYAP8G/H0GM2cD0wtLPGEpFc64O9oPPuj6KOTaOsJJFq9cIeFB/AlmB29EUdDpwMrOxTTBFxsA7wCP43yrzGPcBSFbeGgCUemoZ/24UcLcAdwGpdtJWI5NtGwDv490lRx2x0lLU42hc7l7TaL+5zWAKIAckXWUQc7Iod8eh908xjjAH2qLwpgtVIPmdpshb3Aut30VYikm99gbOBWfj3SXHE8OiqSqRyvYHbqP8LPB24Bfg+SnwkkneNwK/R/vS44gb00rMjy2Ivhr3bKOR4HNi8i3YSkfzbCxiJf58UZ/w1stoSqdDiwMtE/2X+DDgLWDW5SxERB0sARWwJmPdNNG/xKbB15U0RhK2Br/Bvm1DjJewYOxEJ26rAQ/j3SUmEEsRJonpib8Hj/mK3LoFfJJGrEhEPaxPOzTrJaAEuBBaqvCly6zj0IsgrhgO7d91EIpJzrcvZO8tTlacoodwwkrBLSPZLPh24FdgeLYEXyatdgPfwv6nmLd4CClW0Q570B+7Cvw1CjA+wE1x0zxaRHwEj8O+XkozbI6k5kQqtj83MeH3hP8PewCnrq0j+9ASOAcbjf3PNU5Sw0zO6V94Umbcm8C7+dR9ajAQOAXp03UQiknNrAA/i3y95xDYR1J9IxdK0FPU5LIO8HgRE8mUglmlby5KjjeeBVapoh6z6MTAF//oOKb4CfoW2VIgIrAjcCMzBv2/yiPeBhrprUaRCq+H/pW8vPgGOBvrFduUi4mFNwn37HldMBY4gnw8PPYDz8a/jkGICcBK6/4oILAdcSX6PTas0jq23IkWqcTz+X/rOYjyWAX5QXBUgIi52At7Bv4/JUzwADK6mEVJuCeAx/Os1lJgCnAksWknjiEiuLQVcDMzAv2/yjpnY/UgkMU/g/8Wv9MdxLbb3RUTyoSe2UuZr/PuYvMTXwD7VNEJKbUR4CYi8YgJwBnoAFRFYDDgHW5nl3TelJYp11ahIDT7D/4tfTbQA9wJbxVAXIoLGvP0AACAASURBVOJjcewkidCX0EUZtwNLV9MIKXIwmrVJIr4ETsAy44tI2PoDpwIT8e+b0hSfAwNqr1aR6nUj2w/EL2GJg0LKYiySZysDl2PHMHr3L3mI8cChZGdveiNwBf71lvf4FDgK6F1Zs4hIjvUBjgPG4d83pTF2q71qRWrTG/8vfhTxEfALoG+01SMiTpYETkMPDFHF01hyvjQbjJ3i4V1XeY53gIOwrSUiErZe2LPzaPz7prTGXTXXrkidRuL/A4gqxgGnY4ktRCT7+mIzfR/j379kPUrYPuM0Hpm1B3oZE2c0A3tiq+ZEJGw9gJ+jHB9dxXiUoFocpekM9KhiOnAhGqiL5EV3YG9soOHdv2Q93ge2qa76Y9MXuBr/OslrPAlsX3FriEiedQP2Az7Av2/KQvy8tmoWicZf8P8RxBVTgXOBgZHVloh42xq4H//+JetxA7aVwMuGwHvtlEtRf9wHfLvyphCRHOsF/Awda1pN/JPs5G6RnDoQ/x9C3DEZW9qps11F8mMd4EaynejSO6YAZ2HH6iSlG5Y5vBThdShgDpa5f73Km0JEcmwAlvztC/z7pyzF8yiBpqRAL/K1D72zmAj8AR2XIJInywF/Bibh38dkNSZix+vEfdzWxljCOu/rzVOUgGuAVapoBxHJr2Ww1aM6Lq36+BBYovoqF4nHEfj/KJKMr4GTgIWjqDwRSYVFgOPRbEE9MQ6b3Y76RIzVgL+n4PryFFOBi7AXVCIiq2I5PWbi3z9lMcaiF52SMiHNos//YzwOOwNSRPKhEdu6o4RytceXwCnAGlXW/fwGA1cBs1NwTXmJCdiWLc3yiAjAJsA/gBb8+6esxnRg82orXiQJOxPuXs4vgV+RzuOHRKR238b25Ybat0UR72D71DeqsM6HYAmJbgGmpaD8eYkvsdUNcW9DEJH0awB+gJ3U4N03ZT1asGMoZT7KkpceewM3E+5ZqaOwB9ErsSVCIpIPywJNwCHoVId6jAAex/Y2TsWSzE3FZh/WA7YFVvQqXE6NAP6E7TOf7lwWEfHVE9gH+C2wlnNZ8uK3wHnehRDpykFomcwI4DCsIxSR/FgI+D/gVfz7GYWis3gHux/rPiQi/bCVniPw75vyFH+pphFEvO0MvIv/D8c7PsYekEJdUSCSZ1sAd6D90Yp0RTO23FL3HRFZAjgNS27s3TflLa5Eq7glg3pgs8ij8P8RecfrwI71VaeIpNRy2NaWsfj3NYpw40lge0REYBhwGcrjEVdcigbnknF9sWy+k/H/QXnHY1SeKElEsmUh4GDgNfz7GkU4cR+WzFBEZAPgNrSyK864oOLWEMmAJbE3TqFnQ27BOk8lQhLJr+8Ad6GHJEU8MQe7j6yHiAh8D3gI/74p73FupQ0ikjWrYA+u3j8y7yhhySV0Fq1Ifi0PnI2WvyuiiRKWjX0VRCR0vbCkpf/Fv28KIU6vrFlEsm1T4Gn8f3DeMQk4GdsKICL51Btb/q4HKUUtMR17obscIhK6JYHfA6Px75tCiVMqahmRHNkNOw7G+8fnHaOAQ7HkeiKSX1sCd6Ll74quYwp2vu7SiEjo1sJW0MzAv28KKY6vpHFE8qg147veBtrLit3rq04RyQBlf1d0FJOAM4GBiEjIGrBTgLS/PPmYiW0hEAleP+BUlPF9LvAMsHldtSkiWbAQ8FPgVfz7HYVvjMfugYsiIiHrg01cvY1/vxRijAG26LKVRAKzFFBEGd/nAv8EVquvOkUkI7YAbkd9X2gxBjgB6I+IhGwZbPXMOPz7pVBjOLBCVw0lErLVgIfx/7F6x2zgSmBQfdUpIhmxLHAGNnDz7n8U8cUo4NcoSahI6ArATdhJDd79Usjxb2DhLtpKRMr2RfvT5wJTgdNQ5yESioWAg1D297zFSOCocvuKSJi6AXsAT+HfJyksIWe3TltMRBawCHApMAf/H7F3fAUcCfSsq0ZFJEu+B9yPf/+jqD0+Bg4BGhGRUC0MHA18hH+fpLBkcD/ttMVEpEsbAc34/6DTEO8DP6qvOkUkY9YGrsMeKrz7IEVl8R62EkLHaIqEayhwPjAR/z5JYfEZSgYnEpnu2PJAdXIWz2NnK4tIOAZhx7R9jX8fpGg/3sS2aHXvoA1FJP82B+7E8gl590mKb+IOYLFO2k1EajQIuBX/H3la4m5gjbpqVESypi/wC7RcMk3xKvBD7AxjEQlPD+zl3Iv490eKeWMyOt9cJBHbYsu9vX/0aYjZwFUo47tIaLoDewEv4N8PhRovAjt31VAikluLAsdjS6e9+yPFgvE8sGKHrScikesFnArMwL8DSENMBU5HGd9FQrQF8C+gBf++KIR4Gvh+RS0jInm0CnAZ9uzl3R8pFozZwB9RHhARNysDD+LfGaQlvsL26yvju0h4VgWuAKbj3xflMR4Btqq0MUQkd7bBzs7Wy9D0xkdYHgARSYGj0Gx623gfW/4qIuFZAlthNA7/vigP8R9gs2oaQERyoxe2h/k1/PsiRcfRAlwJ9G+/GUXEy/rY8TbenUSa4gVsz76IhKc/cAowAf++KGvRgm0b2KjqWheRPFgS+D0wGv/+SNF5DEez5iKp1g+4Ef/OIm3xOPDt2qtVRDJsUeAMLJutd1+U9pgD3A6sW1NNi0jWrQ1cg1ZlZiGmA79D2zpFMuNAYAr+nUfa4n5gwzrqVUSyawngz8A0/PuitMVs4CZg9ZprV0SyqgH4AfAw/n2RorJ4CFipvcYUkXRbFfgv/p1IGuOf2FtiEQnPIOASYCb+fZF3lIBr0YOeSIj6AE3AO/j3RYrK4itgv/YaU0SyYyHgb/h3KGmMFuBW7EWGiIRneeBqYBb+/ZFH3AgMqbsWRSRrlgJOA8bi3w8pKosWbOvBYu20p4hkzErACPw7ljTHbOA6YGhtVSwiGbciNlidg39/lGScGkHdiUh2rI69lNT+8mzF28CW7bSniGTQ6sAX+HcsWYkSUAQG11LZIpJ5q2MJ0kI543cstsRVRPLtu8C9hNO35SVmYCeRNC7YpCKSRQsDn+DfuWQxpgMXYEeMiEh4ivj3Q0nFLyOqMxFJlx7AvkAz/v2Movp4FFhlgVYVkUy7HP/OJesxBTgLO6JJRMJQIKw96Z9iD/Iikg/9gV+j7Y1ZjbHAQfM3qohk31ZoGVOUMQFbYjSgijYQkezpBQzHv89JOvaPovJExNWywHnARPz7FEVtcT0wEBHJpf/g38nkMSZhS9+HVtwSIpIl5+Dfz3jEG9g5yCKSPesDNxPWyp+8xbtYngARyanlCC8TcdIxG7gN+FaFbSIi6bcpYfedO9VfhSKSkAZgR+AR/PsORe0xE/gjtnpLRHLsd/h3OCHFU8BuQLdKGkdEUqkP8B7+/Yl3XyYi6dYLOBh4E/8+Q1FfPImdHCIiAbgX/04nxHgfOBwdWSSSRRfj34ekITartyJFJBaLYRMwo/DvJxT1xVfYSxZtKxIJyAf4dz4hxzjgDGDprhpKRFLhuyipZmvcXWddiki0VgQuAabi3z8o6osScD5KOCwSnEZsf7R3J6SwfUXXAmt12mIi4mlh4GP8+4u0RAuwZl01KiJR2Az4O2HnxchT3AusiogEaTX8OyHFgnE/sG0n7SYiPq7Ev39IW1xfT4WKSM26AT8EnsW/H1BEE28DOyAiQfsB/p2RouN4DTgQW+kgIr62x79P6CqeIfkZtBJ2GoiIJKMPcCTaopinGA8cDfRERIL3C/w7JUXX8QVwArBo+80oIjFbBPgM/76gs2gB1gUec/jsv9RetSJSoaWxnDXj8O9vFNHEHOByYCAiImUX4d85KSqPKdiD8IrtNaaIxOZG/H//XcWt5bIe4vDZM9Asukhc1gCuwX5n3v2MIrp4DHupKiIyj3vw76AU1ccc4C50xJFIEvbE/zffVcwGVimXdzFs2XnSZbiiptoVkY5sA9yHTo3IW3yM5Q4QEWnXW/h3VIr64jlsANEdEYna8tjeQO/feVdxzXzl/rdDGUrAClXVrojMrwfwE+AV/PsVRbQxBTubfiFERDrQAEzHv8NSRBMfYTkF+iEiUegOPIX/b7urmIm9SGjrJ05lua6aChaR/+kP/AYYgX+foog2WoAbgGUQEenCsvh3WoroYzxwNjAYEanHqfj/niuJi9spez9gmkNZ2i61F5GuLQ/8GZiIf1+iiD5eADZGRKRC38G/45qLZUY+CiU/iTpK2BtbJSARqd4W2GDT+3fcVUwFlurgGm5zKtPNlVSwSOAKwN+AWfj3I4ro43PgAGy1qohIxf4P/w5sLpbwrAewHvBuCsqTx3gY2AHdKEQqsSjZWWZ6VifXsZtTmeYAa3ZRxyIhagB2wucoREUyMQM4E203FJEanY5/R9YaQ8tl6gf8NQXlyWu8CRwM9EJEOnIX/r/VSmIC9jKhI73K/4xH2e7soo5FQtIPWyn4Hv79hiK+uAslyhSROt2Cf2fWGlvOV7b9gckpKFdeYzRwMjAQEWnrUPx/n5XGSRVcz7VOZWvBVkWJhGwItr/c60WZIpl4HNgUEZEIvIh/p9Ya+7dTvpXRMSNxxzSgiJI6iQCsgU9itVriKypbQrmtYxnvrqB8Inm0BTabmoU8Fora4xVge0REIjQO/86tNX7XQRl7AReloHx5jxbgXyy4kkEkFAsBr+H/W6w0flXhdXXHVsx4lfNbFZZTJOt6YpMNL+PfPyjijfeBvVFeHxGJ2CL4d3Bt44ouyrsL6XqhkOd4Cbvx9OiiTUTy5BL8f3uVxkjshUKl/uJY1vurKKdIFi2BbRn7Av++QRFvfI5tg9LzkYjEYgP8O7q28Z8Kyrws8GQKyhpKfAocA/SvoG1EsmwX/H9v1cQhVV7fZs7l1cocyaO1gWuA6fj3CYp442vgOKA3IiIx+hH+HV7beKvCcncH/ogd4+Nd5lBiInAesFwF7SOSNcsAY/H/nVUaH1D97E0D8IljmV9CS0ElHxqAnYFH8O8LFPHHVOzItEUQEUnA8fh3fG1jcpXl3wpbauRd7pBiFvA3oNB184hkQg/gafx/W9XET2q81rOdy71fjeUWSQMdkxZWlIBLgaUREUnQVfh3gPPHYlVew0Dg3hSUO8R4HJtF0KyYZNkF+P+WqonhQLcar3Vd57KPQMtDJXuGomPSQooW4GZgGCIiDh7FvyOcP2o5M7cB2yc9MwXlDzHewRKm6MFbsmYv/H8/1cbudV7z687l7+i0DpG00TFp4cW/gXUQEXH0Cf6d4fyxax3Xsx42u+R9DaHGGOAPwJJdNZRICqyObavx/t1UEy9GcN1HOF/DZGCpCK5DJA6N6Ji0EONp4NuIiDjrRTqTrB1V53UtBFyILVHyvpZQYzq2fWL1LtpKxEs/LCml92+l2tgugmvvD0xxvo4rI7gOkSjpmLQw4zVgJ0REUmJt/DvG9uJPEV3ftiiBnHe0YPkBtu6irUSSdhv+v49qo5JjKCvlnX9kNrBWhNcjUisdkxZmfIgl26w1n4eISCz2xL+DbC9ui/AaFwPuSME1KeAVLINzz05bTCR+R+P/e6g2SsAqEdbBBim4pgcivB6RauiYtHDjE+Aw9CwiIil1Ev4dZXvxfAzXeiB2jrf3tSngM+BYdJ6o+NgcG+x6/w6qjahWFrX1Ugqua/sYrkukIzomLdx4D/g/NDAXkZS7Ef8Os734IqbrHQo8lYLrU1hMxnIFDO24yUQitRTZ3PYyClg4hvo4OAXXNhzoHsO1ibQ1FB2TFmoMB/ZF/YyIZEQaZk/aixYsi2ocugEnkM0ZtLzGbOB2YONO2k2kXt2Bx/D/vtcSB8ZQHwB9SMeA5dCYrk9Ex6SFG83AHth2BhGRzJiEfwfaUQyL8brB9l9mMYNz3uNp7IxnJW2RqJ2L//e7lniOeB8wL07BNX5JPCsEJEw6Ji3seBbYERGRDFoG/060s/hufJf+P72BS5yuT9F5vI+d1dynw9YTqdzu+H+na4k5wIYx1Edba6TgOudiL1BE6qFj0sKOx4BtEBHJsK3x70w7iwPju/QF7IDt8fS+ZsWCMQ44A1i6w9YT6dzqZDdB5NUx1Ed7nkzwmjqKErBm3BcqubQOcC06Ji3U+A+W/FNEJPOa8O9UO4uT47v0dg0E/h5R2RXRx0zgOuy8WpFKLYatxvD+/tYSE7AZwSTsm9A1dRVPxH2hkhvdgF2AR/H/3iqSjxbgH0ABEZEcuQj/DrazuCq+S+/UQaQjaZKi43gA2K6D9hNp1YNsn3F8dPRV0qFG4KuYrqPaOCDma5Vs6wf8guy+eFPUF3OAW4C1EBHJofvx72g7iwfiu/QuLYstmfKuA0Xn8Tr2QiWujP+SbZfh/x2tNd7EXjAkKS1J9L4EFo35WiV7hgLnoxfoocYsbBXdKoiI5Ngn+He4ncU7sV155Q4mu3tXQ4ovgBOx5cwiAIfj/72sJzwSHa2ILRv1vva5QDHma5Xs2BLbfqZj0sKMGVh/MBQRkZzrTXoexDqKqbFdfXWWw2bzvetDUdl35hJsoCHh2hqbbfH+PtYad0VfJRV7sJNyJRlzgI1ivlZJr+7A3uiYtJBjKnABduKQiEgQ1sW/860kBsZVATX4Oek+N17xTczBZlyU1TU8K2GZ/72/g7XGNGBI5LVSuTQdR/cylghMwtEHOBL4CP/vn8InxgCnkq7nPxGRROyFfydcSWwQVwXUaHngIfzrRVF5PA/8CJuRkXwbALyN/3eunvhD5LVSnR7AZ/jXQ2scEe/lSkoMxL77Y/H/zil84gNsa1JvREQCdQr+nXElsVtcFVCnw4DJ+NePovL4GPgllgFY8qc72U/s+CnpeDg9Dv+6aI0JwFLxXq44GgZciq0c8f6uKXziBWBPtFpGRISb8e+UK4lfxlUBERhKto9wCjXGA+cAgxdoUcmy8/H/btUbe0ZeK7XpT7oyZd8U7+WKgw2B21Dit1CjBbgHSwAoIiJlzfh30JXEn+OqgIg0YEuypuBfV4rqogTcCKy3QKtK1vwU/+9TvfFI5LVSn7Pwr5O2sVWsVytJ2R54FP/vk8InZgLXAGsgIiILyMry7DviqoCIrQA8hn99KWqLR4AdsRcuki3fxh76vL9D9cQsYK2oK6ZOSwHT8a+b1ngL6BnrFUtcegD7A6/h/z1S+MQE4GxgECIi0q7B+HfWlcYLMdVBHBqw7LOaTc9uvAUcjD1QSvqtCnyF//em3rg46oqJSBH/umkbv4n3ciVi/YBfYbkVvL87Cp8YARwDLIyIiHRqa/w77UpjVEx1EKdhwBP4152i9ngHO25K0msIMBL/70q98RmWfT6NhpGuPcKTgKVjvWKJwlLAmcDX+H9nFD7xGrAfetktIlKxQ/HvvCuNFqBXPNUQqwYswd1U/OtQUXs8DWyKpM0g7Ege7+9HFPGDiOsmarfgX0dt4/pYr1bqsQpwJTAD/++JwiceArZDRESqdh7+nXg1sVI81ZCIlYCn8K9DRX1xF7AykgaLA8Px/05EEVnITr4e/vXUNlqAjWO9YqnWJsA/gDn4fz8Uyccs7GSg9RERkZr9C/8OvZrYOp5qSEwDtq85D3tlQ45Z2Hm9SyJeFgZewv+7EEWMBhaLtnpicz/+9dU2XgUaY71i6UoDsDN6AR1yTAYuwLYbiYhInd7Cv2OvJg6KpRaStwiWDCpNezoV1cck4GSgL5Kk3uQrt0NazjyvxFb419f8cWGcFywdasSONczac4QiuhgFnAgsioiIRKIb2dsfdkosNeFnbeBx/OtVUV98ARwCdEfi1hO4D/82jyrujLZ6EvEc/vU2f+wc6xVLW/2BY4HP8W93hU+8A/yMbOYFEhFJtSH4d/LVxjWx1IS/vbEMzt71q6gv3gJ2QeLSHbgD/3aOKsZiWa6zZjf86669uhwc50ULg4E/ARPxb2+FTzyF3eMaEBGRWHwP/86+2ngolppIh77AWcBM/OtZUV88AXwLiVIDcC3+bRtl7BdpDSWngXQua34azejFYQ3gOnRvCjXmYMlRN0FERGLXhH/HX228G0tNpMvK5GsJb8hxO7AiUq/eWGZg7/aMMu6JtIaSdxD+ddhe3IVt35L6bQn8G8uW792uiuRjOnA5OrVERCRR5+N/A6g2JsdSE+m0M/Ah/nWuqC9KWELAgUgtlgVexr8do4wJZH85dk9gBP512V5cHuN1511PYF/gefzbUeETY4E/olNKRERc3IP/jaCWCCljdi/gJGAq/vWuqC8mYtlueyOV2gzLEuzddlHHz6KsJEdH41+XHcWp8V12Li0N/B5LeOnddgqf+Ag4EuiDdGQF4FfAVdhWtpHAe1iy35uxPnGoU9lEJCfewf+GUEuEuGR4efKVHCvk+Aw4GC3D7crB5HPPa57yaPQFxuFfpx3FifFdem5sgg0s8vhbU1QWLwF7oVNIOtIdO07wGSqv01exHCNKpiciVemOLb31vjHUEpvHUB9ZsQ3wJv5toKg/3gB2RTfw+fXAtgR4t08cMZn8za4cj3+9dhZ/QS/D5tcI7A+8iH/7KHyiBbgX2ArpzBbAa9Rez81YLgcRkYoMw/8GUWv8MIb6yJIewDHoqJu8xOvYMXsaRMBiwCP4t0lccWR0VZUafUj/sujbUXZ3gGWA04Av8W8ThU9MBC5Eid+60oAdKRhFnc/Glr6LiHTp+/jfKGqNI2KojyxaGvgryrCbl3gPW0bXkzCtRb6TIj5JfldLHIZ//XYVjwFLxFUBKbc5cCvZXTWnqD/eAg4H+iFd6YW91Iu6Da4gv/cAEYnIkfjfMGqN02KojyzbFHgW/3ZRRBOfYr/PhQjHD7Hl3951H1dMA1aKrLbSpwfwPv713FV8gW0TCkEf7Ci8ZvzrXeETc4B/Ad9DKtVAvAmU/5jcpYhIFl2E/82j1rgqhvrIg52A/+LfPopoYjRwLLAw+TUYuBP/uo47fh1VhaXYj/Gv50piDnAm9lIhb7oD2wM3ku8XXorO42vgPCzjuFTnVOJvn72SuhgRyZ778L+J1Br3xFAfedGAPSi/i387KaKJr7GHhsXIj+7AL4BJ+Ndv3PE8YeQXaCBbs7XPAavHUhPJ2wjbVzwa/3pV+MUbwCHomLRafY9ktgx+DSya0DWJSMZkYTliR/FSDPWRN63HgnyKf3spoonJwLnAUmTbhsDL+NdnEjEDWCOaasuE7fCv82piFnABMCCOyojZMOAU9DI29JgN3IWysdergWRXIJ6bzGWJSJb0wB5MvG8stcbI6KsktxqBo9DMSp5iOnAJsDzZ0h878moO/nWYVJwQSc1lSxaz8H8F/Jz0r3QYiCVJVc4RxVjgLLJ3H0irvUm2/aaT/ZftIhKxFfG/udQTJZQJs1p9sPOKv8a//RTR/Q6uBVYh/fYi/UdxRR2Pkv4BXxy+hX/d1xrDgf/DXmymRW9s8HAPysKugFew72hISUST4LE957BErkxEMuO7+N9k6o2BkddKGAZgWfCVQCg/MQc7Qmkd0mcY8B/86yjpGIOdOR2qu/Bvg3riC2z1wyJRV0yFlgT2A24ijDwNis5jFtbHb47EYTl82vWBJC5ORLJjP/xvOPXGWpHXSliWAM7Hlll5t6UimmgB7gY2xt8wbBn+NPzrxSN2qr8KM201bG+sdzvUG5OB64AdgZ6R1tC8GoGtgXOAV0kmUZUi/TEaO5Yr5Jd9SWjCp31LpGu1jog4Ow7/G0+9oXM9ozEYuIJs5yRQLBgPYytlkrYxdmxaSPvM548L667FfLga/7aIMr7mm8H6YGp7sG7Ekgbujm05ug7bTz4lBdenSE+8gE2kaPCWjJvxa2vlEJB2aR9vmC7GEodl2f7Y8j+JxorYUV77Eua+2bx6Hlsp8Xds0ByHbsAuwG/QEsxXgU2wmZHQLYudFpLnvbKTsGRdY8oxDjtBYyFs73jb6A8MKf//IvMrAbdjiTRfdC5LaB7DLwv+pth9WkQk8/sD52KDAYnemthgzrt9FdHGp8BviXZPbW9saeB7Kbi+NMRkspGwL0l/wr9dFIo0x+fAySijt6d38Gv/HyVwfSKSEc/jf1OqN86LvFakrY2wBCbe7ayINqYA12ArUIZSmyWBP2Azht7Xk6Y4sMb6zLPFgAn4t41CkbZ4Gvgx8eY2kMp4JmI8M4HrkwzSEvcwjcSWH2bZzdgeLYnXd4Az0NLlvPoMeAZ7aTcOmwWeVP5zCnZawgrlGFb+cyPyvWy5FuqPOnYi1oeIhG4GcAu2jP1V57KIWQL4yvHzHwS+7/j5klIaoIenGzAT6OFdkDo9ghLFJWlH4HRgfe+CiKTMB8AG2EsNWVAfrI4GeRdExMlI4DIsceJY57LMo1AsNWB5EbpjpwfMbm5qnOtbqkRtiiVq9DIOHRss7dAAPTxLA6O8CxGBN9FRa0lrAPbEjn1ZzbksImkwC9gMeNm7ICm3C/Av70KIJOwJbLb8n8SXpLNmhWKpJ7ADsA82kzwaO6rzEWBCc1Nj6socg/2AG53LMAz42LkMkjLK1hyewd4FiMgS3gUI0FzgDuzFyP8Bn7iWRsTfCWhwXom7sdwHInk3GTu6dB0sM/hdpHNwvgjwN+xUn12BLbHj/84HbgO2LxRLffxKmJgVvQsAFLwLIOmjGfTw5GUmYyrQz7sQgWsEfg78Di1flfDcj239CGk5aD36Aa9hs0UiefMKNjD/G5a/I7UKxVJ/7Ei3LbAtKPObhS3LvxG4FBjX3NTYklwJE3UDljTV0znA8c5lkJTRDHp48jKD3tu7AEIJu3mvCByJHeUlEoLRWNZ2Dc4rNwV7EE7dbKJIjaZi+8o3wmZBryQbg/M7sdn9jmbIe2IJQY8CLgSGFIqlvI4X0jCDvqF3ASR98vqDk47lZYDeDWWSTovp2EB9JeAA4C3f4ojEai420PTM/JtVzwLnehdCpE6vAYcDy2CryDKxzaVQLPXFBudbAr26+McbsGMSdwUuAVYuFEvd4y2hzULWywAAIABJREFUizQM0LXEXRagAXp48jJAB82ip81sbEncWthethd9iyMSi3OAh70LkWG/x5YDi2TJNOA6YBNgPaCIHUmZCYViqRHLIVPJ4LytvsDWWLK7FXM2SO8HLOVdCGAR0vGiQFJEA/Tw5GmAHkICkyyai2Wt3RjYBg1mJD+eB072LkTGzcJe4H3pXRCRCgzHlnovA/wUeMG3ONUrD6r/BnyX6gbnrRbCBvbnA8vmaLl7mvJhaJm7zCMvPzKpnAbokqRHgW2xPXp/R3t2JbsmYscRzfYuSA6MwAbpM70LItKOGVjysM2BtbEl3hNdS1Sj8mD6MuD71LctsBf2wv0UYLHy+elZl6ZZaw3QZR4aoIdHA3Tx8DLwQ2AN4HpsFk0kSw5BRwtG6TngYO9CiLTxNnA0Nlt+IJYzIet+C+yJLVWv10Llv+tg8vH8pQG6pJYG6GHpAwzwLkSEtAc9e97BzlBfCdvTNt23OCIVuQQ7lkiidTNwpnchJGgzse/hltgL5IuA8a4likihWNoNOAJYlOiOVe5f/jvXLhRLPSL6O72s5F2ANjZAR19LGxqghyVPs+eQjze4oRoB/AIYApwBTPAtjkiHbgV+6V2IHDsJuMu7EBKc94DfYM9F+wFP+RYnWoViaVXs5ddgoh/4DQaasCRrWZamGfT+wMrehZD00AA9LBqgS9qMwR7QhwDHYedLi6TF/djRgS3eBcmxuVgdP+NdEMm9EnAblpV8VeDPwDjXEsWgUCwNBG4CViGe5/xuWMK5ARnfi56mATpombu0oQF6WAZ5FyBiWuKeH5Ow85FXwM6X/di3OCI8i+VNUL6E+E0Dtgee9i6I5NKH2AvgZYG9gcd8ixOfQrHUB/gHdhRcnEeiDQCyvMS9J7C8dyHmowG6/I8G6GFZ1LsAEdMMev7MwM6XXRlbdjjctzgSqDeAnbCBoyRjCrADOVtqLG5mAXdip4isjL0AHuNaopiVzzpvPeI07sHzNLKdQ2YI8b7AqEXBuwCSHhqgh0UDdMmKOVjinnWAXbCMzyJJ+AjYjpwkisqY1kH6k94Fkcz6GDgRmx39EfAwARzvWT7r/FYs2V3PBD7yZWBac1NjVus2bcvbAdZH4zIp0xchLIt4FyBiGqDn31zgHmAzYCvgQdfSSN6NwmbclAvBz1RgR+AJ74JIZszClnXvgGXmPouAfsNtzjrfDjuvPG5zseNSs7zCKI0D9IWx3AgiGqAHJm8z6NqDHpYngO9jy8DuRIm7JFrjse/XR94FEaYCP8CS9Il05A3gGCwB7h7Y9yWo+0I5Sdvx2PnkSU1ajAJeJNv5OdI4QAftQ5cyDdDDkrcBumbQw/QKtnRxDeBasv2QIOkwDdtz/oZ3QeR/pmJtcqF3QSRVxmOzxRtiW6AuIOd7y7uwO3bkWZRnnXflT8CYDC9vh/QO0LUPXQAN0EOjJe6SJ+8CBwPDgIuxI3REqjULm3171rsgsoA5wK+AQ9CLuJC1YNub9sFOozkCaHYtUQoUiqU1gDOAZUhucP45lohuZkKfF5e0DtA1gy6ABuih0Qy65NFnwC+B1YBbCCAhkERmDrA/8IB3QaRTV2G5AXJ3ZrV06kPgZGAotv3kVrI/MIxEoVgaAPwVy1Cf5LP8ccCojM+eN2Av9tMo7uPxJCM0QA9L3mbQtQdd2voY2Bf4FvC4b1EkA6YAuwK3eRdEKvIEdnzUW94FkVhNxQaeW2GDz9OBkZ4FSptCsdQTm8VOejD3BJYVP+ur1QaR3gmevsDq3oUQfxqgh0Uz6BKCl4HvYvtX33Qui6TT58AWwL3eBZGqfIgN0q/0LohE7hngZ9jg6SBsMJjlWdpYlDO23wJsSvxnnbc1AzgWGJvx2XNI7/L2VtqHLon+uMVXN2CAdyEilroBejmjajfswWJuDm5kWXYvltX3IOCP2D49kdewDOGfexdEajIFOBS4G7gaWNq3OFKHL4AbgOuA95zLknrl54vTSe44tbZ+Cbze3NQ4J+HPjUPaB+gbYqtIJGCaQQ9Hf5JLIpKURu8CtFUollbFBoUvAy8AtxSKpUJ5OZr4mANcgy2VPAmY5FsccXYf8G00OM+De4G1gb97F0SqUsKOyfwBsDxwAhqcV2p34ECgX8KfexfwL/Kz/z8LA3QJXN4GbNKxFcjf+b6PAVt7FwKgUCxtgM3mrAm0DshnYDMEE7G33vc1NzXm5QaXVUsAp2AzcHpxEpbLgF9gL20kXw7ATnLI2yqxPHkVuB64GSX7q1qhWFoJWzWyKslOro3AXqa81dzUmJcz5v+GnQiQVtOxSbXZ3gURPxqgh2N97PzoPEnFAL1QLA3CZnPWof2ELXOxGbvx5X/uz8DXObrZZdFKwFnAnt4Fkdi1AL8FzvcuiMRqMHAmlpVfzzbp8Ao2W34n8L5zWTKrUCz1BR7F9iYnmRRuBrAD8HRzU2OeBosvYMlk02xd4HXvQogf3cTC8V2sg88T9wF6+cb5IJa4qJIb5wRgVDlOA57TrLqrTYA/YcueJX+mAT/BMh5LGDYELkC/aS8vAXdgg/KPncuSeYViqQf2Yn9rks0b1QLsBfw7h88oY4HFvQvRhZ9iuRkkUBqgh+MHwL+9CxEx1wF6eW/5vdhxMNUul56Nnd89CXgKOBv4QrPqbnYCTsQy40o+jAZ2xnJCSHj2BM7FtndJfOYCz/PNTPkI3+LkRzkp3NXYcuykj5U9Cri+ualxSsKfG7f+2LbDtLsEawMJlJLEhSNVCdVy4lRgM2rby9wDGIotiz8AeAh4olAsbVsolpLOzir28moz7GXLA75FkQi8ia2O0OA8XHdi5wkfC4xxLkvezMRW5P0SWA7rO89Hg/OoNQG7Agsl/LnnAbdhZ9LnTVZe2G3gXQDxpRn0cOyFdbh54jaDXl7aPhwYQnS/oznYrPpYbEb9381NjTMi+rulOhsAxwM/RC8ys+Yq4BjsOC4RsAHOgdj3YhXnsmTV29h2rgeBx7HtIxKTQrG0IfbMNpRk70G3YS+1Psvpir7dgH94F6ICU7HZ/jy2gVRAD57h0Ax6tI4CliLal1zdsQH/BsCFwNOFYmlXzai7eAV7qbU6dkxbybc4UoEvsIRGh6DBucxrBnAF9nveHXjGtziZ8DVwO/Az7Di0NYCjsaMKNTiPUaFYWhT7vg4h2ef0x4Hfk9/BOWRnBr0vsJp3IcSPBujh0JFSESnvC9uJ+F56NGAZiTcA/gI8Wx6oJ73MTex83p8Bw7DEU3lc8pcHNwNrAfd7F0RSrQVLGPhtLN/ErdiRRmIvIZ8CTsaSni4B/Bh7QTnSsVxBKee2uZOOT4WJyxvYloUPcjw4h+wM0EHL3IOmJe7hOBS43LsQEfNc4v4MlWdur1frMW1jsXNkrwcmNTc1zk3gs2Vei2OrJ44CFnMui9je4sOAv3sXRDKrH7bPd19gW8J5mT0SeA5L8PYcdk553rJ1Z0qhWOqGZe7ei2T3nX+BLf1+pbmpcU6Cn+vhHmyCJQsuwLblSIA0QA/HkdhsbJ54DtD3By7DHu6SMhcbpH8FPAmcAYzK+dvutOqHLaU+BlvtIMn7B/biUQnAJCqLY9nf9wG2JD/PSDOBZuYdkH/uWiKZR3ll3sHAOcCiJPfdmwzsCDyfs7POOzIcWNO7EBV6AktcKwHKy81HunYM8GfvQkTMc4A+AHgW2yPksVVkMvaA9S7wO+DdQG6uadOIZeE/FljZuSyhmICtYLjJuyCSa4thJwFsgi2H3xhY2LVElZmCnWLwJvA6Nhj/L8qjkWqFYmk14G5gRZJ7ppiNzSY/2tzUOCuhz/Q2BdvfnQUTsZc1Wi0ZIA3Qw3Eclhk8T7zPQV8H2/O6NH6/pZnYUsXPgT8CzzQ3NWqZYvIasOWxhwK7YMfoSfQewGaZNPsnSeuGzbxtyjeD9lXx6/unY5nVh/PNgHw4dtSZHugzpFAs9cGeZwokt+98LpZj4J6ATotZEvjSuxBVWhn4wLsQkjw9RIZDWdyjNxz4AfAfrOP3eFDrBayEHcVyLTCxUCw9iJ1J+6WWvydmLt8cQbQ08FPg51i7SP2mAL/BMhuLeGjBEmm9AVxZ/t/6YZm2h2CZzluj9b8PprYBVwswDtu+8VWbPz8H3sIG4x+hI5gyr7zv/AZgPZJNCnc8cH9Ag3PIVoK4VhugAXqQNEAPRyiJbxLT3NTYUiiWXsNmTu8m2jPRq9Wj/PmU/9wJmFoolv4DXI0dm5L35C9pMRo4E1uxsh02q74T6m9rMQvLIn0alshIJE3aLidvT3dgENAH+/33nO/Ptv95Ot8MxMehwXcofg5sQ7KTKNdiLwVCO44yqwP0270LIcnTEvdwnI0tc88T1yXurcrJXVbF6nhH0vMyZC62X/cr7Bzgt4GLsP2IM5UFPlHLYEuzW88Uls61ALdgZ/J+6FwWEZHIFYqlIcBDJLvv/EVgP+DDAFfYnYC9PM+Sh7AX/RIYDdDD8Wfyd1xDKgborQrF0nLARtjb6QHOxWnPdGx2dyo2Q3MbdjzVOGCOBuyJ6AbsgGWA/wHJLmnMiruBk7ClxCIiuVM+7/xRLJdBUveBMdj957+Brqi7EluxkCXjgIHehZDkaYAejr9gR63lSaoG6ACFYmkhLKnHicAepHfv/2ys4/8aW0Y8CRsQPQK8jCVS0Sx7vJblm1n1ZZ3LkgaPYb+b570LIiISl/Kqu8uxE0CSOu+8hA3Onwz4xJeHgO95F6IGy2PJgCUgGqCH41LgcO9CRCx1A/RWhWJpGWzZ2q3YHsS0/9bmANOwYz2mYjfzKdg5nFcDnwZ8U49bd2xrxMHA9ljiv5C8hB0V+JB3QUQkO8oJ1rph27lasvJCuVAsbQvcSHLJZVsztt8d+CkvH2DPZVmzI5aMWAKS9kGDROci4BfehYhYagfoAIViqQc2m74j8Aeyc/ZmqznYeetfYYP1R4EiMEKD9dj0x45p2wvbd5bnwfpbwMnYNgsRkYqUB+brYi811yj/z+8D1wOvpHkQWiiW+gNPY0f2JbXv/Djg8uamxkkJfV5azSCb99TfYNtUJSAaoIfjT9iPPE9SPUBvVSiWBmDHbf0W+BHpXfbembnYMvgvsZn2d4C/Yg8aU7Myc5Ex/YFdse/M98nm92Z+c7El7FdgM0ihJSkSkTqUzww/F1uq3JohH2zwNQabJT0OeCNtL5LLLxb+jZ38ktSpHjdi9TE68Pv04sBY70LU6Drs6FYJiAbo4TgTy2CZJ5kYoMP/9pwNKsfZwFZk99ituXzzMDQZSzz3F+Ch5qbGaZ4Fy7EBfDNY345sDdZnYasv/gn8CxjlWxwRyaLy4Pwm7L7fn/afYWcBn2ID0/ObmxpTcZRY+RngeOw5bOGEPvYVYF/g/QAzts9vbeB170LU6AVgE+9CSLI0QA/HqdiRRXmSmQF6q/JNenns2K1rsOPZklrmFpdZ2Mz6BOyB4AzsCJcQs8QmYQCwGzZY35Z0DtanYHvm/gnci+U2EBGpSXlwfgs2c96ni38cLAHqC8BBwBjv2eNCsbQy8CAwhGSevcdiSeFe1b0YsBfbD3gXokaTsRdSEhAN0MPxO+B070JELHMD9FaFYqk7MAxYBzv6YzHfEkVmKvAFMB7bVnFvc1PjdN8i5doi2Mz6XthgvadTOVqAj4HHsUH5w9gqCxGRuhSKpV7Y4Hx7oHcV/2oJ+C/2MnOk1yC9UCw1Yn3jt0jmSLVZ2Laop9K2zN/RQdhS8axSJvfAaIAejt9i+7byJLMD9FZtjmU7CMuyn9SRK3FrwZYyf409mJyBzWKEvswuTotiswQrYzkPhgIrAMsR3cB9FrbH8y3g7fKfbwHvogF5UpYFtsEe2AZheysnA+9huSFeAT5zK51IhMovs6/EspDXkmh1DvAmduzpx0nfg8qr5q4A9ie5+/teKGP7/E7EnkOyagfgfu9CSHI0QA/H0cAF3oWIWOYH6PC/G/hAbEB1IfaWPav709szCfgcm1k/FXihualxlmuJwtIdGMy8g/ahQD9swD0LmN3Of279czqWIfnt8p9qu+T1xV7g/RgodPHPzgWewvbg3optNxDJnHJStdOBw7DVQrU+s87FBuk7Ap8lOZNeKJY2B+4iuSPVfgdcooztC7gEOMK7EHX4NXC+dyEkOXkaBEjnSt4FkPaVHxbGFIqlcdhb9hWBy7FBVNb3p4PtneoPrATcAIwvFEuXALc3NzVOdS1ZGOYAI8rxpHNZpDo9gEOx4+iWqvDfaQC2LMcfsdM7/hZL6URiUn5x/RNsdVk9g3PK/+6a2Pab7bEEp7ErFEu9sQSqA0lmcP4gdo+dnMBnZc0y3gWo05reBZBk5eHhXyqjAXrKNTc1tjQ3NX6ELQnfEcu++hX29j8PemKzt+tjpwo8WSiWvlsolrz2TYuk2UDgIWzmp9LB+fwGATdjOQGWiKhcIklYETgJ++5HMbhtANYD/lYolhaJ4O/rVPkFw3XYwCqJfedjsePURnknxEupQd4FqJMG6IHRAD0cWpaaEc1NjbOamxrfBe7GlvD/GlsmnhcNwNLYQP064JxCsaQMpSLfWBt4GTuOMQrbAM9gL8hEUq2csf1aLJFqlM+p3bCVJceWPyNOO2MZ55M4ZaMFe6H/pjK2dyjrM+irexdAkqU96OHYh/wtc8zFHvSuFIqlAdjRLAcATVR2xEyWTAReBPYjBcfhiDhbFjseKo4HytHA5sBHMfzdInUrzzxfDBxMdRnbqzEeO/Xiv3EMaAvFUj/gOWANkpkIOxz4a3NT47QEPiuLGrAkpmk8krQayuQeEM2gh0Mz6BnV3NQ4EXgDOAfYAigCeboRDwC+g60YWLr8gCYSor7APcQ327M0cCf5OS1C8mdVYHfi/Y4uClyD7W2PVDmx3S3YdSTxjH0P8Hcsmae0byDZH5yDvfCRQGiAHg7tQc+w5qbGuc1NjWOAV7HET5tjx4aMJx971BuBDbFB+iAN0iVQf8D2ycZpfeCimD9DpGrlwe2lRLfvvDNrAweWjzqN0oHYi/Qkcqt8hWVt18qzzmV9eXsr7UMPiAbo4dAAPQfKA/XRwGtYpvctgV2xI7CyfsZ4d2AD4HZgCQ3SJTArAUcl9FmHYAN1kTTZGbsHJHHCUDcsv8uAqP7CQrG0JJaobeGo/s5OtO47fzvps90zKC8D9LW8CyDJ0QA9HDp2I0fKA/XxzU2Nw7GjVXYFNsUGtzNdC1efbsDG2DJ+JY6TkJxGssswf5/gZ4l0qlAsdce+k0n2+4OAvaOYRS+X/zYs+3wSz9ZHAM82NzXOTuCzsi7rGdxbretdAEmOBujhmOBdAIlHc1PjzOamxvexrM/HYAPcA7BkIllc9tYD2AHYt1As9fIujEgCFgZ2S/gzd0V7GiU9dia5wW2rBuBooF89f0l5tdcfgW+RzOz/ndi+8xkJfFYe9PUuQETWJJnvl6SABujhGO9dAIlX+Rz1z5ubGl8D7gK2wwbrN5C9BDK9sb11WuouIdgZn8Rtuzh8psg8CsVSD+AU6hwo12h5YMXyDHitVgf2J76s8219BZwKjNW+8+D0AlbzLoQkQwP0cGgGPSDNTY3Tmpsa3wGageOxgfo+ZGuv+jLAHuQj+6pIZ3Zw+tzvO32uSFs/wXIweDyTdsNWntV0fGmhWOqJZYRfhvgT27Vg9/F3te88WHEnEZWU0FKJcEzDEsVpsBOQ8k18FDCqUCx9ALyCzVJsjD2UrIAlZ0ujBuys2uvJ9r56ka6s5PS5m2PPAdrHKi4KxVIj8Bt8lyFvX/78qnL1lFd3XYYlXEziPvor4HntOw/ausBN3oWQ+GkGPSyaRQ9Yc1Pj9Oamxvewo9puAnYCNsKWud4AfEn6Ztcnkc199CLVGOr0uT2BxZw+WwTsWLKh+D6P9gc2L8+GV2MzbHtKEhMfDwN3kL3tahItJYoLhGbQwzIeWNK7EOKrvG9tMvBueQbgLSzB3NnYHqdlsRmNTfFfcfFPNHsu+dYbO/fZy+LYvlaRRJUHxEdT4/LyiB0PPEKFExnlzO8XAwOJf2n7JOBY4CvtOw/eEO8CSDI0QA+LEsXJPMo3+5l8swy+AdunPhxYBMtKewKWSCfpGY4xwAvArIQ/VyRJKxL/A35nFnf8bAnbHsBypGM157rAYoViaWJXg+DyffIq7FzquJe2z8X26A9vbmqcE/NnSfrl5cg46YIG6GHREnfpVJsB+yflh5APgCewwfq2wOHA0iQzoDgPGKMZA8m5lZ0/f3nnz5cAlWfPTyQ9R2D1xDKxn0vXy8i/jSVYrHZJfC1OA55obmrUi2oBO5KzLzDVuyASLw3Qw6IZdKlYeWA8BVsK3w14Dzu+rT+WSfZg4jsW531sv53OeZW880oQ10pLJsXDXliS0jTMnrc6GLiUTgbo5aXtF2G5G+J+Uf0acC12HxZptTTwoXchJF5p6hglfppBl5qUz1gf39zU+DbwEnAGliDnZ8Book3kNgv4NfCZZs8lAN4z6EOdP18CUz73/ATSM3veajCwVPmF9ALaZG1fg/iXts8ADkX3QVmQlrkHQDPoYdEMutStfHTbGGBMoVj6GHgWGAb8BZuNq/fF35nAk1rSJ4HQDLqE5kj8M7e3pxuwKzY72d7qrQKwI8kkT90HeFX7zqUdS3sXQOKnAXpYNECXSDU3NU4B3i4USx8CO2CnBFyIJdypZYbhTuAaqjyPNmrlmZK+2PVMxVaftL4wmAv/2wIgUi/NoEswCsXSwsARpCNze3t+hM2SzzNAL++Zv5RksrafDTza3NRYivlzJJuU2DMAGqCHRUvcJRblB4l3C8XSB8CPsWOjzgY2ofJ+5lHgFOCL8iy9i/KD2G3YzGYvYE45Wgfkc4BZhWJpDLZX/g0s2/zH2N7FuRq8S4V6Y8tqPQ3BBhz6zkqsyi8+L8ESE3qeXNCZ1YHe7WRz/x3JZG1/FbgC55fUkmpJJCcUZxqgh2W0dwEk38rL8T4oL30/ANsrdRyW8bZXB//aXOy881OA9zyX9JUH5w9jx8st1Mk/2gLMxrL5TsOS+MzEZtknFIql14HHsIH7WGC2Bu3SDu8j1sC+50sCXzqXQ/Jveew0kDQPMHphK8DGYH08hWJpMHAg9kItTjOAJmCk7hfSiTT/fiQiGqCH5V3vAkgYyoPsjwvF0ghsv+ESwHZYltwh2A2mBRu8ngncA3zqPDjvBjyEJb/rqm/shu1DbMSy2reai82wb4Cd8TsFKAGTC8XS88CN2O9wph7ABP/9562GogG6xKjcv16B3Qu8X0p15QJg80KxNB67F9yKndced7n3RvvOpWsaoAdAA/SwfIQNFpJIcCLSOlAfWSiWPsO+f//A9h72wQbok4GRwCTPAWt56eU9VDY470xD+d/vz7wD9znY8sjdsGXwEwrF0gPADdiS/tl1fKZkl/f+81ZDsNUeInHZANiQbDx3rgI8iK2m2hIrd9xL288FHtO+c6mAnuEDkIWOUqIzB/gAOyJEJDHlwfcEbGDawDfZe1tSMpN8PPYgFteb6e7AgHKA/RZXB/YDphaKpYeAi4HRnvvvJXFpmkEXiUX5WLXz+Kb/S7tuwPrYFpSFiX9w/hZwOdp3LpXRDHoANEAPz9togC6OygPy1CzhKxRL3bGl90meydsdy8S6OLYsfhh2vM+EQrH0V2xJ5SQN1nMvTTPoInHZFFiHbD1zdgMWSeBzZmH3nxEpeVkt6acBegCy1FlKNN7xLoBIyhyGnSvqtS+yAXsQXARb9r8CcBS2b/0N4C7geTRgzyPNoEuulfeen828W37kG/sDr2jfuVRBA/QAaIAenre9CyCSMhuRnhteN+yIuqWwwfqaWHK9KdhS+GeAInakmzLDZ9tCwLLehSgb6l0Aya2VgdWIf5l4Ft0CPKR951KltDyvSIw0QA+PZtBF5nU2trw8bYlXugH9ygE2YF8F2BE72u2dQrF0FZbca5oG65mThiPWWmmJu0SuPHteRLPn7ZkAnF7+U6QaGqAHQAP08LyD7XlNy4OhiLf3gMuAY+j87HNv3fgm0dxcYFVsb+cUbO/681gm+uHARMr7/DVwT6207D8Hy78wEDv2UCQqWwLrEe+z5ssJfEYc9gXe17YlqUHaJhMkBlnr0KR+U4HPsDM9RYLX3NTYUiiWLsCOPzsR6O1cpEo0YOVsnflsPcbth9js+ixs4P5poVh6FXgN294yDpgJzNXA3V1a9p+3GoIG6BKRcub2PxHv7Plo4BfAncAgsjPxcBHwdHNT4yzvgkgmaQY9ABqgh+kdNEAX+Z/mpsaxhWLpMuAl4HaytyRz/mPcwAbt62N72KdiLyBmASVgUvls+rexwftw4EugpIF7YtI0gw62D73ZuxCSG0diR0nGuff8eOBV4GTsmMokT+Ko1UjgEqxPFqmFBugB0AA9TG8D23oXQiRNmpsavy4US48BWwBXAhuS7cRG3YE+5RjY5n9vPeauhA3aWwfvM7Gl8k8Bd2P9xDRs77uWykcvjTPoInUrFEsLA4cT72qk0cDDWL91F3As9tKrW4yfWa8W4ADgEy1tlzr08i6AxE8D9DApUZxIO5qbGkvlo832BRbFEshtRb76ygbsenpgg/fF2/x/s4G1gX1oM2gHRhSKpQ+BN7E9+yOxgX2LBu41S+MMukhdCsVSAzZDPIR4B8vHA2PL/c/EQrH0U+A+5l1FlDa/AV5sbmqc7V0QybQsbMOTOuXpoVMqpwG6SAfKD3wflR80f4YN1HfDHq6ysISyHj2w6120/N/nYoP2EjADG7TPKEcJGFcolj4AXgf+ix3/Nh6YpYF7p9J0xFqrod4FkFxYAdtWE+cy3InY7Hnb48leAi7EZtLTOIB5GrgN60NF6pHG77dELCsJNSRaSwOjvAsRgceArb0LIflWHqgvCgzGZpdPJ/7ZoSxoHbzPwJbCT8Vm3GcCXwNPALcCn6AB+/zWxPan1IInAAAgAElEQVT9p8nbwBrehZDsKh+r9h/svhznBNCRwNXNTY0z5/v8gVjCuM1j/vxqTQX+n737DpurrBY2fichAwFCMfQuICgigoMCNrBgQ0CxA36KWBgVezmWg70cPXZxVAQFC6CgoKiAqIBKkTMI0gktEDokEEISJu37Y+3XhJDylr3n2eX+Xde6EIS8692zZ2avp6xnb+CyXqe1MHUyDXQk0aOgLi4iTnBRjZXpA0yDcxexbHW91IlIZZcVljOAGdky7x6xNHwX4NPAVjSzWB9HzJJNBCYv9c+HCvddgUOJ4n1qu9s/Gri412k5g1S+/ecQ57JPIDueTxqFnYE2xT5b3kH0yOgv+39kzT4PB84mZvLLMAm1GHgt8G+Lc+XEGfQGsEBvruuAPVInUUXtbn8dogv+7cAsm700R6/TmgNcl82qX0+MZK9HFKJv4tGFalMNFe6Py2LozPbdiSZ0pxPHDD3Q4Fn1MhboLaKouSF1Iqqe7Fi1b1P8HvD3AHev5LPjJmJL0lnEasHURfoHgfM8Uk05skBvgCbO+ihckzqBKmp3+28E/gKcBvwD+Ge7239bu9tfM21mGqRep7W412k93Ou0riP2Pn4OeCax9/J3xLJvhXHEnuttgKcSyw3PB45o8PumbA3ihuyQOgFV1ouI93eREz9XAH8jjotcrqxwvxJ4OXF0ZMpBwBOAE4lVRFJemvq92SipRxaVzkeJDtVVNrA96NmM6cuBbxCzTEODW4uJh4D7gGnZ/38hMLfBs4ON1e72JxKzNusDGxJN5van/s3lRuNu4EaiY/6tDXu/nAO8IHUSy/EB4jNMGrZs7/lFwNMo9mjK5wF/H04X9CynXYDTiRVvg37evQB4M3Cjq+ySq9se9Pt59NGpqiEL9Oban9jHVWWDLNCfCRxLzDCtaOVJn2i+9xAxYn4DMZI/gyWj+DOJwuQ2oqifS7bns2EFSu1lxfqGxBfpJkAHeDEuT1vaQuJ98ingtGWbPtXYNKJ3Qdn8ADgidRKqlna3vzux73v9Vf27Y3AqcHiv03pwuP9BVqTvBPyE6IlR5ODB0qYS+86vcN95KdStQJ+Dg/61Z4HeXHXo5D6QAr3d7a9FHJGyC8PfFrKIJcdSLWBJgb6QWJ7Xz+KR7N+ZSRxRNZWYVbyDKOBns6SIXwQW8lWUFesbE3uyNyS6EL8UWD1lXiVyO3A88MVep/Vw6mQKtjrxgFXGLWbnErOU0rBke8//SnSVLqoAXgA8nWi0NqLZ6Gz123bEuemHUvxn7s3A64FLPe+8NOpWoC+mnN8fypEFerOVdRZnuAov0LMR+HOA51DM3rrFROG9gCjWh86Ynp/FUGG+MPvn9wFXEb/7/xGNthyhr5ClivUpxKzOp/DYNohBqp8DH+91Wg+lTqZAOxHv4TK6gzhOUBqWdrf/YuI4xSJPhfkM8JWsSeeotLv9TYnv8R9QXK7XEc1CexbnpVK3Ah2ir0tTVpw1kgV6s51MLMOqqkEU6G8EjiZ9d+7FWcwnZtRnsWR2vQd8B7jOTrHVkc3srAlsQTwwHgQcRiyJb+pn8yxiK8lRvU5rdupkCnIAsS+2rNYhtulIK5UNYP+TYpePzyOOb7tprKvH2t3+JOCJxCkSe5HvoPtfgI8Al1ucl04dC/T1ieOSVVNNn7FpuotSJ1BmWQH1Qcqx12cc8X5dnSjmtiJm4p5GNNn6DXCRHeWrYzmd4L8K7EM8OL4F+CNRKDVpS8M6xO9+cLvbXyN1MgUpawf3IXZy13AdSNzPRe7t/jJwRx5bu3qd1lzgMmKW+1BixchY/9xFwJeIHiOXWZxrQOxlU3NNnaVReCZxVFhVFTqD3u72JwB3UZ1umUMd5acTjZ4cya+gbFZqEnHfTQbWJt6rRxIDM00YWL2TePi/tIZbOLqUuxHbIcAvUiehcmt3+y1iYHFnivtMehBok8Ps+bKy2fTHZ3/+F4iVTCN9Jr6d6CfyD+A++8OUVh1n0DcnBphUU0WeV6nyu5RYMj0xdSIlVqUv3HFE87+NiO0LP2l3+18fy749DV7WBOnhLIYK9muAPxAzzM8mCrxtGVxX4kHbFPge0UjvvsS55M0ZdFVatrrsw8D2FDtg+F/A9CIK32w2/ep2t38LsU1sR+BdwB7EqrmVFev3AF8kJgmu73Va8/LOT1oFn+tqzhl0XQLsnjqJURrEHvQzifOKqziYdT9xjd7W67Tcq1QDWbE+mWgyN5k43/f1xD36OOo1u74AeCVwVs16K9xCNAUsq5OAN6ROQuXV7vbXI4rax1Pcc+Q8YrCokAJ9WdmWmk2IQdB1iBnKbYnBwg2IRq23ElsDp2Uxy1nzSqjjDLpN4mquikWH8nUR1S3QB+G9wIUUe75rUaYA+wG/anf7r+t1WjNSJ6SxyWbXHwQezGaxriQG2dZjSX+CpwJ7EzNBU6juCpnVgFcRR3/VpUBfnRhUKbMdUyeg8so+d77N6JaEj8SXGeCy8WwW/Jbs9xsPtIj3a4v4DF1MFESzgb6FuRJahMV57Vmg6yJiD5WWbyrwZuBnpO/kPhqTgOcCJ2VF+szUCSkf2QPiI8Q+yNuzB8sJxMzWKcT92spifaKp4AuIjssbZv+87NajXqsCtqX8v49L3LUymwEvpNiBv1nEkYsDXzqefa4uJE5ImTvony8Ng1sqGsACXRenTqDMep3Wona3fzbRzf0blKOj+0i1iBnVo9vd/hG9TmtW6oSUv+zBcgHZDDv8Z7ZrqHC/CDiVuIeHCvd1iXvj9cRy1bLtaf879Zk9h/LvP4e4PzYnBn6k/8i22Hyf4o+CLGzvuVQDDhw1gAW6biCaMFWlU/nA9Tqtee1u/yTiOh1PNWfSW0RX7Avb3f4Pe52Wy6MaIHvAXUwsiVtR4f4vYoXI2kQB+Rpi1UXqPe0PA2dRr6V826dOYJh2xAJdj7UbsCfFzp7fB5xBvd73Up4s0BvAAl0A/wReljqJMut1Wg+1u/0/Ek2rfk00kamaNYFPAGe3u/2p2X5mNdAyhfv9wP1Z0X41cWTQOkQTmrWBJxLNGJ9FnBAwqD3txwDTanafVmEGHaJA/0vqJFQe2ez5Nym+H8uRwN3OnksrZIHeABboglj6aoG+CtlM+vnEkuDTiWZPVTsJYWNiqf7riX1+EvCfon0ucBv8Z5Z9AnEc4++Jon11onDfFHgGUbjvQKwqyXO2/U6iQH84xz+zDLZLncAw2ShOy3oWceZ5kdtgriZOHqnTthYpbxboDVC14kLF2Bc4O3USo1D4MWvLkxUuOwIfAQ4mipYqmUvM5N1R9CxFdq0gPmvGZzE0c7vIWZJqWarD8URidn1dYmVGiyjg28ChREO60c60LwDeCfwsO6u4Tq6lGsXvH3HQVpl2t98iVtbsRrEF+guA83ud1oICf4aap27HrF0E7JU6CRXLGXRBLHFfjAM2w5IVlde2u/1PEE23TiD261bFJKK4Gke87rnKirh1iT3vzyGWRU/Jfu7Qw90iYE67278HuAq4HLgZuIeY2Z9HFGqLhnK0mE9vqQ7HC4nX6L6lBmGGZttPI4r1XYBPEytNhju7vhj4AfBb6tmpdovUCQxTVWb6NRgfJgbdiizOfwdcanEurVLdBq61HBbogmgcdS3wpNSJVEmv07qz3e2fQyx5PwJ4K9WZTZ9HccX5rsQy+icQhdpE4rNmPEsGgYZm0ecT128O0RRoPksKwIVAnzh39t52t38LcAVR0N9CLH9eYOGe1lLX/z8d5LP74DpipH8b4IcM79zkPxL7XO+t4eu6PtU5BWJrChrAU7W0u/3JwFuIAdaiLAI+hduupOGwQG8AZ0w15DjgsNRJjFCSJe7L0+72NyIKkHcBb6DYh5mxmgns2Ou07s3zD11q6f/xxFLIsTYTW7qR2XyigJ9DfDk9ksV9xLnfvycK94eAhTUs7iorWx67HbAf0aRwveX8a4uBM4njla6u6SzaLsRKkarYAju5N1rWGO5kYjVUkc0hfwB8qNdpzS7wZ6i53g18J3USOToVeHXqJFQsZ9A15GKqV6CXRq/Tuqfd7d9LFCDfJh7G/4vogJ3yqKrl+V9iVjo3WXG+HTHQk0dxDjGAOLTneTVi0GPp4m7o3O+nA68jCve5wLR2t/8boq/CjJoWe5XR67T6wDXtbv8O4BziGLfDiK0P44lZsy6xVWRqjV+vLVMnMELbYIHedM8A9qHY4nwe8Z05p8CfoWa7P3UCOct1ckXlZIGuIRemTqDqslnbu9rd/t3AVGJ57zrA04gR3J1I/56bTcyI5L2/93HELMjuDO4YrnHZz1qPJYX7YuDJxFm9HwceaHf7pwM/IZZN1+nIrkrpdVoPtrv9y4HpxD24JdFg7nbgBuC+mr8+Vdl/PuTxRGMwNVC28uU7FH+s2qeAm2v+3ldaU1MnkLPbUieg4qUuFlQeVxANujZKnUjVZYX6HGDqUntx/0oU61sTe673IR6A12awM+xHAtPzXALe7vbXIB7k9mJwxfmKjCOOAdssi4XEXvg3Abe3u/3vErO4c1wGP3jZNb+v3e3fT7wvxhN9BprQ0b9qM+iPT52A0si+t44iBjuLbAz3IPBL6tkQUuVxQ+oEcmaB3gAW6BqyGPgTcEjqROokKzpmAzdkDz1XE7NSRxOF5GrELOKOwP7Ac4nZ4CKK9guIJlz9vP7Adrc/AfgY8FLi9ymbCcAGWWxPbDmYAVzS7va/CtzU67Q8c3fAsvfFI6nzGDALdFXFxsRxiUV/pn8IuLMBg3NK6wFimfuU1Ink5NbUCah4Fuha2llYoBcmewiZl8U9Sx1PNZ5oHnU2cTzZxOyvzwJeSxSVY+0Ofz/wXmIZcS4PQ0t1bH8zkW/Zm05OJJYZbwFsSwyGzGh3+z8Hfgo86IOiClTFJe4apazB2lrE585sYH4VPl+yvH9ErEAq8jP9euAP5DhgLK3EVOpToDuD3gBlf6DWYG0M3El17ovSdHHPU1b4TgAmE18oaxIzGbsTS9R3YGQz7HOBVwB/zXO2ONujeCrwYtIvbR+tRUQn+HuBy4DPEPsh69qoTOlcT2y3qIpbsEgflXa3vx6xSmpnYiJkHjEA+1VgZpkL9Xa3vw/xuf64gn/UvsC5ftZqQH5KrAqpusXE86ADWzVXlUJMg/MvYla0CmpZoC/PUrMxmxD71p8DfBTYlJW/jx8GXg+c0+u0ctvnlw0i7AH8jlg+XgdziAZm9wLfBc4AHi7zw7QqZQ7lPn5xWQuJB0ELqBFod/uPJ4qB3YjXe+g8+QeJz5ejgN9npxuUSrvbn0g0jN2VYvee/wZ4S6/TeqDAnyEt7ShiAL7q7iKe+1RzZTv+SemdlToBPVav01rU67Qe6nVaU4mZ3p8ALyQas32DWMK+bCH5L+Ls6VyL88w4YlZ+7Zz/3JTWJFYn7Al8jdizf0y729+h3e27HUhjMYVqFecQBVrV9s0n1e72NwdOIgYv12TJ4Ok4orfIzsSRYj9ud/vrJklyBbJB1w8DT6LY4vwR4LPE8YrSoNSlUZzL2xvCh04t6yxiZlYllc3ozgJmZTPrNxF7BtchlqROJvZbTae45drjiHOS6zjIN4ElXeAfz5K96scTD98PeiSQRqiqhe7jgZtTJ1EF7W5/CnAK0GblBe4WxODmdu1u/wDi+McyrNJZFzic4geS3g1c62eoBswCXZViga5l/YNoaFOnmdHayh5y7gXuzYr1y4mHw3kF7+1bRBzNd0CBP6MM1ib2DS8iBiTeBVybdYC/rNdpNa0TuUanag3ihrgHfRja3f6axLLt3Rne7POa2b/7J+Al7W7/rpRFejZ7fgwxkFTk1sepRGM4Pzc1aHU5C90CvSEs0LWsPrG3e//UiWhksmJ97oB+1uJ2t38S8FbibPe697MYTzRR3BjYjthf+kC72/890AXudkZIK1HVGfRtUidQdtlRk6cQW2NG8kw1AXgK0Tzuhe1u/56ERfpuwN4U2+xzMXAEkPL3VHPNJI5YLbr5YdE8Yq0h6rg8VWPnPnQNxzTgI8QXX5OsQRzTthuxXPMvwJntbv/AbCZNWpYz6DWUzTx/k9EXt+OAJxNFepLCIWsM1x3Azz8auMSu7UqoDsvcnUFvCAt0LY8FulYpe9D6A/BxoIndeMcB6xPn1O9DdH6/oN3tf7/d7W9nYzktpaoz6BboK7c38GrGtm97HDGT/tvseLZB+3z284tsDPcw8fn4cIE/Q1qVOixzt0BvCAt0Lc8NROMxaaV6ndbDROO0dwH38NhO8k0xkZgl3QU4mBi4+Fu72z+i3e2vn/UHUHNZoNdMu9tfgzhBYyPGvsVn6NjKr7W7/bXGmttwtbv9LYE3EKuCivRWomGp24CU0tWpE8iBS9wbwodGrYiz6BqWXqf1IHA68FrgSqKhWlONI7ro7wA8A/g08DfgtHa3v3e725+ULYtVs1R1ifsmFF+8VU72Hv46cSRZXs9RE4jP0Odny84Lle2dP5E4raLIz6RLiW1A8wv8GdJwXJE6gTGaT5yDrgbwQVErciBwWuokVuGvwPNTJ6HQ7vZbRMfzNwHvII59U3gEuBN4iFidciLwZ2L//iKbJtXeXKpb6D4RuC51EmWSLUW/Atic/J+jbgOeCdxe1OdCNsDQJT6ri7wvFxHHVF7U67QWFvhzpOHYhmofGzkNG3c2hnsktSJDI96Fj+SrHnqdVr/d7V8DfBX4NTEb9AriIbaVMrcSWJ0lX6w7EEcszcriwna3fxxRBM23WK+dyVS3OIdY5m6B/mh5LW1fni2JLTJ7U1wDzgOAVxKfS0UaOo7S4lxlMI0YJJ+cOpFRcnl7gziDrpU5jxj9Litn0EsqWz45hegMvAaxfHMKcChRtK+Nnz8QM0wPEWfZzwJ+B/wQuMv9mrWxLXBj6iTG4C3Aj1MnURbZ8vObKXZp+GJim9nrep3WrDz/4Ha3vwmxeueJFLvNcRYxEHmjn2UqkQuJIxGr6BfAIamT0GA4g66VOYtyF+gqqWzG5B7gnqX2XK9GLAv9CrH8/YXA/yPOUW/qZ9F4YN0sFhOz7K8D7mp3+98j3oMPOateaRukTmCMqp5/3l5BvF+LHGAcBzwPOKrd7R/V67Tm5PGHZo3tfgPsSPE9iN4CTLM4V8lcQXULdDu4N0hTH4o1PGcBX0idhKptqeJyPrEP+85shv0a4GTiiKKNgP2I3geb08zPpnHEioPHAdsT+/kfAKa3u/3jgTOBB33grZyqF7hVzz832WDjhxnbsWrDtTpwOPH+/36v05o3lj8s+8w9g5jVLvJINYC/A+f1Oq1+wT9HGqkqN4pziXuDNPEhWMN3KXA3sHHqRFQv2Qz7TGBm9tC7GnAZ0bhoDWKGag9ir+RTiD1jTVoSvxoxULE5Uag/BfgkMKPd7f8K+BVwb3YWvcptw9QJjJEF+hKTiFUuRRe4Q9YDPgZMaHf7R4+2SM8+Y48DnkXxz33zgQ9Q3P55aSyqXKA7g94gFuhamcXAqcA7Uyei+spm2Ofz6CXxE4DLgVOANYmifUvgZcRM+8Y055jIFrHfdTNgIdFkrgPManf7ZxP7g2+1WC+tqhe4Vc8/T68lPo8GaSPgo8DW7W7/Y71O6+GR/MfZ5+kHgf0pvikcwPuAK2wMp5KyQFclNGlGSqPzXKJZXBnZJK4hsofM1YkZpfWJh+QdiT3szwbWSpddMouAB4kGcw8Ry0q/TzRl8szh8vgyUWBV1QXEzGujZZ9BPeCppBkcnAWcC7xxJI3j2t3+c4ETgK0o/pnvUmIg4E77ZqjE7gA2TZ3EKEwBZqROQoNhga5VGU+M2m2WOpHlsEBvqOxheRIxu7de9tfXA6/O/r5pn22LiSL9buJB/nRiu8AM96wn9yNiL3FVXU8MhjVau9ufROwBTbmiYB5wCXBgr9Na5RLydrc/hTgydWeKH1SYTwzoX+LsuUruLOBFqZMYoTk0cyKisZr2EKvR+Sbw3tRJLIcFugBod/urEQ/OGxBLQj9CdEFu4vnri4lR9nuAu4CjgbOB2c5qJXE60UuhqmYQMzeN1u72P08sFU99pv0CYvvPi3qd1gpn07LPxLOB5zCY7YyHA78YazM7aQD+l3gvV8l1xNGIaggLdA3HXsQyx7KxQNdjZOcUb0YU668E3kEUGE38vFtAFOkPEh3hTwd+SjSYc5ZrMP4BPDN1EmOwGJhI9D9opKwD+lSiQVwZPkcWAVcCL+x1Wvcu+39mK4y+CxzGYDrOnw68nfhccRBQZfcm4CepkxihP1G9WX+NQRm+aFQNtxDnVZeJBbpWKHtIfRyx1+wJxKz67jS3OeZQ5/z7gLnE0uXfAxcSS+PnEA/++JCdq+uJ+6/KNiJ6HTRSu9v/CPApBt8gbmUWA9cSTTNvWfo92+72n04UzZtQ/HPefcT38FVup1FF7Eb0S6iS46j2VimNkAW6husrxPmvZWKBrmFpd/trELPqU4CDiNme9WnuZ+BiYj/rA8Te9fnEbPssYDrRROc6ovHcTb1O65FEedbBDOJeq7LtgJtSJ5FCNnt+LXENyvh5cR3wG+ALvU5rdrvbX5143+5G8cfBLQJeDJzrKRKqkNWB2VRrsP4zwKdTJ6HBKeOXjcqpDfxf6iSWYYGuEWl3++OJWfVNiFnNjwO7Uq0v6iItBPpZzCWK9weA7wCn9DqtuQlzq6LViGtZ9e/anYBrUieRQrvb/yaxTSb13vOVeYBo5votYF/gFQzmSLW3AT/3c0EVdAXRPLEq3gwcnzoJDU7VHxo0WDcQswhlYYGuUctm1Tcn9qofBLyVZs+qr8giYh/7lcQ1mu4S+GHbmLh2Vfc04F+pkxi07DPiOmBLqvG5cBewLjGYUHS+XeAo4H4/D1RBPwMOSZ3ECOwJXJw6CQ1OirM8VV0np05Aykuv05rX67RuJI4t+ipxRNDLgDOJ5d8K44ntAfsAZwC7ZR2itWobpk4gJ4OYjS2VrIfFqcS9X4XiHGJl0CSKz/cS4GvEMY4W56qiy1MnMELXpk5Ag2WBrpE4KXUCUt56ndaiXqd1X6/Tuoo4M/gdxMkFbyZmjRvbvXoZLeApwC+AZ2R7c7VyKc/MzlPjCnTgGcSslYNRj3YP0CEa09kUTlX179QJjMCdxEksahALdI3EFTR0H6Kaoddp9Xud1q3E6PopxNL3ZxJLOe8gmqs12ThgB+DHwHbZnn6tWF1m0Mu8/zp32VGN3yOWi+flEKIJY5XNAV4LXO4xjaq4Ks2gO3veQD5caaRc5q7a63Vai3ud1sO9Tmsq0Rzxu0TzpX2AY4kH7aYW6+OIBnsnAptmS4G1fM6gV0x2P/8v0Rgvr1Ui/00cafhioqFbFc0HXgVcaMd21cBdxGqQKrBAbyALdI2UBboaJVsCP7PXaV0NXAB8Eng2cCCxJL6JR5CNA54KfAlYO3EuZVaXAr1JM+jbEoVoXoMS84CfE4N6lxADfTNz+rMHZSFxTc7tdVr91MlIOanKLLoFegNZoGukrqVae3ek3PQ6rQW9TuuuXqd1BXA2cDhL9qtfQ3Q8b4oJwCuBLVzqvkJ1KdAbMYOe3cfHEN3381oZchDZyQfZsvBLidNH7s3pzy/aImJZ+zm9TsvmmaoTC3SVlg9VGg1n0dV4vU7rkV6ndQtwGbFf/RVEsf454G6asQR+bWB78lsKXDdrpU4gJ40o0IlTHHYjv8ZwFwIX9Tqt+UP/IGusdjlRpN9KuT8nFgOvBs70rHPVUFUmm+z91EAW6BoNu7lLmaX2q19P7Ff/JvA84DnA94H7KPdD+FjdQ7NWDoxEXQrbyakTKFp2KsFngXVy/GOPZDmN4bKjya4i9qRfQXnfP68Hzup1WnNSJyIVoAoz6LOB6amT0OB5fIhG4yaiENk9dSJSmWSzYzOAGdkD/w1Eg7n1iXPWDyYarLWSJZmve4HbKG+BkVpdCvS6LNVfmQOA7chv4uL9wFUr6naeFenXtrv9VxMDec+lXM9k7wf+aHGuGrsG6FPu7+PrqfcAv1bAGXSNll/a0kr0Oq2FvU7r7ux89QuBLrFnew/gRdnfV312/YvAjKzY0GPVpUCfkjqBImWDaUeRX8PDe4BTGUYDyeykiMOJbTJlacB2HrGVbXbqRKQCzaf8y8evTp2A0ijTaK2q44nEaL+kYchm0WYCM7NjnFYj9r8Nza4fnMW65NecqmhTgV/TzC72w2WBXg37E93b85q0eB1w53AHrnqd1i3tbv9DxJ7095C2a/484APAPQ68qQEuJ04kKau/p05AaVigazTenjqBzEbE0sv7UiciDVf20DufaCR391JL4bvAhsChRMGwAeUt1ucT+2uHXYQ0lAV6yWWd2/OcPT8W6I30rPBep3V7u9v/KnAL8FXSNRh8A3DlipbmSzVT9n3o56ZOQGm4xF2j8drUCWSeDEwjmnJtkTgXaVSWWgp/JfA34BNEk7lnAp3sn5VtS8lngQuW7k6t5bJAL789gMeTz/PQfODrwMOj+Y97ndZ9wM+IEyEezCGfkToVOM+zztUgZe7kfidwXeoklEZZZ2dUXmsyyoePgvWBE4AvAzcmzkUas2xmby1iJn1yFs8mls/uRLri76fAf+Hs+XD0gKelTiIHt1PDQdDsPXYuMRiWx1GBbwdO6HVaY9r20e72JxID0KcSgweDeFa7G9iXaGxn00c1xYZEz4gyOolY0aIGskDXSO1EHA9TVguBXxHNq65InIuUi2zf+niiSN+AKNzXA/YGXkN0hh9EwX4K8HHgRh/ih+VKotCqunnApNRJ5K3d7W8OXEY+XepvBfYip4Gr7D2/A/A24F0Uuy99PvBS4HxXxaiB7gA2TZ3EchwB/CB1EkrDAl0j9VLgD6mTGIbFwBnAF4CLE+ci5Sp7eJ9AnNk8hVjZMplo4PgSYE9iZiCv42PmAl8Cfg5Mc3/qsE0Ftk+dRE7WonxbLUYtew/9AjiIfL7/mdsAACAASURBVN4nLyAK3BHtPV+Vdre/IdHA7lfEKoa8n9sWE6tyftfrtObl/GdLVfBH4nuzbJ6IS9wbywJdI/UsqtdV8i/EjPqfUyciFWGpGfZJxMz6ZKLoWB3YnFgavzexXHZtorgf2nO79PfAYmIVSh+YRTSv+x1wPlFsznTmfERuBbZMnUROtiLOvK+Fdre/JnF/b8LYn4V+AxzW67QK2TeeLcXfgTg95Wvk19AOomP7j3qd1kM5/plSlXwZ+GjqJJZxJ7BZ6iSUjl3cNVJV3N/9/CwuJgr131Hts6elR8mW1C4kzi2eDf8p2scRTXD+DnyPWCY7VJwPFSXjl/r7RcAC4v0xn5g5nwk85Kz5qNSlSRzEMvDaFOjAh4nBrLEW54uAzwCFFbjZoNi17W5/OnAR8N/AAYxt5n8xUZz/DM87V7OVsZP7eakTUFrOoGs0ZpPuCJg8XEEs1/0lUdRIjZIV70sb+vv/DFzZAC4XDxBn29fBvsA5qZPIQ9aE7VryacD2XuCHg1oenr13NyNWZhxPbKEYaQf6ecD/A/4EPOh7XQ33ZKJfSJl0gO+nTkLpWKBrNC4gmuFU3Q3A/xDd3z1WRlLe5lJsc69Bej1wcuok8tDu9l8PHMPYl4rPAp4C3DboIjdb9r49sU/1aGIry3Ce6S4GPgJc0uu05haXoVQZqxETT2Va8fQE4hlVDeU56BqNY1InkJPtid/lRuB9RKMtScpLmR74xqoWZ6Fnhe3HyOfz/k0kOm6w12kt6nVa1wNnAS8CXkVsZ1neqrBF2f93EHAocIHFufQfCyjX6UTnY3HeeM6gazTWIPYi5nE0TZncC3wL+C5QSLMfSY0xkXqtzDkK+FzqJMaq3e3vDPyN2H8+FjcDe/Y6rVKcodzu9tcglr2vQzSU24X4rr6e2GN7L/G9/YhL2qX/2Al4I/B24HGJcxnyBuIMdDWYBbpG6wvEech19CDRUOsbxEONJI3UWtSr+da3iJVGlZXt3/4z8BzG3iT3+cDf8j5Wbayy33EN4v4bR+w3n2OTR+k/NgUOJlaT7Jo4l2XdQwy01WlwV6Ngga7RmkTsRS/bh1ue5hJL4L8KTE+ci6RqmUSNzg0nun2/MXUSY9Hu9jchmoSOdfXXhcB+vU5r5tizkjQAk1myxeP5lHeL75eo7+SXRqCsN6jKby7xYTcjdSIFmgS8h9ijfizRtEOShqNuMyCV3oOezSx/h3y66r+PaBAnqbxWA/YDTgTuAn4CvJDy1j6LgB+kTkLlUNabVNVwM9HZt+7NZlrAW4BriH1Bu6RNR1IFLKRexzhWukAnOrY/m+gNMBYnAte4ZFwqrT2IXkJ3AGcQz6lVaAL8R2Ba6iRUDhboGqs/AU+nXB0wizIBeB3RcOd3wJ5p05FUco+kTiBHVW8K+mnG3hhuEbEE9eExZyMpT9sT7/GpwEXAu4ANUyY0Ct3UCag83IOuvEwCvg28NXUiA/ZX4IvAOakTkVQ6M4D1UyeRkwcZe4GbRLvbn0g8uG/F2J57vgh8oddp1am3gFRVGxCz44cSs+ZVNg3YlhgElJxBV27mAm8jzmNt0vmNzyNWEVwMHIiDXpKWqNMM+rqMvfN5Ki8njlAay+fzfODH1H9Ll1Rmk4ii/AzgTqKvRNWLc4gJLotz/YfFhIqwBtGF8qPE/u0muRL4MrFX3T2KUrPdAmydOokcbUwcA1QZWXO4/wOeSmxTGq3DgBN7nVadBl2kKhhPdF4/lGhOPDltOrm7jNgqWqojG5WWM+gqwjzgKOKB6LzEuQzazsRxRNcBb6d5AxSSlqhbMVfFRnEbEIMkYynOZwBnU7/O/FKZ7Qr8L3AbsVLxTdSvOF9IbA21ONejWKCrSNcC+wBvBu5LmsngbUccl3ET8H6q0UFUUr4s0NP7PNHBfSwOBe7tdVqLc8hH0optCfwXcAXwL+CDwGZJMyrWN4Be6iRUPi5x16BMAb5CLBNs4n13H/At4uiPBxLnImkwLgF2T51Ejl4BnJ46ieFqd/sTiONAt2D03zu3Arv3Oq17c0tM0tLWA15DDIQ9h+Y8I94IPAX7Wmg5nEHXoNwPHE7MqF+TNpUkNgA+R3Tq/DKwUdp0JA2AM+hp7Q6sw9ge+N8MzMwlG0lDWsArgVOBu4AfAs+lOcU5xDZIi3MtlwW6Bu18Yl/RJ4m96k2zDtE87xai++iWSbORVKS6FeiV2f+ZNYf7NLDWGP6YS4DLep2W+0OlsRtHzJD/gCjKf000fVs9ZVKJHAv8JXUSKi8LdKXQB75ANFQ7O3EuqUwC3k0scToO2CFtOpIKULcCfWLqBEZgPDEYPJaj4Y4EZuWTjtRYTySe+W4iJmneDqyfNKO07gQ+lDoJlZsFulK6EXgx8AZiNLWJJhL78q8BTiY630uqh7oV6FU6B3074sjP0ToXuLbXaXlcpjRymxANcnvE883HgW1SJlQSi4EO9iLSKligqwxOIkZYu8CixLmkMh54LXEe5hnAXmnTkZSDuhXoVZpBfzexUmm0PgzMzikXqQnWBt4InAVMB74OPC1pRuXzXirUaFPpWKCrLB4E3gk8E7g8cS6p7QdcQMzg7Js2FUljULcCvRIz6Nn+85cQjahG4yrgRmfPpVVaDXgZ8AvgbuAE4EXAhJRJldQniN5D0ipZoKtsLiY6734IeDhxLqntTezRv5TYBuAXnlQtdSvQqzKDvhqxx3W0HaGPBB7KLx2pdp4BfBu4Hfg98YyyZtKMyu3LwBdTJ6HqsEBXGS0AvgbsBPw2cS5lsBsxOn0D8B78EpSqom4zsJWYQQc2ZfQDmvOBq+zcLj3GtsBRwHXEZMqReGTscHwP+FjqJFQtFugqs1uBA4mzMqcnzqUMtgG+RVyXzwIbJs1GUtNUZQZ9a0ZfoH8P955LQ6YQ2w8vIBr7fgZPnRmJE4h+GNKIWKCrCk4DngR8k/rNSI3GFOC/gWnEw+R2adOR1BBVKdBnE92SR+MHwLwcc5GqZg2iae1viSPBjsbGtaPxa+AtjP6zSA1mga6qmE0c2fF04JLEuZTFJOK4juuAXxJ79yWpKFVZ4n4jMHcU/90vgem9Tqupp4moucYDLwCOI5q9nQzsT3UG5crmLGJfvpNKGhULdFXNv4A9ib1PsxLnUhYTgNcQAxd/BV6aNh1JNVWVh/XZxJ7PkTQaXQB8foT/jVR1uwBfJbbOnQMcBqyTNKPqOwM4COinTkTVZYGuKloEfJdY9v6rxLmUzT7AH4ij6t5IdWa8JJVfJT5PshnwU4muycOdST8UuM7ZczXAFsBHgH8TzwofAjZPmlE9LCSOUjsAmJM4F1WcBbqq7A5in9TLgJsT51I2uxDNSW4ktgasnTYdSTVQlRl0ep3WQ8D3ia7Tq3pY/jZwVq/TcsZLdbUucDixym4a8D/AU5JmVC/3Ai8mBgXdc64xs0BXHfyROJLt09jcZ1lbAV8nlq99Adg4bTqSKqwSM+hDep3WDOBY4E3AAyv4184hGpC6ZUp1M5E4CedXwF3Aj4hVdj775+si4GnAn1MnovrwTaq6mEcc/+HZ6cu3PvBxYuT8h3hMiqSRq8wM+pBepzUT+D3wfGJV0dAg7iLgS8C7gGkubVeNPAvoEh3YTwNeTXRmV/6+CzwXjwJWzsalTkAqyEuJZYvbp06kpBYBpxPL3C5OnItUV13giNRJ5OgMorNz5bS7/XHAJsQqojWJvem3AjN6nZZLUlV1OxJ9FA4BHp84lyZ4GHg78IvUiUhS1axONOx4mNgTZCw/zgdejgN2Ut66pH9/5xln5nt5Bq/d7Y9rd/sTsoJdqrKNgPcSJ7ik/mxoUlwLPHkYr48kaSW2Ak4h/Yd62eMq4oiV1ugus6Rl1K1APyffyyNphNYiZsrPJI4GTP2Z0LT4FTB5la+SJGnY9iVGPlN/wJc9pgMfxrNQpbGqW4F+Xr6XR9IwTABeAvwMmE36z4Emxp3E9gFJUgEmEud/PkT6D/yyxwPEHvVNR3WlJdWtQP9HvpdH0krsTpwwcBfp3/tNjYXAd4hj6iRJBdscOJH0H/5ViEeA44AnjepKS81VtwL9n/leHknL2Ab4JHAN6d/vTY9/EsenSZIG7HnAlaT/IqhCLCKOsHv2qK601Dx1K9AvzffySAIeR5z28Hfiezb1+7zpMTN7PTyKWpISWg34APAg6b8YqhIXAK/Ezu/SytStQL8i38sjNdYaxPnkpxGr1FK/t42I44nu+JKkktgE+CnpvyCqFNcCbyOOtJP0aHUr0K/N9/JIjTKOWLV3LNHjJfX72VgSVwLPXfFLJ0lK7TnA5aT/wqhS3Al8DFhvFNdbqqu6Feg35Ht5pEbYmWi4eivp38PGo2M20Th44gpfPUlSaUwAjsRR7pHGLOBrwBYjv+RS7dStQJ+W7+WRamtz4rhSB/vLG78GtlrRCyhJKq+NiA7mNm4ZWfSBE4iZA6mp6lag357v5ZFqZR3gMODPxPFcqd+vxvLjT8CeK3gNJUkVshfQI/0XSxXjD8A+I77iUvXVrUB3Bl16tInA/sDJwBzSv0eNFcf5wN7LfxklSVU1HugAM0j/RVPFuJjoWuvRJWqKuhXonoMuhWcCRwP3kv59aaw8LgZetPyXUZJUFxsAP8QlbKONqcQZo2uM9MJLFVO3Av23+V4eqVJ2AD5LNEtM/V40Vh3/IlY3SJIa5KnEXrPUX0JVjbuB/wYeN9ILL1VE3Qr0Y/K9PFLpbQS8h1g9kvr9ZwwvrgZeQxxrJ0lqqAOA60j/pVTVmA18C9h6pBdeKrm6Feifz/fySKW0JnAw0T9lPunfd8bwYipwKG6jkyRlJgLvxf3pY4n5wM+JlQlSHdStQD8y38sjlcYEYp/yCcBDpH+vGcOPW4DDgdWWfVElSYJYrv0tHHUfa5wNvGCE114qm7oV6K/N9/JIyT0N+DpwB+nfX8bI4nbgXUDrMa+qJEnLsSPRUCn1F1jV43LgLcDqI7v8UinUrUDfO9/LIyWxNfAJYq9y6veUMfKYSpyoY6NZSdKovIAoMlN/oVU97gY+A2w8sssvJVW3Av2J+V4eaWDWB94B/A1YRPr3kjHyuBB4Fe4xlyTlYDzwNuAu0n/BVT0eAX4C7DqSF0BKpG4F+nr5Xh6pUKsTBd1viO+O1O8fY+SxCDgdeDaSJBVgMvBFYC7pv/TqEOcCB+JousqrTgX6vJyvjVSEccRWjGOAmaR/3xij/7w5BlftSJIGZGvgJNJ/AdYlbiA66E8eyYsgDUCdCvRbc742Up52Ar4ETCP9e8UYfcwAvoDb2SRJiewFXET6L8S6xINEN95tRvAaSEWqU4F+Sc7XRhqrTYEPAv8i/fvDGFvcDLwHWAtJkhIbBxxMzE6l/oKsSywAfg08ZwSvg1SEL5H+/ZBXnJHztZFGYzLwZuAcYCHp3xfG2KIHvJ44h16SpFKZRBz78hDpvzDrFP8HvBGYOPyXQsrNm0n/Hsgrjs330kjDthrwcmJr2BzSvxeMsccfgecjSVIFbEo8CDszkG/cAXwS2GD4L4U0ZnuS/t7PK76Y87WRVmVP4LvAPaS//42xRx84HngKkiRV0G7AX0n/hVq3mAv8CNh5+C+FNGrrk/6ezyvek/O1kZZne+DTwFTS3/NGPnEPMcC3BZIk1cCBwPWk/4KtY/wJ2I/oAyAV5W7S3+t5xOvyvjBSZgPg3dg0tW5xCfAm4jx6SZJqZSLwfuL4kdRfuHWMa4F3YvdYFeM80t/jecQ+OV8XNdskojnYGcB80t/fRj7xCPAzYA8kSWqAKcC38WGmqJgB/A+w5XBfEGkYfkj6ezuPeFLeF0aNMx7Yl9iHPIv097SRX0wn+rxshCRJDfREYtYh9RdyXWM+cDLRoEgaqw+Q/p7OIx6X94VRY+wGfA24nfT3sZFvnAe8hui0L0lS4+0L/Jv0X9B1jouIZZitYb4m0rJeRvr7eKzRx14NGpmtgI8BV5L+/jXyjYeJlUG7IEmSHmMC8Hbq04iqrHEf8E3s/q6R25b09+9YY3ruV0V1tB7wNmJWdRHp71sj37iRWBG0HpIkaZUmA18C5pH+S7zucTExKDJ5WK+Mmm481X9f9nK/KqqLFnAQ8Guqf58bj41FwB+JE0/GI0mSRmwbYv906i/1JsRs4MfAs4fzwqjRriD9/TqW+EP+l0QVNg54LrHM2dNF6hkPEKvGnoAkScrFs4B/kv5LvilxDfBh7GCr5fsV6e/RscSP878kqqAnAV8EbiH9PWkUE1cCHWBtJElS7sYBhwC3kv5LvynRJ5Z67kf0B5AAPkf6e3Ms8aX8L4kqYlNi3/GlpL8PjWJiPnAK8DwkSdJATAL+m1iSnfpBoEkxHfg80SRMzXYo6e/HscT78r8kKrG1gTcBZwMLSH//GcXEjUSn/U2QJElJbAocBywk/YNBk2IR8GfgYGCNVb5KqqPdSX8fjiXekP8lUcmsRqz8OZE4Riv1PWcUE31itvxFeHSiJEmlsRtwLukfFJoYM4DvALuu6kVSraxN+ntvLPH8/C+JSmIP4jPpHtLfZ0ZxcQPwX8DGSJKk0joQuIr0Dw5NjR7RjGfdVb1QqoXppL/nRhtPLuB6KJ028BXgZtLfW0Zx0ScaVL4QZ8slSaqMCcBhwDTSP0w0NeYAJwB7r+K1UrX9mfT32mhjgwKuhwZrV6ID+w2kv5+MYuMG4KN4qogkSZW2OvB+4F7SP1w0Oa4nliFuuvKXSxV0NOnvr9HEfJx9q6qdgc8C15L+PjKKjT7wS5wtlySpdiYDnwEeIv0DR5NjPnA6cADRvEnVdyTp76vRxB1FXAwV5onAp3D7UlNiKvARnC2XJKn2NgS+BTxC+geQpscdxDnU26/0FVPZ7Uv6e2k08a8iLoZytT3wCeDfpL9fjOLjEeBk4AU4Wy5JUuNsDRyPR7OVJS4kzqTefGUvmkppK9LfP6OJM4u4GBqzxxP7jC8l/T1iDCaGZss3RJIkNd6TiSXXqR9QjIhFwPnAu/HYnKoYB8wm/b0z0vhBERdDo7IV8CHgn6S/L4zBxCPAScRRh86WS5Kkx9gLOI/0Dy3GklgI/AV4B3bbLrsqznZ+qJAroeHanFg1cwExMJf6fjAGE9cT7z0/0yVJ0rC8lNibmvohxnh0zAfOBg4H1l/hq6dUfkH6e2SkcWAhV0IrswmxOuZvWJQ3KR4BTgSehyRJ0iiMA96A5+qWNfrA74E3Aeuu4DXUYH2K9PfFSGOnQq6ElrUhcATwV+z50bS4DmfLJUlSjiYCHaLbeOoHHWP5MY/oIXAwsPbyX0YNwOtIfy+MJBYCqxdyJQQwBXgb8CdgAelfb2NwMY9YUbMPkiRJBVkT+Bgwk/QPP8aKYw5wKvDa7DXT4OxC+td/JHFLIVeh2dYDDiO6488n/WtsDDauBT6Is+WSJGmA1gf+hygEUz8MGSuP2USH4FcCayzvxVSuVqdaM6XnFHMZGmcd4I3AGcQ+49SvqzHYGJot3xtJkqSENgd+iLNEVYlZwM+A/YHWcl5P5eNq0r/Ww41uQdegCdYmenScRhRoqV9LY/BxDfABYiuDJElSaTwBOBm7EVcpHgB+QnTrn/iYV1RjcSLpX9/hxgcKugZ1tSaxdeQUXEHU1JgH/Bx4LpIkSSX3NOAs0j9AGSOL+4FjgH2BCY95VTVSHyP9azrc2L+ga1AnawAHEYOQs0n/mhlp4hrg/ThbLkmSKuh5wMWkf6AyRh73EMuenweMX/aF1bDsR/rXcbjxxIKuQdWtDhxAzJTOIv3rZKSJucS2IGfLJUlSLRxEtfbjGo+O+4gC5RCcNRqJLUj/2g0nFmAvgqVNJAZXjie2gKR+fYx0cTXwPuBxSJIk1cwE4sihaaR/6DJGHwuAfwCfAHZFq3I/6V+zVcXNhf321bEa8GLgWGAG6V8TI13MBX4KPAdJkqQGaAHvBKaT/kHMGHtMJ/atv4LoZq1HO5f0r9Gq4uyifvmSmwC8gDiB4l7Svw5G2rgKZ8slSVKDrQ4cCdxB+gczI594BPgT8ZC7AwL4Fulfl1XF0YX99uUznjij+nvA3aS/9kbamAucADwbSZIkATCJ6Ih7F+kf1ox8YypRoL6IGJBposNJ/zqsKt5X2G9fDuOIAuzbOCBoRFwJvBdYH0mSJC3XmsCHiO7hqR/ejPxjNnA68HaieVpTPJ30135VsV9hv31aewLfAG4j/TU20sds4DhgLyRJkjRsawEfJTqHp36gM4qLy4EvEjObdT5zfRKwkPTXe2VRp+0IuwNfBW4h/XU1yhGXAO8AJiNJkqRRm0x0Crejcv3jfuBE4FBgA+rnWtJf4xXFAuJYsSrbDfgScCPpr6dRjpgJfBdPmpAkScrdOsBRxANX6oc+o/hYCFwIfJIovOrgl6S/riuKGwv8vYu0K/A54DrSX0OjPHEe8EZi5YokSZIKtB7wGeBB0j8EGoOL24EfAQdR3SWqnyT9dVxRnFng7523ZwBfAW4g/XUzyhN3E/dFnbZqSJIkVcb6wOeBWaR/MDQGG48A5xDNBHemOvYn/bVbUXynwN97rIa6r38DmEb6a2WUJxYCfyQG7qq+RUOSJKkWphD7Th8i/cOikSZuI2bXXw2sS3ltTfprtaJ4T4G/92hMAJ5PnM3ukWjGsjEN+DSwFZIkSSqlDYjljQ+T/uHRSBfzgb8RjQXbxOxrmTxA+mu0vHhpkb/0ME0EXgIcg8csGo+NPnAqca+OR5IkSZWwEfA1YA7pHyiN9HEXcAJwMLHaIrXzSX9NlhdPKPKXXonViaX/x+NJDcby4zrgI8DGSJIkqbI2IfasziX9A6ZRjlgIXEw0GdyLNLNw3x1BvoOK+cBqRf7Sy1gTeBXwC+whYSw/5gA/BZ6LJEmSamUz4NvAPNI/dBrlivuBk4A3EwM6g/D2An+f0cbUQn/jMBl4A3AKbkMxVhyXAe8mTuuQJElSjW1ONJx6hPQPoUb5YhFRHHwJ2IfiOkLvWYLfddn4Q0G/63rA/wN+iwNkxopjFvAD4OlIkiSpcbYEvk80HEr9YGqUN2YBpwFHANuQn7WIpfapf7+l41s5/n4bAG8lzlX3PWasLC4A3kK8JyRJktRwWxPdoueT/kHVKH9cSxSyLwUmMTZTS/D7LB3vHuPvswnwTuDPwIIS/D5GeeM+ojfIk5EkSZKW4/HAsVioG8OPucBZwPuBJzFyp5bgd1g6XjKK32FL4H3EkXZlWxFglCsWAecArye69kuSJEmrtB3wE5wBNEYetwE/JxrA7ciqHVWCnJeO7YaRM8C2wIeJTviLSpC3Ue64HfgCcd9IkiRJo/IE4ngfC3VjtHEncDKx7PvJwDge7RUlyHEo+sAEVmxH4BPApSXI1Sh/LCCaAh7Ayu8rSdJSln1QkCQ91o7Ap4DXkea8bNXHfcRS8POymM1gjjYbjut57Kz/U4BXE2eVu1dYw3ETcBzwY+COxLlIkiSpxnYizsp2Sa+RV8wsQQ5DcQahDXwRuK4EORnViHnEZ+MLcfJHksbED1FJGrknE/tvD6a4M7KlQbuRWIq8TeI8VB1XAz8CTgDuT5yLJNWCBbokjd7mwHuBdwDrJM5FkgbhYeCXRGF+QeJcJKl2LNAlaezWIbp2vxfYInEuklSE/yOK8hOBWYlzkaTaskCXpPxMJM73/RCwS+JcJGmsHiCODfwRcFniXCSpESzQJakYLyb2qb8gdSKSNELnE0X5KcDcxLlIUqNYoEtSsXYjZtRfC6yWOBdJWpF7gOOJwvz6xLlIUmNZoEvSYGwNvA94K7B24lwkCeLIyLOJovy3wPy06UiSLNAlabDWA44A3gNsmjgXSc10K/Bj4Ljsf0uSSsICXZLSaAGHAh8Edkqci6T6mw/8jpgtP4uYPZcklYwFuiSlNQ54GdFQbu/EuUiqn+uBY4n95XcnzkWStAoW6JJUHk8nCvWDgAmJc5FUXfOIDuw/As5LnIskaQQs0CWpfLYF3g+8BVgzcS6SquNyoij/GXGGuSSpYizQJam8pgDvBN4NbJQ4F0nl9BBwIlGYX5I4F0nSGFmgS1L5rQG8DugAeyTORVI5XEgU5ScDDyfORZKUEwt0SaqWXYlC/RBgrcS5SBqsGcAJRGF+VeJcJEkFsECXpGpahzimrQPsnDgXScU6FzgGOBV4JG0qkqQiWaBLUvU9iyjUXw2snjgXSfm4lzga7RjiqDRJUgNYoEtSfWwAHAa8A9gucS6SRm4x8GeiKD8N6KdNR5I0aBboklQ/44B9iVn1/fFMdans7gJ+TOwtvylxLpKkhCzQJaneNgfelsVmiXORtMQi4Gzgh8DvgAVp05EklYEFuiQ1w2rAAcARwAvx819K5XbgOOBYYFriXCRJJeMDmiQ1z/bEPvXDgCmJc5GaYCHwB2Jv+R+yv5ck6TEs0CWpudYAXkPMqj8zcS5SHU0jZsqPI2bOJUlaKQt0SRLALkShfigwOXEuUpUtIPaU/5DYY74obTqSpCqxQJckLW0ycAixBH7XxLlIVXIT0YX9x0RXdkmSRswCXZK0IrsAbwQOxg7w0vLMBn4DnECcX744bTqSpKqzQJckrcp44AVEsX4QsFbadKSk5gNnAj8HfgvMTZuOJKlOLNAlSSOxFvBKYq/6C4EJadORBmIx8A+iKP8VcH/adCRJdWWBLkkarU2BNxAz6+5XVx1dSRTlJ+KZ5ZKkAbBAlyTlYWeiUD8E2DxxLtJY3EYU5D8H/p04F0lSw1igS5LyNB54HrEE/lV4ZJuqYSZwClGUn4/N3iRJiVigS5KKsiZwIDGz/iLcr65ymQecQRTlfwD6adORJMkCXZI0GBuzZL/60xLnouZaBPyFKMp/DcxKm44kSY9mgS5JGrSdiCXwhwBbJc5FzdAjivKTgDsT5yJJ0gpZoEuSUhkH7E3Mqr8aWCdtOqqZG4mi/BfAdYlzkSRpWCzQJUllMAnYOCc+AQAABLRJREFUn9iz/mJgStp0VFHXAr/J4pLEuUiSNGIW6JKkshkP7AG8FHgZsWfd7ystz2Lgn8BpRFHuTLkkqdJ84JEkld3GwEuIYv1FwHpp01Fi84FziYL8dOCOpNlIkpQjC3RJUpVMAPYiivWXAU9Nm44GZDZwJlGU/x54MG06kiQVwwJdklRlmxF7118BPB9opU1HOboX+C2xfP0c4txySZJqzQJdklQXk4l96wcSs+suha+em4mC/DTgH8DCtOlIkjRYFuiSpDqaCOxDFOsHAlskzUYrczlLmrxdnjgXSZKSskCXJDXB7kSh/gpg58S5NN0i4O8smSm/OW06kiSVhwW6JKlptiUK9QOAZwGrpU2nEeYR+8h/A/yO2F8uSZKWYYEuSWqydYmj2/YjjnLbOG06tXIVcBZwNnA+MDdtOpIklZ8FuiRJYRzQJhrM7Ucsix+fNKNquY+YJR8qyj2fXJKkEbJAlyRp+TYkZtVfBrwYWD9tOqUzH7iAKMbPBi4l9pdLkqRRskCXJGnVJgB7EcX6y4Cnpk0nmetZUpD/FZidNh1JkurFAl2SpJHbDHgO0WTumUTBXsdmcw8Af2HJsvVbkmYjSVLNWaBLkjR2awF7EMX6s4A9gfWSZjQ6C4F/EsX4Wdn/Xpg0I0mSGsQCXZKk/I0DnsySGfZnAdslzWjFbmHJsvU/E7PmkiQpAQt0SZIGY2OWFOtPAbYEtgAmD+jnLwbuAaYTRfm5RFF+/YB+viRJWgULdEmS0lqHJcX60F83AtYEJi3nr5OAicA84mzxOcv562zimLPpwG3ZX28H+gP6nSRJkiRJkiRJkiRJkiRJkiRJkiRJkiRJkiRJkiRJkiRJkiRJkiRJkiRJkiRJkiRJkiRJkiRJkiRJkiRJkiRJkiRJkiRJkiRJkiRJkiRJkiRJkiRJkiRJkiRJkiRJkiRJkiRJkiRJkiRJkiRJkiRJkiRJkiRJkiRJkiRJkiRJkiRJkiRJkiRJkiRJkiRJkiRJkiRJkiRJkiRJkiRJkiRJkiRJkiRJkiRJkiRJkiRJkiRJkiRJkiRJkiRJkiRJkiRJkiRJkiRJkiRJkiRJkiRJkiRJkiRJkiRJkiRJkiRJkiRJkiRJkiRJkiRJkiRJkiRJkiRJkiRJkiRJkiRJkiRJkiRJkiRJkiRJkiRJkiRJkiRJkiRJkiRJkiRJkiRJkiRJkiRJ+v/twQEJAAAAgKD/r9sRqAAAAAAAAAAAAAAAAAAAAAAAAAAAAAAAAAAAAAAAAAAAAAAAAAAAAAAAAAAAAAAAAAAAAAAAAAAAAAAAAAAAAAAAAAAAAAAAAAAAAAAAAAAAAAAAAAAAAAAAAAAAAAAAAAAAAAAAAAAAAAAAAAAAAAAAAAAAAAAAAAAAAAAAAAAAAAAAAAAAAAAAAAAAAAAAAAAAAAAAAAAAAAAAAAAAAAAAAAAAAAAAAAAAAAAAAAAAAAAAAAAAAAAAAAAAAAAAAAAAAAAAAAAAAAAAAAAAAAAAAAAAAAAAAAAAAAAAAAAAAAAAAAAAAAAAAAAAAAAAAAAAAAAAAAAAAAAAAAAAAAAAAAAAAAAAAAAAAAAAAAAAAAAAAAAAAAAAAAAAABcBae+OfsEVXgAAAAAASUVORK5CYII=;" parent="1" vertex="1"><mxGeometry x="478" y="259" width="32" height="32" as="geometry"/></mxCell><mxCell id="255" value="&lt;svg xmlns=&quot;http://www.w3.org/2000/svg&quot; viewBox=&quot;0 0 24 24&quot; height=&quot;24&quot; width=&quot;24&quot;&gt;&lt;g&gt;&lt;path d=&quot;M22.4,15A.32.32,0,0,0,22,15a.33.33,0,0,0,0,.45,3.53,3.53,0,0,1,.65,4.74,5.58,5.58,0,0,1-7.18,1.47,3.45,3.45,0,0,1-1.66-1.9,3.9,3.9,0,0,1,1.09-4.56,5.85,5.85,0,0,1,4.72-.91c-.47.84-.92,1.69-1.39,2.53-.1.22-.55,1.34-.84,1.34-.65,0-1.7-1.07-2-1.26A.28.28,0,0,0,15,17a.27.27,0,0,0,0,.39c.29.25.88.95,1.41,1.42a2,2,0,0,0,1,.52,1,1,0,0,0,.73-.38,9,9,0,0,0,1-1.58c.36-.7.73-1.4,1.09-2.11s.67-1.41,1-2.11.63-1.19,1-1.76a.32.32,0,0,0-.54-.36c-.65.9-1.26,1.83-1.83,2.78a6.63,6.63,0,0,0-5.52.78,4.81,4.81,0,0,0-1.59,5.56,4.48,4.48,0,0,0,2.13,2.5,6.64,6.64,0,0,0,3.11.84,6.44,6.44,0,0,0,5.31-2.78A4.24,4.24,0,0,0,22.4,15Z&quot; fill=&quot;#191919&quot;&gt;&lt;/path&gt;&lt;path d=&quot;M1,6.8c0-.35,0-.69,0-1,1-.09,2-.15,3-.21L6.93,5.5l2.68-.1.62,0,4-.19.64,0L18.46,5a.33.33,0,0,0,.32-.33.33.33,0,0,0-.32-.31c-2.18,0-4.35-.11-6.52-.09-1.45,0-2.9,0-4.34.14-2.2.14-4.38.42-6.57.76a12.67,12.67,0,0,1,.09-1.41c0-.2.09-.52.18-.83a1.19,1.19,0,0,1,.25-.53,3.34,3.34,0,0,1,1.54-.47c1-.13,2.21-.14,2.82-.18,1.76-.11,3.56-.2,5.34-.2,1.19,0,2.37,0,3.55.11.5,0,1.45,0,2.29.08a2,2,0,0,1,1.17.37,6.26,6.26,0,0,1,.53,2.7c.09,1.07.14,2.28.16,3.41v.64c0,1.44,0,1.62,0,2a.31.31,0,0,0,.31.32.32.32,0,0,0,.33-.31c0-.78.11-3.42-.07-6.14a7,7,0,0,0-.69-3.23A2.32,2.32,0,0,0,17.6,1C16.67.77,12.47.58,11.26.57,9.45.55,7.64.61,5.85.7A26.72,26.72,0,0,0,2.44,1a3.57,3.57,0,0,0-1.58.63,1.62,1.62,0,0,0-.44.65A6.58,6.58,0,0,0,.07,3.59,22.9,22.9,0,0,0,0,6.81C0,9.53.24,13.05.26,14.1a4.49,4.49,0,0,0,.41,2.32,2.08,2.08,0,0,0,1.5.84,23.4,23.4,0,0,0,2.8,0L11,17.1a.29.29,0,0,0,.27-.29.28.28,0,0,0-.29-.27l-.77,0-2.35,0c-1.34,0-1.33,0-2.94,0a25.45,25.45,0,0,1-2.65-.07A1.36,1.36,0,0,1,1.36,16Z&quot; fill=&quot;#191919&quot;&gt;&lt;/path&gt;&lt;path d=&quot;M17.67,8.19H15.26c0-.29,0-.59,0-.87s-.1-.83-.14-1.22c-.37-.92-.64-.92-.82,0a15.17,15.17,0,0,0-.06,1.53l0,.53c-1.12,0-2.24,0-3.36,0h-.38c0-.63-.07-1.26-.1-1.88-.45-.69-.69-.62-.76,0s-.1,1.24-.12,1.86l-1.3,0c-1.52.08-3,.09-4.57.17-.49,0-1,.08-1.45.12-.85.18-.69.4,0,.65l.68,0c1.78,0,3.57.11,5.34.12l1.27,0c0,.23,0,.46,0,.69,0,.5,0,1,.07,1.5,0,.12,0,.24,0,.35-1,0-2,0-2.94.07-1.42.07-2.86.23-4.34.42-.68.21-.78.44,0,.69l3.77-.06c1.15,0,2.28-.05,3.42-.09h.14L9.85,15a.32.32,0,0,0,.33.31.31.31,0,0,0,.3-.32c0-.72,0-1.44,0-2.15l5-.2c.61.07,1.24-.32.82-.69a2.25,2.25,0,0,0-.95-.17,1.8,1.8,0,0,0,0-.22c0-.64,0-1.75,0-2.47l2.35-.17C18.58,8.69,18.73,8.47,17.67,8.19ZM10.55,9.92l0-.68,1.68,0c.7,0,1.39-.07,2.09-.11l0,.28c0,.55.12,1.64.17,2.33-1.46,0-3.36.11-4,.1,0-.13,0-.26,0-.39Z&quot; fill=&quot;#0C6FFF&quot;&gt;&lt;/path&gt;&lt;/g&gt;&lt;/svg&gt;" style="text;whiteSpace=wrap;html=1;" parent="1" vertex="1"><mxGeometry x="959.5029629629626" y="255.99740740740737" width="52" height="49" as="geometry"/></mxCell><mxCell id="256" value="&lt;font style=&quot;font-size: 12px&quot;&gt;SAP Applications&lt;br&gt;&lt;/font&gt;&lt;font style=&quot;font-size: 12px&quot; color=&quot;#b3b3b3&quot;&gt;Virtual Data Model&lt;/font&gt;" style="rounded=0;whiteSpace=wrap;html=1;fontStyle=1;sketch=1;fontFamily=Architects Daughter;fontSource=https%3A%2F%2Ffonts.googleapis.com%2Fcss%3Ffamily%3DArchitects%2BDaughter;align=left;spacingLeft=46;" vertex="1" parent="1"><mxGeometry x="250" y="481" width="156" height="60" as="geometry"/></mxCell></root></mxGraphModel></diagram></mxfile>